<svg width="48" height="48" viewBox="0 0 48 48" fill="none" xmlns="http://www.w3.org/2000/svg">
<path d="M24 0C37.2548 0 48 10.7452 48 24C48 37.2548 37.2548 48 24 48C10.7452 48 0 37.2548 0 24C0 10.7452 10.7452 0 24 0Z" fill="#7F4DA0"/>
<path d="M30.3938 20.9585C30.2771 20.0102 29.9856 19.2656 29.468 18.606C28.7958 17.7567 27.9369 17.2482 26.6652 16.9465C25.8364 16.7454 25.5016 16.7685 25.2019 17.0423C24.9227 17.2988 24.8682 17.813 25.0815 18.1461C25.2316 18.3878 25.4047 18.4743 25.8861 18.5688C26.5272 18.6868 26.9703 18.8399 27.3733 19.0703C28.2287 19.5643 28.6271 20.3372 28.6698 21.5886C28.6897 22.1761 28.7405 22.3567 28.9457 22.5651C29.326 22.946 30.0029 22.872 30.2901 22.4161C30.3954 22.2443 30.4115 22.1695 30.4226 21.7706C30.43 21.5236 30.4193 21.1559 30.3938 20.9585Z" fill="white"/>
<path d="M33.7443 22.0277C33.5754 19.1223 32.439 16.7848 30.4052 15.1402C29.2593 14.216 27.8742 13.5806 26.356 13.2716C25.7998 13.161 24.7759 13.0715 24.6002 13.1227C24.4344 13.1702 24.2 13.3496 24.0955 13.512C23.9849 13.688 23.96 14.081 24.0543 14.3083C24.2065 14.6883 24.4895 14.8226 25.2823 14.892C26.5044 14.9989 27.7649 15.4282 28.7173 16.0639C29.8046 16.7876 30.669 17.7775 31.2281 18.9407C31.7113 19.9402 32.0084 21.3805 32.0002 22.6703C31.9974 23.1367 32.0695 23.4002 32.257 23.5928C32.5402 23.8889 32.953 23.9537 33.3173 23.757C33.721 23.5447 33.8154 23.172 33.7443 22.0277Z" fill="white"/>
<path d="M37.4521 33.2164C37.3953 33.0503 37.2627 32.7942 37.168 32.6471C36.5711 31.7458 33.3644 29.2363 31.7634 28.4156C30.8492 27.946 30.1719 27.7895 29.6698 27.9364C29.1298 28.0883 28.8456 28.3397 27.9409 29.464C27.5762 29.9147 27.202 30.3369 27.1025 30.4033C26.8562 30.5741 26.373 30.7117 26.032 30.7117C25.241 30.7069 23.8058 30.1946 22.7021 29.5209C21.8448 28.9991 20.7459 28.0646 19.9027 27.1395C18.908 26.0532 18.2307 25.0949 17.6954 24.0133C17.0039 22.6234 16.8286 21.7741 17.1175 21.1526C17.1886 20.9961 17.2834 20.8302 17.3259 20.778C17.3686 20.7306 17.8139 20.3653 18.3064 19.9668C19.2728 19.1983 19.4291 19.0228 19.609 18.4962C19.8364 17.8273 19.7749 17.1442 19.4243 16.4564C19.1543 15.9345 18.4486 14.796 17.937 14.0607C17.2597 13.093 15.5734 11.0247 15.237 10.7447C14.6308 10.2514 13.854 10.166 12.9966 10.4981C12.092 10.8491 10.3962 12.2154 9.67143 13.1689C9.01777 14.0323 8.7668 14.6442 8.72887 15.4506C8.69574 16.1148 8.75256 16.3899 9.10308 17.2391C11.8456 23.8994 15.9381 29.2173 21.5606 33.4394C24.4973 35.6452 27.543 37.3246 30.7024 38.4727C32.5449 39.1415 33.3454 39.1747 34.288 38.6245C34.6859 38.3872 35.6711 37.3768 36.2206 36.6415C37.13 35.4175 37.4664 34.8531 37.5611 34.4024C37.6274 34.094 37.5753 33.558 37.4521 33.2164Z" fill="white"/>
<path d="M37.1552 22.695C37.0945 21.0516 36.8178 19.7036 36.2408 18.2006C35.6712 16.7223 35.0947 15.7575 34.0059 14.4527C32.9766 13.2293 32.177 12.5307 30.909 11.7532C29.1399 10.6698 26.9869 9.9528 24.5741 9.65128C23.7513 9.5459 23.5651 9.55343 23.3127 9.72187C22.8235 10.041 22.83 10.8368 23.3207 11.1511C23.4832 11.2511 23.6273 11.2876 24.2855 11.3737C25.2959 11.5097 25.9456 11.6379 26.7165 11.8483C29.7395 12.6746 32.0642 14.3638 33.6184 16.8713C34.919 18.9612 35.4589 21.0514 35.3823 23.7209C35.3556 24.6233 35.375 24.7821 35.5129 24.999C35.7771 25.4031 36.4738 25.4831 36.8312 25.1477C37.0536 24.9433 37.0955 24.7899 37.1393 24.0175C37.1603 23.6145 37.1648 23.0197 37.1552 22.695Z" fill="white"/>
</svg>
