<svg id="gazprom" width = "113" height = "70" viewBox="0 0 231 113" fill="none" xmlns="http://www.w3.org/2000/svg">
<path d="M72.249 73.1575H86.6105V77.829H79.7786V110.652H72.249V73.1575Z" fill="#0079C2"/>
<path d="M95.1245 96.5764L96.4149 77.829H96.8471L98.1376 96.5764H95.1245ZM86.7861 110.652H94.1582L94.8559 100.695H98.4062L99.1069 110.652H106.476L102.549 73.1575H90.713L86.7861 110.652Z" fill="#0079C2"/>
<path d="M117.259 97.5291V104.598C117.259 105.551 118 105.827 118.432 105.827C119.142 105.827 119.636 105.243 119.636 104.598V95.8695C119.636 94.7016 119.42 93.4108 116.611 93.4108H113.555V89.2925H116.734C118.865 89.2925 119.636 88.8008 119.636 86.4958V79.0583C119.636 78.4129 119.142 77.829 118.432 77.829C118 77.829 117.259 78.0748 117.259 79.0583V85.1743H109.727V79.8574C109.727 77.245 110.035 73.1575 115.314 73.1575H121.55C126.829 73.1575 127.169 77.245 127.169 79.8574V85.8504C127.169 89.9379 124.298 91.0443 122.044 90.9521V91.3209C127.107 91.198 127.169 95.0704 127.169 96.392V103.952C127.169 106.595 126.829 110.652 121.55 110.652H115.314C110.035 110.652 109.727 106.595 109.727 103.952V97.5291H117.259Z" fill="#0079C2"/>
<path d="M132.108 73.1575H149.551V110.652H142.018V77.829H139.641V110.652H132.108V73.1575Z" fill="#0079C2"/>
<path d="M162.023 93.7796V77.829H163.011C163.813 77.829 164.4 78.5051 164.4 79.7037V91.9049C164.4 93.1035 163.813 93.7796 163.011 93.7796H162.023ZM154.49 110.652H162.023V97.8979H166.345C171.593 97.8979 171.933 93.8411 171.933 91.198V79.8574C171.933 77.245 171.593 73.1575 166.345 73.1575H154.49V110.652Z" fill="#0079C2"/>
<path d="M186.782 104.598C186.782 105.243 186.288 105.827 185.578 105.827C185.146 105.827 184.405 105.551 184.405 104.598V79.0583C184.405 78.0748 185.146 77.829 185.578 77.829C186.288 77.829 186.782 78.4129 186.782 79.0583V104.598ZM176.872 103.952C176.872 106.595 177.212 110.652 182.46 110.652H188.727C193.975 110.652 194.314 106.595 194.314 103.952V79.8574C194.314 77.245 193.975 73.1575 188.727 73.1575H182.46C177.212 73.1575 176.872 77.245 176.872 79.8574V103.952Z" fill="#0079C2"/>
<path d="M218.827 73.1575H228.644V110.652H221.111V87.1412H220.833L216.943 110.652H210.923L207.064 87.1412H206.787V110.652H199.254V73.1575H209.04L213.949 99.5268L218.827 73.1575Z" fill="#0079C2"/>
<path d="M62.4873 21.8941C60.1812 11.8443 54.402 3.66919 53.6055 2.34766C52.346 4.2224 47.7368 11.4447 45.3937 19.4355C42.8344 28.3789 42.4578 36.3081 43.3407 44.0837C44.2175 51.8899 47.53 59.9114 47.53 59.9114C49.2897 64.0911 51.9261 68.609 53.6426 70.8218C56.1586 67.564 61.9409 57.8523 63.7437 45.1901C64.7471 38.1214 64.7903 31.944 62.4873 21.8941ZM53.6055 68.3016C52.4725 66.181 50.7129 62.1549 50.5462 55.8853C50.5029 49.8616 52.9325 44.6676 53.6426 43.5919C54.2754 44.6676 56.3685 49.1854 56.6186 55.3628C56.7884 61.3866 54.7756 66.1503 53.6055 68.3016ZM61.8174 38.9512C61.7309 42.7929 61.2709 46.8497 60.6844 49.2776C60.8943 45.0979 60.3911 39.2278 59.4279 34.6178C58.4647 30.0385 55.7387 22.3551 53.5623 18.8208C51.5526 22.2015 49.0767 28.8399 47.7801 34.587C46.4773 40.3342 46.4402 47.3107 46.4402 49.4006C46.0945 47.6487 45.2301 41.3484 45.474 35.048C45.6777 29.8541 46.9002 24.4757 47.5701 22.0171C50.1263 13.8112 53.019 8.55581 53.5623 7.72599C54.1056 8.55581 57.7485 15.0406 59.6378 21.8327C61.5179 28.6248 61.8976 35.1402 61.8174 38.9512Z" fill="#0079C2"/>
<path d="M57.5168 73.1574H39.9848V84.8669C40.0002 84.8669 40.0126 84.8362 40.028 84.8362C44.1586 80.7179 50.8578 80.7179 54.9915 84.8362C59.1221 88.9237 59.1221 95.5929 54.9915 99.7111C54.973 99.7419 54.9544 99.7419 54.9359 99.7726C54.9143 99.7726 54.8927 99.8033 54.8741 99.8341C50.7528 103.891 45.3688 105.919 39.9848 105.919C34.5761 105.919 29.1674 103.891 25.043 99.7726C17.7696 92.5502 16.9083 81.3325 22.4528 73.1574C23.1999 72.051 24.0613 71.0061 25.043 70.0226C29.1674 65.9044 34.5761 63.8759 39.9848 63.8759V35.7241C19.2021 35.7241 2.35547 52.4738 2.35547 73.1574C2.35547 93.841 19.2021 110.622 39.9848 110.622C50.8207 110.622 60.5823 106.042 67.4481 98.7584V73.1574H57.5168Z" fill="#0079C2"/>
</svg>
