<svg id="mogov" width = "113" height = "70" viewBox="0 0 134 55" fill="none" xmlns="http://www.w3.org/2000/svg">
<g clip-path="url(#clip0_1011_397)">
<path fill-rule="evenodd" clip-rule="evenodd" d="M16.0403 2.81107H16.9298L16.752 1.67494L17.8488 1.85382V0.926988L16.752 1.10633L16.9298 0H16.0403L16.2182 1.13644L15.1212 0.926988V1.85382L16.2175 1.6798L16.0403 2.81107ZM16.1292 1.3757C16.1292 1.28583 16.1589 1.1962 16.2182 1.13644C16.2775 1.07638 16.3664 1.01716 16.4554 1.01716C16.5442 1.01716 16.6333 1.04665 16.6926 1.10633C16.752 1.1664 16.7814 1.25603 16.7814 1.34574C16.7814 1.43553 16.752 1.52555 16.6628 1.61519C16.6035 1.67494 16.5147 1.70474 16.4257 1.70474C16.3961 1.76481 16.3071 1.70474 16.2479 1.64499C16.1886 1.58516 16.1292 1.49544 16.1292 1.3757ZM16.337 12.1999L14.9731 12.9474L16.337 13.6944L17.7007 12.977L16.3665 12.2293L16.337 12.1999ZM9.66594 21.3416V21.3489C9.66594 21.3489 10.1441 21.2986 10.4281 21.6182H10.1404C9.87354 21.5883 9.63649 21.4689 9.54757 21.3788C9.59506 21.3693 9.63288 21.3563 9.66594 21.3416ZM10.1436 21.1112C10.1755 21.1246 10.4457 21.2437 10.5851 21.4689L10.6148 21.409C10.4943 21.2267 10.3333 21.0723 10.2418 20.9913C10.21 20.9475 10.1211 20.876 9.87348 20.7508C9.87348 20.7209 9.90318 20.7209 9.90318 20.7209C9.98824 20.6642 10.2085 20.6891 10.3572 20.7432L10.3478 20.7812C10.3478 20.7812 10.5403 20.8364 10.7398 21.3211C10.6755 21.3786 10.6184 21.4396 10.5851 21.4984C10.5699 21.5292 10.5502 21.5661 10.5279 21.6078L10.5224 21.6183H10.5189C10.3121 21.3033 10.0385 21.2308 9.85722 21.2204C9.9363 21.1678 10.0183 21.1176 10.1436 21.1112ZM10.5448 20.3626C10.6248 20.6709 10.8646 21.0222 10.9611 21.1507C10.9081 21.1868 10.8481 21.2304 10.7903 21.278C10.6784 20.9426 10.5693 20.789 10.4908 20.7193L10.2887 20.3626H10.5448ZM10.7892 20.1337C10.8397 20.37 10.9513 20.8106 11.1346 20.967C11.1255 21.0186 11.1186 21.0502 11.1186 21.0502C11.1186 21.0502 11.0782 21.0735 11.0191 21.1118C10.9353 20.9599 10.7515 20.5422 10.6867 20.2486L10.7892 20.1337ZM11.1781 20.422L11.192 20.408C11.185 20.4405 11.1801 20.4749 11.1781 20.5117C11.1781 20.6742 11.1566 20.8363 11.1394 20.9396C11.051 20.7972 11.0038 20.4946 10.9631 20.2336L10.9541 20.1758L11.1781 20.422ZM10.9408 22.575L10.9112 22.605L10.8816 22.6352L10.852 22.6649L10.8222 22.6945L10.7926 22.7241H10.7629H10.7334H10.7037H10.674H10.6443H10.6148V22.6945V22.6649V22.6352V22.605V22.575V22.5457V22.5152V22.485V22.4554V22.4256V22.3958V22.3655V22.3361V22.3058V22.276H10.6443H10.674H10.7036H10.7334H10.7629H10.7926H10.8222H10.852H10.8815H10.9112H10.9408H10.9704V22.3058V22.3361V22.3655V22.3958V22.4256L10.9408 22.4554L10.9112 22.485L10.9705 22.5457L10.9408 22.575ZM11.8536 20.2836C11.9008 20.3011 11.989 20.3117 12.0862 20.3157C11.8904 20.4381 11.777 20.6874 11.7118 20.8406C11.695 20.8579 11.6783 20.8843 11.6668 20.9043C11.6217 20.9018 11.5933 20.9005 11.5933 20.9005C11.5933 20.9005 11.8035 20.5904 11.8536 20.2836ZM12.412 20.3016C12.4579 20.2945 12.4939 20.2848 12.5121 20.2726C12.5809 20.2378 12.6298 20.203 12.6703 20.1742C12.6995 20.1534 12.7244 20.1356 12.7492 20.1233C12.7492 20.1772 12.7126 20.2862 12.632 20.4195C12.4253 20.4861 11.9522 20.6569 11.8948 20.9179C11.8243 20.9132 11.757 20.9092 11.7039 20.9063C11.7919 20.7125 12.0485 20.3864 12.4527 20.3324L12.412 20.3016ZM13.1052 20.8111C13.1223 20.8226 13.1396 20.8354 13.1575 20.8486L13.1641 20.8534C12.7953 20.8985 12.601 21.0502 12.601 21.0502L12.622 21.0922C12.4766 21.0261 12.3514 20.9724 12.3047 20.9607C12.3001 20.9591 12.2938 20.9576 12.2865 20.9561C12.8688 20.7215 12.9579 20.7513 13.1052 20.8111ZM13.4212 20.9817L13.4289 20.9836C13.4393 20.9861 13.4497 20.9885 13.4609 20.9904C13.4171 21.0052 13.3662 21.0272 13.315 21.0493L13.3149 21.0494C13.2623 21.0721 13.2096 21.0948 13.1644 21.1099C12.9464 21.1925 12.9289 21.1993 12.9506 21.2458C12.8534 21.1993 12.746 21.1488 12.6463 21.1032C12.7158 21.074 13.0226 20.9574 13.4212 20.9817ZM13.8344 21.578L13.8356 21.6203C13.7352 21.6002 13.6207 21.5967 13.5198 21.5994C13.4265 21.5168 13.3315 21.4407 13.2535 21.3954C13.5282 21.3575 13.6787 21.4314 13.8344 21.578ZM13.8445 21.9124C13.797 21.8633 13.7259 21.7912 13.6456 21.7149C13.7124 21.7344 13.7799 21.7602 13.8409 21.7914L13.8445 21.9124ZM14.1132 23.2027C14.2021 23.1731 14.2317 23.0833 14.2317 23.0236C14.2354 23.0229 14.2383 23.023 14.2418 23.0226C14.2779 23.0294 14.3136 23.0477 14.3444 23.0908C14.3487 23.1177 14.3469 23.1487 14.3452 23.1777C14.3431 23.2126 14.3413 23.2446 14.3504 23.2629L14.38 23.2926L14.7951 23.2322C15.1304 23.0414 15.3008 22.9445 15.4368 22.8739H15.4769C15.4949 22.8559 15.5019 22.8488 15.5047 22.8394C15.6149 22.7847 15.7162 22.7407 15.8921 22.6648L16.1292 22.6049L16.487 21.8276H16.5146C16.6896 21.8276 16.877 21.9689 16.9855 22.0662C16.9636 22.3757 16.8331 22.5827 16.752 22.6648C16.7222 22.7241 16.6628 22.7847 16.6035 22.8443C16.5146 22.9338 16.4257 23.0236 16.3663 23.1433C16.2182 23.1433 16.0995 23.2027 16.0106 23.2926C15.9886 23.3037 15.9665 23.319 15.9429 23.3354C15.9031 23.3629 15.8589 23.3936 15.8031 23.4119C15.5012 23.5642 15.0269 23.574 14.7564 23.5796C14.6549 23.5817 14.5822 23.5832 14.5579 23.5914C14.5361 23.6024 14.5223 23.6174 14.5048 23.6364C14.4747 23.6694 14.4333 23.7145 14.3206 23.7713C14.2911 23.8007 14.2613 23.8007 14.2317 23.8007C14.0834 23.8305 13.8759 23.8605 13.7276 23.8007C13.6981 23.8007 13.6685 23.7713 13.6685 23.7406V23.7105C13.6685 23.7105 13.6685 23.6511 13.6981 23.6511C13.6981 23.6511 13.7276 23.6511 13.7276 23.6214C13.7276 23.6214 13.6685 23.6214 13.6685 23.5613C13.6685 23.5047 13.7041 23.496 13.7303 23.4896C13.7454 23.4859 13.7573 23.4829 13.7573 23.4719C13.7573 23.442 13.6685 23.442 13.6685 23.442C13.6685 23.4119 13.6981 23.3521 13.6981 23.3521H13.7573V23.3223C13.7573 23.3223 13.6685 23.3521 13.6981 23.2322C13.6981 23.2322 13.7276 23.2027 13.7573 23.2027H14.1132ZM14.0021 22.1078L14.0353 22.1582L14.0919 22.7854C14.0891 22.7853 14.0864 22.7847 14.0835 22.7847L14.1134 23.0833H14.0128L13.9109 22.0309L14.0021 22.1078ZM14.3565 22.1599C14.533 22.2487 14.8579 22.353 15.0916 22.3958C15.0035 22.4253 14.8571 22.4548 14.624 22.4841C14.5667 22.4819 14.4211 22.4797 14.2935 22.5306L14.0925 22.1619C14.1542 22.1356 14.2559 22.135 14.3565 22.1599ZM14.0279 22.0786L14.0217 22.0815L14.0031 21.7421C14.1128 21.8425 14.2311 21.9256 14.38 21.9469C14.3652 21.9469 14.3503 21.9542 14.3354 21.9616C14.3207 21.969 14.3058 21.9764 14.2911 21.9764L14.2317 22.0068V22.0353C14.161 22.0392 14.0936 22.0527 14.0435 22.0721L14.0242 22.0369L14.0279 22.0786ZM14.8982 23.0561C14.8182 23.1046 14.7434 23.1538 14.6764 23.2028L14.6556 23.2002C14.6217 23.1474 14.5512 23.0351 14.4831 22.9118C14.6039 22.9266 14.7619 22.9646 14.8982 23.0561ZM14.4428 22.8367C14.4065 22.767 14.3734 22.6971 14.3504 22.6352L14.3264 22.5912C14.3915 22.5797 14.469 22.5893 14.5327 22.5972C14.5564 22.6001 14.5781 22.6028 14.5967 22.604C14.6218 22.6156 14.6621 22.627 14.7266 22.6453L14.7266 22.6453C14.7469 22.6511 14.7696 22.6575 14.7951 22.6649C14.9228 22.6905 15.2047 22.761 15.337 22.8182C15.244 22.8639 15.1531 22.9109 15.0663 22.9589C14.8685 22.8485 14.6063 22.8339 14.4428 22.8367ZM14.7358 21.8572C14.7654 21.8572 14.7952 21.8572 14.8249 21.8276H15.151C15.2077 21.8276 15.2756 21.8321 15.3462 21.8367L15.3466 21.8368H15.3466H15.3467H15.3468C15.5035 21.8471 15.6729 21.8583 15.7615 21.8232C15.7693 21.8246 15.7762 21.8255 15.7821 21.8262C15.7767 22.0908 15.8075 22.336 15.8693 22.5791C15.7308 22.636 15.5882 22.6985 15.4481 22.7646C15.3661 22.7196 15.2019 22.67 14.9434 22.6049C15.1213 22.575 15.2399 22.5152 15.2993 22.4554C15.3288 22.3958 15.3288 22.3655 15.3288 22.3655V22.3058H15.2695C14.9835 22.3058 14.6428 22.195 14.4593 22.1062L14.4652 22.0822C14.5707 22.0197 14.6469 21.9172 14.6469 21.9172C14.6469 21.9172 14.5284 21.8572 14.4393 21.8572C14.2547 21.8572 14.1405 21.7391 14.013 21.6074L13.9946 21.5884L13.9467 20.719C14.177 21.4971 14.4787 21.8572 14.7358 21.8572ZM15.4997 20.9904H15.5068V20.9607C15.5365 20.8406 15.6551 20.7209 15.7144 20.6914C15.9485 20.5642 16.1165 20.5254 16.2127 20.5145L16.1294 20.6617C16.0701 20.7509 15.8922 21.0803 15.8329 21.3192C15.8198 21.3942 15.8096 21.467 15.8016 21.5383L15.7961 21.5378C15.6618 21.5239 15.3804 21.4946 15.4997 20.9904ZM16.0998 20.0335L16.091 20.0063C16.0635 19.9205 16.029 19.8126 15.9219 19.7045V19.6745C15.903 19.6362 15.8841 19.5889 15.8671 19.5394C15.8742 19.5445 15.882 19.5496 15.8923 19.5547H15.9813C15.9664 19.5696 15.959 19.5847 15.9516 19.5998C15.9441 19.6148 15.9367 19.6298 15.9219 19.6447C15.9515 19.6745 16.0109 19.6745 16.0406 19.6447L16.0701 19.6745C16.1295 19.8541 16.1591 19.8541 16.1295 19.6447C16.1295 19.6298 16.1221 19.6148 16.1146 19.5998C16.1072 19.5847 16.0998 19.5696 16.0998 19.5547C16.1295 19.5253 16.1295 19.4952 16.0701 19.4952C15.985 19.4663 15.9266 19.4651 15.8436 19.4651C15.8305 19.4199 15.8196 19.3757 15.8126 19.3371C15.8605 19.3457 15.9125 19.3459 15.9515 19.3459C16.2185 19.3459 16.4853 19.2559 16.7224 19.166C16.7592 19.4078 16.8078 19.661 16.9389 19.8252C16.5387 20.4215 16.3646 20.4195 16.248 20.2726C16.1888 20.2128 16.1295 20.1233 16.0998 20.0335ZM16.7814 20.5721C16.5939 20.6531 16.4305 20.6358 16.3351 20.5211L16.3961 20.5417L16.4163 20.4192C16.543 20.4057 16.6744 20.3427 16.7986 20.2552C16.8403 20.3336 16.938 20.4195 17.0196 20.4914L17.0204 20.492C16.9449 20.525 16.8526 20.5539 16.7814 20.5721ZM16.3152 21.7593L16.0404 22.5152L16.0166 22.5234C15.9143 22.1615 15.8687 21.7941 15.9514 21.3489C15.9699 21.2195 16.0449 21.0557 16.1065 20.9212C16.1445 20.8383 16.1773 20.7665 16.1886 20.7209L16.2479 20.5721C16.3506 20.6755 16.4536 20.7789 16.6334 20.746L16.6036 20.7812C16.6036 20.7812 16.2777 21.1397 16.2479 21.3789C16.1955 21.608 16.2563 21.7121 16.3152 21.7593ZM17.2559 20.6616C17.335 20.6616 17.4009 20.688 17.4448 20.7055C17.4668 20.7143 17.4833 20.7209 17.4932 20.7209C17.6117 20.8708 17.7896 21.3191 17.8193 21.5883C17.849 21.8571 17.7303 21.9172 17.5524 22.0068C17.4932 22.0369 17.4041 22.0667 17.3152 22.0667C17.2836 22.0667 17.252 22.0581 17.2248 22.0503C17.2252 22.0457 17.226 22.0414 17.2264 22.0369L17.1469 22.0166C17.0581 21.9286 16.7914 21.6825 16.5742 21.7376H16.5147C16.507 21.7218 16.4971 21.7082 16.4869 21.6939C16.4581 21.6538 16.4258 21.6088 16.4258 21.4984C16.4258 21.1997 16.6333 20.9004 16.7223 20.811L16.8409 20.7209C16.8654 20.7209 16.9206 20.7107 16.9852 20.6988C17.0764 20.6819 17.1865 20.6616 17.2559 20.6616ZM16.6628 23.5914L16.3271 23.3434C16.3634 23.3301 16.4039 23.3224 16.4554 23.3224H16.485L16.4257 23.2323C16.4842 23.1148 16.5716 23.0263 16.659 22.9377L16.6628 22.9338C16.6927 22.9037 16.7224 22.8813 16.7523 22.8588C16.7817 22.8366 16.8112 22.8144 16.8408 22.7847L16.8433 22.7822L16.9127 23.477L16.6628 23.5914ZM15.34 24.3296L15.2104 24.1429L15.9758 23.6405L16.0191 23.6708L15.34 24.3296ZM14.9819 23.8218C15.1744 23.8335 15.3717 23.8197 15.564 23.7681L15.1256 24.056L14.9819 23.8218ZM12.155 20.9385C12.0875 20.9319 12.0064 20.9256 11.9271 20.9202C11.9793 20.7769 12.2904 20.6266 12.5179 20.584C12.4273 20.6992 12.3072 20.822 12.155 20.9385ZM20.8513 20.7321L22.0486 21.0902C21.6251 21.2162 20.9843 21.3164 20.8437 21.0802C20.7877 20.9674 20.8036 20.8459 20.8513 20.7321ZM16.4382 28.3183L16.4257 28.3162C16.4387 28.3941 16.4628 28.4494 16.4834 28.4969C16.5103 28.5586 16.5315 28.6071 16.5147 28.6747C16.4851 28.7343 16.337 28.824 16.2183 28.8539C16.1773 28.8621 16.139 28.8752 16.102 28.8913C15.9653 28.6463 15.742 28.5796 15.6202 28.5619C15.6341 28.536 15.6462 28.5129 15.655 28.4954C15.6846 28.4056 15.5957 28.1362 15.477 27.9569C15.3874 27.7761 15.196 27.2703 15.0438 26.8665C15.1697 26.8046 15.275 26.8652 15.3273 26.8954C15.3422 26.9041 15.3529 26.9102 15.3584 26.9102L15.388 26.9404H15.4178C15.6487 26.8889 15.9239 26.9043 16.1861 27.1225C16.1456 27.5907 16.2058 27.8195 16.2483 27.9808C16.2604 28.0269 16.2711 28.0674 16.2776 28.1064C16.2776 28.1064 16.3596 28.2058 16.4382 28.3183ZM16.3073 27.5082C16.3073 27.5082 17.1078 27.5984 17.9083 27.2392C18.5901 26.9404 19.2722 25.9837 19.2127 24.9373H19.2424L19.3314 24.907C19.3836 24.8806 19.4358 24.8717 19.4905 24.8623C19.5601 24.8504 19.6338 24.8378 19.7169 24.7876L19.8355 24.8471C19.8355 24.8471 19.8651 24.9373 19.8651 24.9668C19.7465 25.0266 19.5093 25.1162 19.361 25.1162C19.361 25.2041 19.345 25.26 19.3247 25.3307C19.3174 25.3563 19.3095 25.3837 19.3016 25.4153C19.45 25.3852 19.7465 25.296 19.7465 25.296V25.5349L19.2127 25.6248C19.1979 25.6546 19.1905 25.6921 19.183 25.7297C19.1757 25.7671 19.1683 25.8044 19.1536 25.8341C19.361 25.8043 19.6872 25.8341 19.6872 25.8341V25.8939L19.5981 26.0436C19.4846 26.0665 19.3361 26.0015 19.2329 25.9563C19.2015 25.9425 19.1743 25.9306 19.1536 25.9236C19.1274 25.9896 19.1013 26.0497 19.0777 26.104C19.0477 26.1729 19.0218 26.2323 19.0053 26.2826L19.4797 26.3125L19.3907 26.4623L19.2722 26.5817L18.8866 26.4322C18.8274 26.5516 18.7681 26.6118 18.6791 26.7009C18.9163 26.7911 19.1239 26.8808 19.1239 26.8808L18.9459 27.0303L18.8866 27.1196L18.5901 26.8212C18.5384 26.873 18.4867 26.9251 18.4407 26.9714L18.4397 26.9723L18.3529 27.0597L18.7384 27.2993L18.5605 27.3886L18.4419 27.4486C18.2936 27.2992 18.2345 27.2392 18.2049 27.1795L18.2012 27.1819H18.2012C18.1133 27.2409 18.0256 27.2997 17.9379 27.3292C17.9083 27.3441 17.9009 27.3441 17.8935 27.3441C17.8861 27.3441 17.8787 27.3441 17.849 27.359L17.9676 27.5381L17.9972 27.6282L17.849 27.6877L17.7303 27.6282L17.671 27.4191C17.6113 27.4339 17.5591 27.4489 17.5069 27.4639H17.5068C17.4553 27.4787 17.4038 27.4935 17.3449 27.5082C17.4338 27.5686 17.5228 27.6577 17.5228 27.6577V27.7477H17.4042C17.378 27.708 17.3519 27.6743 17.3284 27.6439C17.2984 27.6053 17.2726 27.5719 17.2559 27.5381C17.2008 27.5523 17.1521 27.5599 17.1068 27.5669C17.0546 27.5751 17.0071 27.5825 16.9595 27.5984L17.1078 27.7477L17.0485 27.8675L16.9891 27.8371C16.93 27.8371 16.9002 27.8075 16.9002 27.8075C16.9002 27.8075 16.8409 27.6877 16.8409 27.6282C16.7714 27.6282 16.7121 27.6486 16.663 27.6655C16.6283 27.6775 16.5987 27.6877 16.5742 27.6877C16.6036 27.7474 16.6926 27.8371 16.6926 27.8371H16.5444L16.4852 27.7474C16.4738 27.7244 16.4624 27.7058 16.4526 27.69C16.4371 27.6647 16.4258 27.6463 16.4258 27.6282C16.4031 27.6282 16.3805 27.6238 16.3612 27.6201C16.3299 27.6141 16.3073 27.6098 16.3073 27.6282V27.5082ZM15.8328 29.063C15.8032 29.083 15.7769 29.1062 15.7506 29.1294C15.6979 29.176 15.6451 29.2226 15.566 29.2425C15.4474 29.3024 15.3287 29.3324 15.2101 29.362C15.1805 29.362 15.1509 29.3324 15.1212 29.3024C15.0916 29.3024 15.0916 29.2425 15.1212 29.2127L15.1509 29.1827C15.2098 29.1431 15.2816 29.077 15.3493 28.9678L15.388 28.9736C15.388 28.9736 15.4978 28.7837 15.5806 28.6342C15.6578 28.6725 15.8192 28.7745 15.9306 28.991C15.8976 29.0142 15.8652 29.0386 15.8328 29.063ZM10.1107 21.7376C10.292 21.713 10.4036 21.6937 10.4751 21.6773C10.4776 21.6808 10.48 21.6844 10.4824 21.6881L10.484 21.6904C10.3784 21.8907 10.2425 22.1658 10.1994 22.4255C10.1994 22.4455 10.2096 22.4725 10.2219 22.5052C10.2461 22.5693 10.2785 22.6554 10.2589 22.7547C10.2305 22.9972 10.1752 23.3077 10.1251 23.5888V23.5889V23.5889L10.1251 23.5891V23.5891V23.5892C10.0702 23.8971 10.0217 24.1698 10.0217 24.2792L10.3182 24.5189C10.3182 24.5189 10.3477 24.6975 10.3477 24.7875C10.4071 24.8772 10.4961 24.9372 10.6443 24.9372C10.6929 24.9372 10.7943 24.9017 10.9006 24.8645C10.9891 24.8335 11.081 24.8013 11.1483 24.7875C11.178 24.7875 11.2077 24.7579 11.2077 24.7579C11.2966 24.7281 11.3263 24.668 11.3559 24.5784L11.3725 24.5616L11.3959 24.538C11.4123 24.5217 11.4285 24.5053 11.4448 24.4887C11.3954 24.3395 11.3668 24.1483 11.4101 23.9849C11.5541 24.2236 11.848 24.5612 12.3639 24.638C12.3342 24.758 12.2453 25.0567 12.0674 25.296C11.9255 25.5101 11.8591 25.6296 11.7779 25.7755L11.7776 25.7761C11.757 25.813 11.7355 25.8516 11.7116 25.8939C11.8895 26.1032 12.9864 26.5516 14.1724 26.3721L14.0538 24.7579C13.8463 24.7876 13.6684 24.7876 13.4905 24.7876C12.9638 24.7876 12.6139 24.6983 12.4547 24.6577L12.4546 24.6576C12.4078 24.6457 12.3775 24.638 12.364 24.6379L12.4232 24.4587C11.9286 24.3753 11.6203 24.0465 11.4883 23.8536C11.5944 23.7639 11.8723 23.5309 12.0378 23.4119C12.4393 23.071 12.4342 22.9886 12.4302 22.9259C12.4287 22.9007 12.4273 22.8787 12.4529 22.8443C12.601 22.6647 12.5418 24.2495 12.4826 24.4887C12.4826 24.4887 13.1051 24.6975 14.0835 24.638L14.0317 24.0099H14.1846C14.196 24.1274 14.2139 24.3252 14.2318 24.5784C14.5661 24.5502 14.8749 24.4689 15.2307 24.3598L15.2783 24.4077C14.8741 24.5813 14.5814 24.6691 14.2318 24.7281C14.2911 25.2658 14.3505 25.9835 14.3801 26.3426C14.4321 26.3293 14.49 26.3046 14.551 26.2784H14.5511C14.629 26.2451 14.712 26.2095 14.7951 26.1927C14.7889 26.1679 14.7815 26.1418 14.7739 26.1148C14.7447 26.0124 14.7124 25.8987 14.7358 25.8042C14.752 25.6565 14.9913 25.32 15.2041 25.0463C15.249 25.0745 15.3027 25.1091 15.3628 25.1479C15.6076 25.3054 15.9584 25.5312 16.2534 25.6799C16.2064 25.7 16.1602 25.7177 16.1163 25.7344H16.1163C16.0082 25.7757 15.915 25.8112 15.8625 25.8642C15.8625 25.8642 16.1961 26.1528 16.2008 26.8376C15.9705 26.74 15.6956 26.7242 15.388 26.791C15.3404 26.7667 15.1975 26.7047 15.0204 26.8043C14.9805 26.6983 14.944 26.6012 14.9136 26.5218C14.884 26.4622 14.8248 26.3426 14.7951 26.2526C14.7618 26.266 14.73 26.2795 14.699 26.2925C14.5921 26.3378 14.495 26.3788 14.3801 26.402C14.3801 26.4921 14.3801 26.5516 14.4096 26.5516C14.4645 27.1036 14.5696 28.5976 14.5854 28.824H14.3801L14.5579 31.2759L14.4096 31.4254L14.6469 32.113L14.884 31.3953L14.7062 31.2759L14.5891 28.8541L15.2258 28.9492C15.1879 29.0011 15.1487 29.0383 15.1175 29.0679C15.1081 29.0769 15.0993 29.0851 15.0916 29.0929C15.0803 29.1044 15.069 29.1114 15.0593 29.1175C15.0436 29.1273 15.0322 29.1344 15.0322 29.153C15.0026 29.2425 15.0026 29.3323 15.0322 29.3918C15.0916 29.4817 15.1509 29.5115 15.2399 29.5115C15.388 29.4818 15.5363 29.4219 15.6253 29.362C15.7012 29.3238 15.765 29.2733 15.8244 29.2262L15.8245 29.2262L15.8245 29.2261L15.8247 29.226C15.8579 29.1996 15.8898 29.1744 15.9217 29.153C16.0404 29.063 16.1293 29.0033 16.2479 28.9735C16.3961 28.9735 16.6926 28.8837 16.7223 28.7645C16.7249 28.7576 16.7268 28.751 16.7287 28.7442C17.8184 28.808 18.9458 28.2259 18.9458 28.2259C19.4499 29.3024 20.1912 29.7511 20.1912 29.7511C21.4418 30.3115 21.3637 30.9247 21.2758 31.6152C21.27 31.6613 21.264 31.7078 21.2585 31.7546C21.1992 32.3222 20.4876 32.8901 20.4876 32.8901L21.1102 33.2194L21.1992 33.0397L21.5253 32.9499C21.5827 31.5563 22.0041 31.0646 22.1912 30.8462L22.2072 30.8275C22.3852 30.6181 22.2369 30.5883 22.2369 30.5883C22.2369 30.5883 21.3178 29.6611 21.8811 28.4953C22.5927 26.7314 22.4742 25.4454 21.5253 24.8178C20.6081 24.2104 19.4415 24.6093 19.1239 24.718L19.0942 24.7281C19.0645 24.7281 19.0052 24.7579 19.0052 24.7579C19.0052 24.7579 18.8865 24.7875 18.8273 24.8178L17.7599 25.714L17.6117 25.4153L16.6926 25.8642V25.5645L16.5444 25.5052L16.5408 25.5083L16.5324 25.5154C16.5257 25.5209 16.519 25.5262 16.5123 25.5316L16.51 25.5334C16.1595 25.4215 15.5717 25.1019 15.2865 24.9414C15.3843 24.8187 15.4676 24.7191 15.5088 24.6705L15.6845 24.8772L16.2776 24.0997L16.3664 24.1297L15.8921 24.9971L16.4851 25.3257L16.8112 24.2194L16.9002 24.1297V25.3556L17.4932 25.1161L17.3152 23.98H17.3449L17.9675 25.2358L18.5493 24.8096L18.5549 24.8137L18.5605 24.8178L18.7978 24.638C18.6493 24.5189 18.4715 24.3388 18.4122 24.2194C18.4122 24.2194 18.264 24.0698 18.0861 23.5018L17.5821 23.7104L17.6181 23.7541C17.7582 23.9236 17.9153 24.114 17.9971 24.2792C17.9971 24.2792 18.1784 24.5026 18.4078 24.6983L17.9675 25.1161L17.4041 23.8006L17.1374 23.95L17.2559 25.0863L16.9891 25.2358V24.0099L16.6629 24.1297L16.3664 25.1459L15.9811 24.9667L16.4555 24.0997L16.2183 23.98L15.6253 24.668L15.416 24.4304L16.1081 23.7329L16.6333 24.0997L17.5524 23.7104L17.4932 23.6213L16.6629 23.95L16.0553 23.5335C16.0812 23.5152 16.1053 23.4961 16.1293 23.4719L16.1562 23.4514L16.1688 23.4418L16.1852 23.4292L16.2049 23.4143L16.6333 23.7104L17.3449 23.4119L17.3464 23.4109L17.3433 23.4055L17.3152 23.2925L17.0268 23.4247L16.9511 22.6669C17.0482 22.5541 17.158 22.3936 17.2055 22.1781C17.2157 22.1796 17.2262 22.181 17.2375 22.1823L17.3449 23.2925L17.9675 22.9337C17.978 22.7966 17.9995 22.6331 18.0218 22.4646V22.4645L18.0218 22.4639L18.0219 22.4635L18.022 22.4631C18.0306 22.3978 18.0393 22.3317 18.0475 22.2661C18.77 22.6413 20.615 23.5307 20.6655 23.3521C20.6738 23.3182 20.6728 23.27 20.6716 23.2171C20.6686 23.0826 20.6649 22.9168 20.8138 22.8738C20.8699 22.8598 20.9328 22.8725 21.0022 22.8866C21.0794 22.9022 21.1649 22.9195 21.2585 22.9037C21.4661 22.8442 21.5844 22.5749 21.4957 22.5151C21.4066 22.5151 21.3772 22.4849 21.3772 22.4849C20.2253 22.4849 18.6542 21.78 17.9672 21.301C17.9659 21.293 17.9645 21.2851 17.9629 21.277C18.6314 21.6504 20.0942 22.3372 21.2585 22.3654C21.2585 22.276 21.2881 22.2162 21.3772 22.1265C21.5103 21.9919 21.71 21.9415 21.8766 21.8995L21.8767 21.8994C21.9325 21.8854 21.9847 21.8722 22.0293 21.8571C22.0635 21.8457 22.0966 21.8365 22.1294 21.8274C22.2675 21.7889 22.4011 21.7517 22.5927 21.558C22.7813 21.3256 22.7476 21.0487 22.5859 20.9696L22.5927 20.9606L20.9323 20.6015L20.9013 20.6327C20.9869 20.4869 21.1091 20.3633 21.1696 20.3023C21.4364 20.0334 21.3474 19.8834 21.3178 19.8541H21.2585C20.7841 19.8541 19.9539 20.6015 19.5685 21.2293C19.5685 21.2589 19.5389 21.2589 19.5389 21.2589H19.5092C19.5092 21.2589 19.0286 20.8892 17.5999 20.6212C17.5926 20.6129 17.5863 20.6059 17.5821 20.6015H17.5524C17.5815 20.6015 17.5243 20.5728 17.2688 20.5146C17.3328 20.4907 17.4041 20.4628 17.4607 20.4372C18.7657 20.6692 19.3937 20.8424 19.5389 20.9307C19.8354 20.4518 20.369 20.1233 20.8138 19.8834C20.5864 19.919 20.2661 19.9542 19.8895 19.9956C19.6277 20.0244 19.3387 20.0562 19.0348 20.0932L17.4485 20.3177C17.303 20.2361 17.218 20.0988 17.1693 19.9813C17.2052 19.992 17.2433 20 17.2856 20.003C17.2856 20.003 17.3152 19.9736 17.3449 19.9736V19.9138C17.2868 19.7577 17.3171 19.6142 17.3534 19.4423C17.3727 19.3505 17.3938 19.2508 17.4041 19.1366C17.4041 19.045 17.3944 18.9593 17.3777 18.8783L17.4041 18.8973C17.4844 18.962 17.4777 19.0355 17.4689 19.1321C17.4614 19.2137 17.4524 19.3119 17.4932 19.4353C17.6414 19.7942 18.0861 19.7641 18.3528 19.4649C18.3799 19.4378 18.41 19.3951 18.4428 19.3485C18.5541 19.1907 18.6966 18.9886 18.8569 19.1963L18.8572 19.1968C18.8867 19.2561 18.9165 19.3161 19.0052 19.3459C19.1535 19.4353 19.2721 19.3161 19.3016 19.2266C19.1132 19.3684 19.0744 19.2848 19.007 19.1393C18.9896 19.1016 18.9702 19.0599 18.9458 19.0168C18.8569 18.9272 18.7087 18.8076 18.5011 18.957C18.4174 18.9993 18.3631 19.0863 18.3071 19.176C18.284 19.2132 18.2605 19.2508 18.2345 19.2859C17.9971 19.5252 17.7599 19.3459 17.7896 18.9272C17.8193 18.4181 17.8193 18.299 17.6414 18.0002C17.3744 17.5812 16.9299 17.5216 16.337 17.6712C16.381 17.738 16.4251 17.7718 16.46 17.7985C16.5191 17.8436 16.5521 17.8688 16.5147 18.0002C16.502 18.0387 16.4731 18.0715 16.4441 18.0966C15.9382 18.1714 15.6845 18.5571 15.6845 19.2558C15.6619 19.3471 15.7085 19.4733 15.7582 19.6079C15.7735 19.6495 15.7892 19.6918 15.8031 19.7343V19.7641V19.7942C15.9217 19.9138 15.9513 20.003 15.9811 20.0932C15.9934 20.118 16.0044 20.1416 16.015 20.1641C16.0552 20.25 16.0885 20.3209 16.1589 20.3918H16.1886L16.191 20.3919C16.0722 20.4141 15.9083 20.4664 15.7142 20.572C15.6253 20.6315 15.5066 20.7508 15.4474 20.8708C15.4326 20.8708 15.4103 20.8782 15.3881 20.8856C15.3658 20.893 15.3436 20.9004 15.3287 20.9004C15.3078 20.9065 15.2876 20.9125 15.2679 20.9184C15.0923 20.9709 14.967 21.0082 14.9136 20.9004C14.8544 20.761 14.7688 20.6215 14.6832 20.4819H14.6831C14.6403 20.4121 14.5975 20.3423 14.5579 20.2725C14.4393 20.0932 14.2911 19.8541 14.2911 19.7942C14.2911 19.7343 14.2911 19.5546 14.2318 19.3161V19.2859C14.2318 19.2859 14.1133 19.1068 13.9649 19.077C13.9427 19.077 13.9039 19.077 13.8735 19.0894L13.8463 17.9104L14.1133 18.2397L14.1725 18.0903L13.8167 17.6712L13.787 17.1333L14.3207 17.1035L14.2911 16.9835L13.787 17.0136V16.8343L14.0538 16.8045L14.0243 16.6846L13.787 16.7146L13.7573 16.3559H13.6388L13.6685 16.7146L13.4016 16.7442V16.864L13.6685 16.8343V17.0136L13.2535 17.0434H13.2237V17.1631L13.6685 17.1035L13.6981 17.4916L13.4905 17.2531L13.4016 17.4022L13.6981 17.731L13.7573 19.1963H13.8759L13.8748 19.1498L13.9056 19.1963H13.9352C13.9946 19.1963 14.0835 19.2859 14.1133 19.3459C14.1596 19.509 14.1516 19.6359 14.1458 19.7266C14.1442 19.752 14.1428 19.7745 14.1428 19.7942C14.1428 19.8834 14.2318 20.0334 14.4096 20.3323C14.5579 20.5116 14.6764 20.7508 14.7654 20.9307C14.8248 21.0501 14.9136 21.0802 15.0026 21.0802C15.0903 21.0802 15.2069 21.0509 15.3239 21.0215H15.3239L15.3287 21.0203C15.3547 21.0203 15.3805 21.0146 15.4039 21.0081C15.3451 21.3763 15.4197 21.579 15.5198 21.6906C15.4081 21.7079 15.2583 21.7081 15.1213 21.7081C14.973 21.7081 14.8545 21.7081 14.7654 21.7376C14.5172 21.7935 14.1409 21.0989 13.9224 20.2796L13.9056 19.9736H13.7871V19.9438C13.7722 19.9438 13.7351 19.9286 13.6981 19.9135H13.6981C13.661 19.8985 13.624 19.8834 13.6092 19.8834L13.6388 19.854H13.7278C13.8168 19.854 13.9057 19.8243 13.9057 19.7641C13.9057 19.7343 13.8168 19.7042 13.7278 19.7042H13.6685H13.6388V19.6744H13.7278C13.7871 19.6744 13.9057 19.6744 13.9057 19.6148C13.9057 19.596 13.8943 19.5889 13.8785 19.579C13.8689 19.573 13.8577 19.5659 13.8464 19.5546H13.6092L13.6388 19.5251H13.8464C13.876 19.5251 13.9057 19.495 13.9057 19.4649C13.9057 19.4468 13.8945 19.4398 13.8791 19.4301C13.8694 19.4239 13.8579 19.4167 13.8464 19.405H13.6388V19.3753C13.7278 19.405 13.8168 19.405 13.876 19.405C13.9353 19.405 13.9649 19.3753 13.9649 19.3458C13.9649 19.2859 13.876 19.2559 13.7871 19.2559H13.7278L13.6685 19.2265C13.6685 19.2265 13.6388 19.2559 13.6092 19.2265C13.5796 19.2713 13.5573 19.3235 13.5351 19.3758V19.3758C13.5128 19.428 13.4906 19.4803 13.4609 19.5251C13.4017 19.854 13.6092 20.0029 13.7871 20.0635V19.9772L13.8293 21.4021C13.7178 21.2855 13.589 21.1908 13.4016 21.1698C13.6633 21.0498 13.7149 21.0261 13.7252 20.9906C13.7277 20.9819 13.7277 20.9724 13.7277 20.9606V20.9004H13.6685C13.4016 20.8708 13.2829 20.811 13.1644 20.7209L13.14 20.706C13.0024 20.6222 12.8812 20.5483 12.601 20.6616C12.957 20.2427 12.8086 19.9736 12.8086 19.9736L12.7197 19.8541L12.69 20.003C12.69 20.0262 12.6208 20.0666 12.5221 20.1242L12.522 20.1243C12.4915 20.1421 12.4582 20.1615 12.4232 20.1826C12.3649 20.2124 11.933 20.2127 11.8636 20.1839C11.8662 20.11 11.857 20.0384 11.8302 19.9736C11.8269 19.9669 11.8164 19.9619 11.8008 19.9587L11.8006 19.95L11.8006 19.9438V19.8834H11.7413C11.5513 19.8293 11.3118 20.0751 11.1816 20.2087L11.1816 20.2088L11.1653 20.2255L11.1483 20.2427L10.8222 19.8834L10.4961 20.2427L10.0513 20.2725L10.2589 20.6015C10.1106 20.572 9.93263 20.572 9.81426 20.6315C9.75474 20.6616 9.72516 20.7209 9.72516 20.7811V20.811L9.75474 20.8405C9.78432 20.8604 9.81719 20.8804 9.85007 20.9003L9.85013 20.9004C9.91607 20.9404 9.98207 20.9805 10.0217 21.0203C9.87342 21.0501 9.7845 21.1098 9.72516 21.1698C9.71202 21.1786 9.69949 21.1875 9.68727 21.1961C9.61681 21.2457 9.55497 21.2893 9.42877 21.2893H9.39907V21.3191C9.39907 21.3489 9.39907 21.3788 9.42877 21.4386C9.51757 21.5883 9.7845 21.7675 10.1107 21.7376ZM8.15369 29.6011C8.15369 29.6313 8.18345 29.6313 8.21303 29.6313C8.42001 29.5719 8.53857 29.3927 8.65682 29.214L8.65773 29.2126C8.71701 29.1229 8.77635 29.0333 8.83569 28.9437C8.86533 28.9139 8.86533 28.8837 8.83569 28.8539L8.80605 28.824C8.87645 28.7057 8.81668 28.6061 8.7593 28.5104C8.74427 28.4853 8.72936 28.4604 8.71701 28.4356L8.68743 28.4055C8.65773 28.3755 8.56882 28.2558 8.80605 27.9869C8.80605 27.9869 8.83569 27.9568 8.83569 27.9272C8.77635 27.5381 8.98401 27.1494 9.16184 26.8211C9.18799 26.7677 9.21433 26.7146 9.24055 26.6617L9.24061 26.6616L9.24067 26.6616L9.25069 26.6413C9.25583 26.6284 9.26072 26.6158 9.26548 26.6035C9.31621 26.4723 9.35495 26.3721 9.51757 26.3721C9.87336 26.9699 10.2293 27.419 10.7924 27.7775C10.7924 27.7775 10.8814 27.8675 11.0001 27.8675C11.1324 27.8866 11.3732 27.8447 11.5304 27.8119C11.5649 27.8807 11.605 27.9494 11.6522 28.0171C11.7621 28.1718 11.465 28.2118 11.2072 28.2466C11.1171 28.2588 11.0318 28.2703 10.9704 28.2858C10.7333 28.4055 10.4367 28.4055 10.1402 28.4055C9.75468 28.3456 9.69552 28.4953 9.66576 28.7045C9.45823 29.3024 9.16184 29.7511 8.86533 30.1697C8.71744 30.3186 8.59925 30.4676 8.48094 30.6167L8.47984 30.6181C8.45026 30.6477 8.4205 30.7077 8.4205 30.7373C8.4205 30.7677 8.45026 30.8276 8.47984 30.8571C8.51608 30.9303 8.48595 30.9699 8.45026 31.0169C8.42753 31.0468 8.40253 31.0797 8.39104 31.1263C8.27231 31.3953 8.24279 31.6347 8.21303 31.9034V31.9636C8.206 32.0062 8.19567 32.0589 8.18473 32.1144C8.14959 32.2931 8.10853 32.5018 8.15369 32.5018C8.21303 32.5018 8.89491 32.3821 8.92467 32.2923C8.95424 32.2024 8.86533 31.9934 8.86533 31.9934V31.5447C8.87437 31.5083 8.87786 31.4747 8.88091 31.4455C8.88788 31.3789 8.89246 31.3354 8.95424 31.3354C9.16184 31.2759 9.28046 31.0363 9.25069 30.7373C9.25069 30.5287 9.33961 30.3489 9.54721 30.1394C9.69552 29.9005 9.8142 29.691 9.93263 29.4521C9.98727 29.4704 10.0531 29.4097 10.1369 29.3325C10.1897 29.284 10.2495 29.2288 10.3182 29.1826C10.407 29.1229 10.5554 29.1229 10.6739 29.153C11.4744 29.3323 12.4528 29.5115 13.3422 29.3918C13.4532 29.424 13.4625 29.3364 13.4743 29.225C13.4845 29.1281 13.4966 29.0132 13.5794 28.9437C13.6387 28.8837 14.1723 28.824 14.3206 28.8539L14.1132 26.4623C13.8759 26.4921 13.6091 26.5217 13.3422 26.5217C12.4777 26.5217 11.8755 26.2571 11.6344 26.1512L11.6342 26.1511L11.6338 26.151C11.6188 26.1443 11.6052 26.1384 11.593 26.1331C11.4744 26.3721 11.4151 26.5515 11.3855 26.7009C11.3762 26.7383 11.3679 26.7846 11.3615 26.8366L11.3558 26.8211C11.0593 26.5515 10.4663 26.2526 10.1105 26.0734C9.87336 25.9236 9.66576 25.7444 9.51757 25.5348C9.51757 25.5053 9.48787 25.5053 9.45823 25.5053C9.28046 25.5053 9.13214 25.5645 8.98401 25.6548L8.95424 25.6842C8.80605 26.0734 8.71701 26.3721 8.65773 26.6712C8.53918 26.9699 8.4205 27.2091 8.30201 27.3885C8.12411 27.5685 7.94628 27.8675 8.12411 28.0464C8.15369 28.1361 8.15369 28.2259 8.15369 28.3162C8.15369 28.3471 8.15014 28.3781 8.14672 28.4079C8.14031 28.4641 8.13438 28.516 8.15369 28.5551C8.09447 28.6446 8.03513 28.7943 8.03513 28.8539V29.0333C8.00782 29.2813 8.05603 29.3766 8.11018 29.4838L8.12411 29.5115C8.12411 29.5267 8.13163 29.5418 8.13908 29.5569C8.14642 29.5717 8.15369 29.5865 8.15369 29.6011ZM22.0888 24.7579C21.911 24.8772 21.822 24.9372 21.822 24.9372L22.0591 25.1459C22.6225 24.7281 23.8084 24.638 23.6304 25.6842C23.2747 26.9403 23.0375 28.2857 24.0753 28.3456C23.8677 28.0766 23.8973 27.7775 23.9862 27.4785C24.1303 27.1462 24.3174 26.814 24.448 26.5821L24.4481 26.582C24.5055 26.4799 24.5521 26.3973 24.5792 26.3426C24.9944 25.2959 25.024 24.1297 23.7788 23.8604C23.0001 23.718 22.5031 24.2948 22.2429 24.5966V24.5967L22.2429 24.5968C22.1762 24.6742 22.125 24.7335 22.0888 24.7579ZM20.0429 29.9603C20.0133 30.4983 20.1318 30.8874 20.2802 31.2759C20.0726 31.4552 19.8947 31.7546 19.7465 32.4119C19.8354 32.6211 19.7465 32.681 19.5685 32.711C19.4203 32.7409 18.9163 32.6211 18.9757 32.6211C19.0837 32.3379 19.1602 32.2451 19.2511 32.1346C19.2849 32.0935 19.3208 32.05 19.361 31.9934C19.5685 31.5745 19.5981 31.1263 19.361 30.7373C19.3313 30.7076 19.3091 30.6704 19.2869 30.6331C19.2647 30.5959 19.2424 30.5585 19.2127 30.5287C19.0707 30.2831 18.8592 30.1495 18.6734 30.0321C18.5876 29.978 18.5073 29.9274 18.4419 29.8707C18.2345 29.6911 18.0861 29.4521 17.9971 29.1827L17.9082 28.8837C17.9082 28.8837 18.1751 28.8239 18.3827 28.7343C18.6198 28.6148 18.8569 28.4649 18.8569 28.4649C19.0889 29.1674 19.5912 29.5666 19.8617 29.7817C19.9714 29.8689 20.0429 29.9257 20.0429 29.9603ZM18.5901 13.0365C18.5901 12.8275 18.7681 12.6479 18.9757 12.6479C19.183 12.6479 19.361 12.8275 19.361 13.0365C19.3907 13.2463 19.2127 13.4259 18.9757 13.4259C18.7681 13.4259 18.5901 13.2463 18.5901 13.0365ZM20.1318 13.0365C20.1318 13.126 20.1898 13.2141 20.2485 13.3031L20.2504 13.306C20.3097 13.3956 20.3986 13.4259 20.5172 13.4259C20.7248 13.4259 20.9027 13.2463 20.9027 13.0365C20.9027 12.8275 20.7248 12.6479 20.5172 12.6479C20.3097 12.6479 20.1318 12.8275 20.1318 13.0365ZM12.4826 13.4259C12.2751 13.4259 12.0972 13.2463 12.0972 13.0365C12.0972 12.8275 12.2751 12.6479 12.4826 12.6479C12.6901 12.6479 12.868 12.8275 12.868 13.0365C12.868 13.2463 12.6901 13.4259 12.4826 13.4259ZM13.6092 13.0365C13.6092 13.127 13.6685 13.2463 13.7278 13.306C13.7871 13.3956 13.876 13.4259 13.9947 13.4259C14.2022 13.4259 14.3802 13.2463 14.3802 13.0365C14.3802 12.8275 14.2022 12.6479 13.9947 12.6479C13.7871 12.6479 13.6092 12.8275 13.6092 13.0365ZM14.6794 33.1306C14.6262 33.1377 14.5706 33.1451 14.5284 33.1592C14.4393 33.1891 14.2022 33.4584 14.2022 33.4584C14.4682 33.5181 14.6164 33.4588 14.7641 33.3996L14.7654 33.3991C14.9434 33.3387 15.1806 32.9499 15.1806 32.9499C15.0845 32.9499 14.9497 33.0282 14.8703 33.0742C14.8517 33.085 14.8361 33.094 14.8248 33.0999C14.7937 33.1154 14.738 33.1228 14.6794 33.1306ZM8.68756 36.4185C8.45032 36.4185 8.27243 36.628 8.27243 36.628C8.24285 36.4185 8.59858 36.2096 8.59858 36.2096C8.39117 36.2096 8.00562 36.3587 8.00562 36.3587C8.12417 36.1196 8.59858 35.97 8.59858 35.97L8.18357 35.9105C8.18357 35.9105 8.59858 35.6114 9.13226 35.6114C9.64303 35.5901 9.89407 35.7225 10.039 35.7988C10.0959 35.8289 10.1365 35.8503 10.17 35.8503C10.2067 35.8503 10.2659 35.8417 10.3418 35.8308C10.5114 35.8064 10.7635 35.7702 11.0298 35.7907C11.4152 35.8205 11.8303 35.8802 11.8303 35.8802C11.9193 35.6713 11.9193 35.462 11.9193 35.462C11.9035 35.4612 11.8882 35.4595 11.8728 35.4574C11.7911 35.4987 11.6114 35.5737 11.4153 35.5517C11.1781 35.5215 10.4961 34.8637 10.3477 34.7144C10.1996 34.5653 10.081 34.4751 10.0217 34.5045C10.001 34.5152 9.98745 34.5331 9.97236 34.5532C9.94424 34.5904 9.91057 34.6351 9.81432 34.6548C9.75193 34.6704 9.66503 34.6282 9.56652 34.5802C9.47754 34.537 9.37903 34.4891 9.28058 34.4751C9.07298 34.4456 8.92473 34.5045 8.92473 34.5045L9.04328 34.2954C8.80623 34.2954 8.50972 34.5045 8.50972 34.5045C8.59858 34.3261 8.77647 34.1758 8.77647 34.1758H8.59858C8.71713 34.0561 8.95437 33.9066 9.42877 33.8472C9.90318 33.7877 10.2293 33.8766 10.4072 33.9967C10.5013 34.0441 10.8194 34.2339 11.0981 34.4021C11.0464 34.1208 11.0403 33.8131 11.0891 33.5183C11.2077 32.8308 11.9193 32.2024 12.6012 32.3521C12.8767 32.4118 13.2568 32.6031 13.4812 32.725C14.3363 32.4493 13.9947 31.8743 13.9947 31.8743C14.3801 32.0533 14.4097 32.2627 14.3505 32.4718C14.3943 32.4581 14.4428 32.4412 14.4946 32.4219C14.683 32.3239 14.9577 32.1159 15.1213 31.6942L15.0027 31.6646L15.3585 31.3654L15.3881 31.8139L15.24 31.7248C15.24 31.7248 15.1823 31.968 14.9242 32.2454C15.0924 32.1721 15.266 32.0931 15.4234 32.0216C15.6945 31.8983 15.9174 31.7969 15.9811 31.7841C16.1034 31.7597 16.2056 31.8978 16.2542 31.9636C16.2645 31.9775 16.2724 31.9882 16.2776 31.9934C16.2776 31.9934 16.4851 31.9335 16.5742 31.9934C16.6927 32.0533 16.7815 32.2326 16.7815 32.2326C16.248 32.5617 15.8329 32.9198 15.7439 33.0397C15.6846 33.0999 15.4771 33.3387 15.4474 33.3991C15.4178 33.4885 15.5068 33.6379 15.5068 33.6379C15.3287 33.967 15.0027 33.8766 15.0027 33.8766L15.1806 34.0269C14.8841 34.1758 14.4986 34.1758 14.4986 34.1758L14.4393 34.2058C14.2759 34.3527 14.0345 34.2974 13.8107 34.2462L13.8104 34.2461C13.7744 34.2378 13.7389 34.2297 13.7043 34.2226C14.0675 34.4466 14.6742 34.4312 15.062 34.4153C15.7551 34.3132 16.1036 34.0269 16.4707 33.7254C16.8571 33.4078 17.2641 33.0735 18.1158 32.9198C19.0942 32.771 19.8947 32.9803 20.9028 33.6379C21.911 34.2954 22.9781 34.5653 23.3339 34.0561C23.6445 33.6129 23.5032 33.215 23.2652 32.5444C23.2305 32.4466 23.1937 32.343 23.156 32.2326L23.1394 32.1825C23.0242 31.8356 22.8919 31.4372 22.9484 31.0661C23.0078 30.5583 23.3042 30.0798 23.8677 29.9603C24.1641 29.9005 24.4902 29.9303 24.6979 30.0199C25.012 30.1786 25.1644 30.5469 25.2162 30.6719L25.2233 30.6892L25.2277 30.6995C25.2291 30.7027 25.2304 30.7055 25.2315 30.7078C25.2611 30.7972 25.2906 31.1263 25.1723 31.3354C25.0832 31.5151 24.8164 31.9034 24.8164 31.9034C24.7416 31.6625 24.6142 31.5202 24.51 31.4038C24.4074 31.2892 24.3272 31.1997 24.342 31.0661C24.4013 30.7078 24.757 30.7677 24.757 30.7677C24.7275 30.6477 24.5792 30.4093 24.253 30.3788C23.927 30.3489 23.5415 30.5883 23.5118 31.1263C23.4877 31.5637 23.7963 32.1391 24.0243 32.5641C24.0769 32.6622 24.1252 32.7522 24.1641 32.8308C25.0239 34.4456 23.8083 35.462 22.4445 35.4318C21.9405 35.4019 21.3772 35.2822 20.9323 35.0428C20.7249 34.9534 20.8436 35.4318 20.8436 35.4318C20.8436 35.5517 21.1993 35.8802 21.1993 35.8802C20.9028 36.568 20.3987 36.7772 20.1615 36.7772C20.0408 36.762 19.9201 36.7159 19.8112 36.6743H19.8111C19.706 36.6341 19.6118 36.5981 19.5389 36.5981C19.4203 36.5981 19.2424 36.628 19.2424 36.628C19.2722 36.5382 19.45 36.4485 19.45 36.4485C19.3017 36.4782 18.9757 36.5382 18.9757 36.5382C19.0942 36.4185 19.45 36.3286 19.45 36.3286L19.0942 36.269C19.3621 36.0438 19.63 36.1411 19.8347 36.2155C19.9018 36.2398 19.9621 36.2617 20.0134 36.269C20.1912 36.2999 20.458 36.1792 20.458 35.9407C20.458 35.6413 20.2208 35.6413 19.8651 35.6713C19.5981 35.7016 19.2127 35.6413 18.8273 35.5215C18.348 35.3676 18.1729 35.1814 18.0902 35.0934C18.0604 35.0617 18.0426 35.0428 18.0269 35.0428C18.024 35.0458 18.02 35.0542 18.0136 35.0674C17.9549 35.1896 17.6983 35.7239 16.3073 36.2096C15.2102 36.5981 13.2535 36.269 13.2535 36.269V36.1309C13.2191 36.4194 13.1177 36.6068 13.0756 36.628C13.047 36.6423 12.9703 36.629 12.8687 36.6113H12.8687C12.7593 36.5922 12.6209 36.568 12.4826 36.568C12.3704 36.568 12.2837 36.5894 12.1759 36.6161C11.9988 36.6599 11.7647 36.7177 11.2671 36.7177C10.6173 36.6944 10.2582 36.5243 10.1043 36.4515C10.0615 36.4312 10.0346 36.4185 10.0217 36.4185C10.0153 36.4185 10.0047 36.4283 9.98849 36.4434C9.9297 36.498 9.79648 36.6215 9.51769 36.5981C9.44411 36.5981 9.33503 36.5623 9.21348 36.5224C9.04127 36.4658 8.844 36.401 8.68756 36.4185ZM17.434 36.6281C17.3747 36.4782 17.3154 36.1197 17.3747 35.9105C17.3747 35.9105 17.3154 36.0005 16.9893 36.1792C16.6928 36.2998 16.4556 36.3886 16.4556 36.3886C16.6335 36.568 16.7816 36.9568 16.7816 36.9568C16.6288 36.9054 16.4542 36.8981 16.2952 36.8972C16.3045 36.8833 16.2923 36.8724 16.248 36.8669C15.9219 36.8372 15.5365 37.0169 15.5365 37.0467L15.7202 37.0672L15.7159 37.0683L15.7025 37.0719L15.6848 37.0765C15.5365 37.226 15.3586 37.4356 15.3586 37.4356C15.6254 37.2857 15.9516 37.1659 15.9516 37.1659C15.7144 37.3454 15.6551 37.675 15.6551 37.675C16.0109 37.3454 16.3667 37.3157 16.663 37.3454C16.9596 37.3754 17.2561 37.3754 17.523 37.2857C17.7898 37.196 17.7898 37.0765 17.7305 36.9866C17.7189 36.9516 17.6804 36.9212 17.634 36.8847C17.5616 36.8276 17.4703 36.7556 17.434 36.6281ZM16.3073 20.0932C16.337 20.0635 16.3665 20.0932 16.3665 20.1526C16.337 20.1826 16.2777 20.2127 16.248 20.1826C16.248 20.1826 16.2183 20.1526 16.2183 20.1233C16.248 20.1233 16.2777 20.1233 16.3073 20.0932ZM16.3072 19.5546C16.3072 19.5845 16.337 19.6148 16.3665 19.6148C16.3961 19.5845 16.4851 19.5546 16.5742 19.5546C16.5742 19.5485 16.5755 19.5424 16.5766 19.5365C16.5813 19.514 16.5852 19.4951 16.5147 19.4951C16.4555 19.5252 16.4258 19.5252 16.3665 19.5252C16.3957 19.4657 16.4828 19.4361 16.5706 19.4063L16.5742 19.405C16.6036 19.3457 16.5742 19.3161 16.5444 19.3161C16.4555 19.3457 16.3665 19.405 16.2776 19.4649C16.2479 19.4951 16.2479 19.5546 16.3072 19.5546ZM16.2479 20.003H16.3962C16.4257 20.003 16.4257 20.0334 16.4257 20.0334C16.3794 20.0491 16.3329 20.0648 16.2864 20.0804C16.2439 20.0946 16.2015 20.1089 16.159 20.1233C16.1294 20.0636 16.1294 20.0334 16.1887 20.0334C16.2036 20.0334 16.2109 20.0258 16.2183 20.0182C16.2257 20.0106 16.2331 20.003 16.2479 20.003ZM16.5149 11.0036C16.5149 11.0631 16.4853 11.0631 16.4853 11.0631C16.4728 11.0631 16.4655 11.0631 16.4591 11.0608C16.4504 11.0578 16.4431 11.0505 16.426 11.0336C14.9436 9.06002 13.4611 6.63835 14.8546 4.33552C14.8546 4.30589 14.8843 4.30589 14.9139 4.30589C15.4137 4.55796 15.6064 5.37073 15.7796 6.10127C15.8529 6.41068 15.9227 6.70536 16.0109 6.93645C16.0109 6.90361 16.0095 6.85265 16.0076 6.78728V6.78716C15.9927 6.25828 15.9512 4.78478 16.426 4.30589C16.426 4.30589 16.4558 4.27577 16.4853 4.27577H16.5149C16.9597 4.54522 17.0783 6.54847 17.0783 6.87722C17.1239 6.71959 17.1681 6.53601 17.2156 6.3388C17.3841 5.63826 17.594 4.76584 18.0567 4.27577C18.0863 4.24597 18.116 4.27577 18.116 4.30589C19.5095 6.60819 18.0863 8.91024 16.5149 11.0036ZM12.008 11.6613H12.0377H15.9513C15.9809 11.6613 16.0106 11.6312 16.0106 11.6312C16.0255 11.6163 16.0329 11.6088 16.0329 11.6014C16.0328 11.594 16.0254 11.5866 16.0106 11.5719C16.0106 11.5719 14.0241 9.38925 13.5793 7.56523C13.0754 5.47198 13.8165 4.54523 13.8165 4.54523V4.4854C13.8018 4.4854 13.7943 4.47807 13.7869 4.47073C13.7795 4.4634 13.7721 4.45607 13.7573 4.45607H13.698C12.7195 4.45607 10.3181 5.47198 10.3181 8.01371C10.3181 10.3161 11.9783 11.6613 12.008 11.6613ZM16.9596 11.572C16.9893 11.5416 18.946 9.38925 19.3907 7.56523C19.8948 5.47198 19.1537 4.5453 19.1537 4.5453C19.1388 4.53022 19.1314 4.52269 19.1314 4.51519C19.1314 4.50772 19.1389 4.50027 19.1537 4.48539C19.1537 4.45614 19.1832 4.45614 19.2128 4.45614H19.2722C20.2506 4.45614 22.6522 5.47198 22.6522 8.01377C22.6522 10.3161 20.9919 11.6613 20.9622 11.6613H17.0189C16.9893 11.6613 16.9596 11.6613 16.9596 11.6312V11.572ZM16.0699 3.58853C16.0699 3.82724 16.2478 4.00713 16.485 4.00713C16.7222 4.00713 16.9 3.79752 16.9 3.58853C16.9 3.34928 16.7222 3.16978 16.485 3.16978C16.2478 3.16978 16.0699 3.34928 16.0699 3.58853ZM18.027 23.3521L17.9973 23.2629L17.9676 23.173C17.9676 23.1432 17.9676 23.0832 17.9379 23.0536L17.3466 23.4109C17.373 23.4559 17.4122 23.5096 17.4934 23.5913L18.027 23.3521ZM3.32127 26.5217C2.69856 25.5949 2.04634 25.9536 2.04634 25.9536C2.04634 25.9536 1.51255 25.2358 0.860414 24.2194C-0.325598 22.3056 0.0597982 21.3489 0.0597982 21.3489L1.48296 18.1195C1.38904 19.1052 2.03372 19.9467 2.94126 21.1315C3.46539 21.8157 4.07719 22.6143 4.68502 23.6213C5.66346 25.2358 5.93028 26.1331 5.60413 27.6575C5.39656 28.7045 4.83327 28.6148 4.68502 28.5551C4.35515 28.4094 3.98228 27.7144 3.67608 27.1436C3.54194 26.8936 3.4206 26.6674 3.32127 26.5217ZM0.919496 16.3559C1.60137 16.924 1.86835 17.2231 1.86835 17.2231C1.86835 17.2231 2.52049 16.2958 3.20245 17.4916C3.31342 17.6784 3.38977 17.9406 3.47202 18.2231C3.65341 18.8462 3.86344 19.5676 4.53669 19.7942C5.01108 19.9736 5.33707 19.5546 5.36673 19.3458C5.45581 18.8973 5.51498 17.7608 4.83318 16.7145C4.50575 16.2084 4.13013 15.8964 3.93111 15.7311C3.85976 15.6719 3.8111 15.6314 3.79549 15.6076C3.79549 15.6076 2.31299 14.5315 1.83861 14.3223C1.39388 14.1132 0.504359 14.0535 0.267282 14.5315C0.118963 14.8607 0.118963 15.5781 0.919496 16.3559ZM3.17313 11.4524L3.20512 11.4437C3.18748 11.4457 3.17644 11.449 3.17313 11.4524ZM4.922 20.1827C4.80342 20.2427 4.68484 20.2128 4.38836 20.1233C3.72699 19.9081 3.4648 19.151 3.20404 18.3979C3.10242 18.1045 3.00101 17.8116 2.87628 17.5517C2.60954 17.0137 2.22407 17.2531 2.13508 17.6713C1.809 18.8973 4.12154 21.4688 4.12154 21.4688L5.01107 20.2726L5.0106 20.2716C4.98101 20.2122 4.9515 20.1529 4.922 20.1827ZM3.43988 27.6575C3.94393 28.6747 4.56648 29.153 4.98154 29.0033C5.01128 28.9735 5.04079 29.0332 5.01128 29.063C4.83338 29.3323 4.41831 29.8107 4.41831 29.7206C4.41831 29.7137 4.37992 29.6875 4.31315 29.6419C4.0925 29.4912 3.56203 29.1288 3.08414 28.5551C2.3132 27.6281 2.10563 26.6117 2.16495 26.4922C2.4317 26.0734 2.81725 26.3425 3.43988 27.6575ZM0.978762 31.186C2.01645 32.0828 2.0462 32.6809 1.86829 33.309C1.67041 34.0274 1.20857 34.4395 0.940744 34.6785C0.80718 34.7977 0.721869 34.8738 0.741608 34.9234C0.860188 35.1629 1.42349 35.5817 2.07578 34.8932C2.27966 34.6681 2.4454 34.4782 2.58859 34.3142C2.8827 33.9774 3.08174 33.7494 3.32104 33.5483C3.914 33.0397 4.56622 33.0999 4.74404 33.5483C4.74404 33.5483 4.80338 32.6809 4.68488 32.0235C4.54082 31.031 4.12501 30.6265 3.54728 30.0645L3.54722 30.0644L3.54709 30.0643C3.41104 29.932 3.26603 29.7909 3.11347 29.6313C1.44357 27.9185 1.591 27.051 1.65511 26.6737L1.66057 26.6413L0.296884 29.093C0.296884 29.093 -0.0885898 30.3191 0.978762 31.186ZM2.9612 34.4546C3.11443 34.267 3.26228 34.0859 3.41013 33.9367C3.85486 33.4885 4.41824 33.4885 4.50707 34.0865C4.50707 34.0865 4.62573 34.4456 4.0031 35.4019C3.32122 36.4184 1.80914 37.256 1.80914 37.256L0.830702 35.3721C0.830702 35.3721 1.18651 35.7907 1.80914 35.5215C2.25813 35.3157 2.6228 34.8691 2.9612 34.4546ZM3.76575 40.2159C4.98135 39.2595 5.66323 37.9435 5.66323 37.9435L4.86277 34.3856C4.86277 34.3856 4.74412 34.8638 4.5367 35.3422C4.12157 36.269 2.96522 37.1659 1.69038 37.9435C0.385788 38.7509 0.296953 39.9171 0.296953 39.9171L0.385788 43.9535C0.741675 42.7272 2.55016 41.1727 3.76575 40.2159ZM4.92218 14.8607C4.92218 14.8607 5.01125 14.2928 4.21071 13.8143C4.16631 13.7878 4.12155 13.7611 4.07661 13.7344C3.31115 13.2793 2.49278 12.7927 2.52065 12.1999C2.52065 11.7524 2.6845 11.8006 2.84192 11.8469C2.87396 11.8563 2.90572 11.8656 2.93579 11.8708C3.26193 11.9304 4.35895 12.4086 5.93036 14.2028L4.92218 14.8607ZM4.50715 14.9805C4.83338 14.9805 4.5369 14.4123 3.9736 14.0834C3.61778 13.8739 2.69867 13.2761 2.69867 13.2761C2.69867 13.2761 1.63132 13.7542 1.72031 13.7245C2.38675 13.6909 2.94083 14.0917 3.43516 14.4493C3.82049 14.728 4.16951 14.9805 4.50715 14.9805ZM3.08418 42.6674C3.08418 42.6674 3.23234 42.8768 3.5289 43.0266L3.59793 43.0592C4.09263 43.293 4.71083 43.5851 4.62584 44.0127C4.59618 44.2222 4.38861 44.5212 3.82531 44.4317C3.53889 44.3776 3.39298 44.2688 3.19176 44.1187C3.05975 44.0203 2.90394 43.9041 2.66904 43.774C2.31323 43.5649 1.80926 43.5051 1.27554 43.6245L3.08418 42.6674ZM3.5287 41.3525C3.5287 41.3525 3.05431 41.8605 3.58787 42.249C3.81997 42.4182 4.10252 42.5703 4.36726 42.7128L4.36731 42.7129C4.71132 42.8981 5.02525 43.0672 5.15935 43.2363C5.48543 43.6544 5.27785 44.0433 4.83321 44.5212L6.55276 43.3255C6.55276 43.3255 5.63359 41.2924 3.5287 41.3525ZM7.50182 41.651C7.59073 42.0099 7.70935 42.2789 8.74708 42.8768C9.89083 43.5243 9.80082 43.9066 9.76146 44.0735L9.76024 44.0789L9.75767 44.0899L9.75498 44.1024C9.75498 44.3422 9.28076 44.7309 9.28076 44.7309C9.28076 44.7309 7.50182 44.4026 7.02741 43.0862C6.55301 41.7709 5.36701 41.1132 4.56655 40.9636C4.45562 40.9426 4.36253 40.9248 4.28462 40.91C4.02935 40.8613 3.93707 40.8438 3.91434 40.8438L6.22679 39.7975C6.22679 39.7975 6.52343 39.4383 8.33201 40.6047C8.33201 40.6047 7.32386 40.9034 7.50182 41.651ZM8.50991 41.1132C8.39129 41.1132 8.18376 41.2027 8.24303 41.5021C8.34093 41.9958 8.94471 42.3061 9.48609 42.5843C9.60013 42.6428 9.71135 42.7 9.81444 42.7572C10.4073 43.0862 10.4963 43.5346 10.3778 43.8935C10.2888 44.1327 10.2295 44.2222 10.2295 44.2222L11.4154 43.2363C11.4112 43.2363 11.3717 43.1946 11.3038 43.1228C10.9012 42.6973 9.49923 41.2155 8.50991 41.1132ZM27.3959 27.6876C27.0698 26.1628 27.3365 25.2659 28.315 23.6511C28.9279 22.6247 29.5448 21.8142 30.0719 21.1218C30.9725 19.9386 31.6106 19.1004 31.5171 18.1195L32.9402 21.3788C32.9402 21.3788 33.3256 22.3359 32.1396 24.2495C31.4874 25.2659 30.9538 25.9835 30.9538 25.9835C30.9538 25.9835 30.3015 25.6247 29.6789 26.5515C29.5797 26.6971 29.4612 26.9228 29.3303 27.1723C29.0308 27.7433 28.6657 28.4391 28.315 28.5847C28.1667 28.6446 27.6035 28.7045 27.3959 27.6876ZM29.1746 15.5781C29.1589 15.602 29.1077 15.6448 29.0332 15.7071C28.8269 15.8796 28.442 16.2015 28.1369 16.6846C27.455 17.7311 27.5144 18.867 27.6033 19.3161C27.633 19.5251 27.9592 19.9438 28.4334 19.7641C29.1243 19.5319 29.3421 18.7781 29.5253 18.1444V18.1443C29.6015 17.8805 29.6717 17.6374 29.7676 17.4616C30.4496 16.2958 31.1018 17.193 31.1018 17.193C31.1018 17.193 31.3686 16.8937 32.0209 16.2958C32.8216 15.5182 32.8511 14.8012 32.6731 14.4716C32.436 13.9934 31.5762 14.0833 31.1018 14.2631C30.657 14.4716 29.1746 15.5781 29.1746 15.5781ZM30.153 17.5215C30.4198 16.9835 30.7756 17.2232 30.8941 17.6414C31.234 18.8412 29.1114 21.2142 28.9472 21.3979L28.9374 21.4089L28.048 20.2127C28.0183 20.1826 28.0776 20.123 28.1072 20.1526C28.1961 20.2127 28.3444 20.1826 28.6408 20.0932C29.2835 19.8842 29.5348 19.1635 29.79 18.432C29.8998 18.1172 30.0103 17.8004 30.153 17.5215ZM29.5602 27.6575C29.0561 28.6747 28.4334 29.153 28.0184 29.0332C27.9888 29.0332 27.9592 29.063 27.9888 29.093C28.1962 29.362 28.5816 29.8407 28.5816 29.7511C28.5816 29.7328 28.6475 29.6869 28.7567 29.6108C29.0064 29.4368 29.4827 29.1048 29.9159 28.5847C30.6867 27.6575 30.8942 26.6117 30.8349 26.5218C30.5683 26.0734 30.1827 26.3425 29.5602 27.6575ZM31.3173 26.7166L31.3134 26.6941L31.3095 26.6712L32.6437 29.1229C32.6437 29.1229 33.0291 30.3191 31.9913 31.2158C30.9537 32.113 30.924 32.711 31.1019 33.3386C31.3109 34.0097 31.7513 34.4225 32.0173 34.6718C32.1662 34.8114 32.2604 34.8998 32.2285 34.9533C32.1099 35.1924 31.517 35.6114 30.8942 34.9234C30.6893 34.6972 30.523 34.5065 30.3793 34.3418C30.0864 34.0061 29.8878 33.7784 29.6491 33.5782C29.0561 33.0693 28.4039 33.1295 28.2261 33.5782C28.2261 33.5782 28.1964 32.711 28.2852 32.0533C28.4292 31.0611 28.8452 30.6563 29.4231 30.0941L29.4232 30.094C29.5591 29.9617 29.7042 29.8206 29.8566 29.6611C31.5361 27.9676 31.3845 27.1008 31.3173 26.7166ZM31.1909 37.256L32.1692 35.3721C32.1692 35.3721 31.8135 35.7906 31.1909 35.5215C30.722 35.3159 30.3653 34.8701 30.034 34.4561V34.4561C29.8834 34.2679 29.7381 34.0863 29.5898 33.9367C29.1451 33.4885 28.5817 33.4885 28.4927 34.0865C28.4927 34.0865 28.4039 34.4751 28.9967 35.4019C29.6788 36.4184 31.1909 37.256 31.1909 37.256ZM28.4337 35.3721C28.8488 36.2998 30.0051 37.1961 31.2799 37.9738C32.5845 38.7809 32.6734 39.9469 32.6735 39.9767L32.5845 44.0129C32.2583 42.7273 30.4499 41.2027 29.2341 40.2459C28.0186 39.2891 27.3366 37.9738 27.3366 37.9738L28.1075 34.4153C28.1075 34.4153 28.2262 34.8932 28.4337 35.3721ZM27.0697 14.2027L28.0776 14.8607C28.0776 14.8607 27.9886 14.2927 28.7893 13.8142L28.8483 13.7791L28.9208 13.7359C29.687 13.2803 30.5087 12.7917 30.5087 12.1698C30.5087 11.7122 30.3161 11.773 30.1673 11.82H30.1672C30.1409 11.8282 30.116 11.8362 30.0937 11.8407C29.738 11.9002 28.6112 12.3787 27.0697 14.2027ZM28.493 14.9805C28.1668 14.9805 28.4632 14.4123 29.0266 14.0834C29.3526 13.8739 30.3016 13.2761 30.3016 13.2761C30.3016 13.2761 31.3689 13.7245 31.2799 13.7245C30.6135 13.6909 30.0595 14.0917 29.5651 14.4493C29.1798 14.728 28.8307 14.9805 28.493 14.9805ZM29.4147 43.0548L29.3523 43.0859C28.8911 43.3151 28.3198 43.5988 28.3743 43.9831C28.404 44.193 28.6114 44.5212 29.1748 44.4026C29.4611 44.348 29.607 44.2393 29.8081 44.0894C29.9401 43.991 30.096 43.8748 30.331 43.7446C30.6867 43.5346 31.2205 43.4749 31.7245 43.5947L29.916 42.6379C29.9113 42.6426 29.9037 42.6518 29.8931 42.6645C29.8365 42.7322 29.6958 42.9005 29.4712 43.0266L29.4147 43.0548ZM28.7034 42.6599C28.3348 42.854 27.982 43.0399 27.8406 43.2364C27.5144 43.6844 27.7218 44.0434 28.1666 44.5212L26.447 43.3255C26.447 43.3255 27.3661 41.2925 29.4711 41.3526C29.4711 41.3526 29.9456 41.8605 29.412 42.249C29.2087 42.3936 28.9524 42.5287 28.7034 42.6599ZM28.4038 40.9931L28.6517 40.946H28.6518L28.6526 40.9459C28.9331 40.8927 29.0324 40.8738 29.0561 40.8738L26.7436 39.827C26.7436 39.827 26.447 39.4683 24.6385 40.6346C24.6385 40.6346 25.6465 40.9335 25.4685 41.6809C25.3796 42.0397 25.2611 42.3388 24.2235 42.9071C23.1265 43.5276 23.1643 43.9045 23.1821 44.0821V44.0821C23.1841 44.1013 23.1857 44.1181 23.1857 44.1327C23.1857 44.3721 23.6601 44.7606 23.6601 44.7606C23.6601 44.7606 25.439 44.4317 25.9134 43.1164C26.4173 41.771 27.633 41.143 28.4038 40.9931ZM21.5846 39.7075C22.1184 39.8269 24.4902 40.6047 24.4902 40.6047C24.4902 40.6047 23.334 40.8134 22.1184 41.9801C21.9199 42.1616 21.7208 42.3597 21.5146 42.565L21.5139 42.5657L21.5137 42.5658C20.395 43.6791 19.0676 45 16.5148 45C13.9261 45 12.5975 43.6637 11.4688 42.5286C11.279 42.3376 11.0948 42.1523 10.9112 41.9801C9.69571 40.8438 8.53936 40.6047 8.53936 40.6047C8.53936 40.6047 10.9112 39.8269 11.4449 39.7075C11.9489 39.588 12.6309 39.7674 13.7575 40.8737C15.0799 42.1787 16.2686 42.1375 16.488 42.1298C16.4998 42.1294 16.5087 42.1291 16.5148 42.1291C16.5228 42.1291 16.534 42.1294 16.5483 42.1299C16.7979 42.1377 17.982 42.1747 19.2722 40.8737C20.3691 39.7674 21.0511 39.588 21.5846 39.7075ZM23.1858 42.7571C23.2889 42.7 23.4001 42.6428 23.514 42.5843C24.0553 42.3061 24.6591 41.9957 24.757 41.502C24.8164 41.2026 24.6088 41.1131 24.4902 41.1131C23.3339 41.2626 21.5846 43.2362 21.5846 43.2362L22.7326 44.1906C22.7018 44.1467 22.6622 44.0538 22.6225 43.8934C22.5039 43.5346 22.5928 43.0862 23.1858 42.7571ZM26.2396 36.2096V15.6977H6.76066V36.1196C6.76066 37.2857 7.62049 38.0926 8.83606 38.0926H14.9139C15.6848 38.0926 16.1889 38.5415 16.4854 38.9901C16.7817 38.5415 17.2561 38.0926 18.0567 38.0926H23.9864C25.3206 38.0926 26.2396 37.3156 26.2396 36.2096ZM6.49721 13.83C6.19288 13.5051 5.85773 13.1473 4.9223 12.3491C3.9225 11.5004 3.34339 11.4282 3.20485 11.4437L6.13788 10.6445C6.31583 10.6147 7.05711 10.7344 8.15393 12.4683C9.06119 13.9235 10.1772 14.6786 11.0643 15.0699H11.8007V14.2631H21.1994V15.0699H21.7359C22.6435 14.6975 23.8311 13.9414 24.7868 12.4087C25.8838 10.6744 26.6251 10.5549 26.8029 10.5847L29.7678 11.3928C29.7678 11.3928 29.1748 11.3629 28.0483 12.3193C27.1126 13.1173 26.7775 13.4752 26.4731 13.8003C26.2759 14.0109 26.0916 14.2078 25.7652 14.5016C25.4943 14.7484 25.216 14.9325 24.9577 15.0699H26.8623V36.2096C26.8623 37.6444 25.6763 38.6911 24.016 38.6911H18.0863C17.0486 38.6911 16.841 39.7674 16.841 39.8269L16.5148 41.2026L16.1888 39.8269C16.1888 39.7674 15.9219 38.6911 14.9138 38.6911H8.83599C7.26452 38.6911 6.13788 37.585 6.13788 36.0898V15.0699H7.95728C7.71491 14.9359 7.45684 14.7608 7.20531 14.5315C6.87879 14.2375 6.69448 14.0407 6.49721 13.83Z" fill="#F54E5A"/>
</g>
<path d="M47.525 11.7V18H46.076V12.888H43.232V18H41.783V11.7H47.525ZM51.8137 11.7C52.3717 11.7 52.8547 11.793 53.2627 11.979C53.6767 12.165 53.9947 12.429 54.2167 12.771C54.4387 13.113 54.5497 13.518 54.5497 13.986C54.5497 14.448 54.4387 14.853 54.2167 15.201C53.9947 15.543 53.6767 15.807 53.2627 15.993C52.8547 16.173 52.3717 16.263 51.8137 16.263H50.5447V18H49.0867V11.7H51.8137ZM51.7327 15.075C52.1707 15.075 52.5037 14.982 52.7317 14.796C52.9597 14.604 53.0737 14.334 53.0737 13.986C53.0737 13.632 52.9597 13.362 52.7317 13.176C52.5037 12.984 52.1707 12.888 51.7327 12.888H50.5447V15.075H51.7327ZM59.4611 16.65H56.5361L55.9781 18H54.4841L57.2921 11.7H58.7321L61.5491 18H60.0191L59.4611 16.65ZM59.0021 15.543L58.0031 13.131L57.0041 15.543H59.0021ZM66.7496 14.715C67.1336 14.829 67.4276 15.015 67.6316 15.273C67.8356 15.531 67.9376 15.849 67.9376 16.227C67.9376 16.785 67.7246 17.22 67.2986 17.532C66.8786 17.844 66.2756 18 65.4896 18H62.3846V11.7H65.3186C66.0506 11.7 66.6206 11.841 67.0286 12.123C67.4366 12.405 67.6406 12.807 67.6406 13.329C67.6406 13.641 67.5626 13.917 67.4066 14.157C67.2506 14.391 67.0316 14.577 66.7496 14.715ZM63.8336 14.31H65.1926C65.5106 14.31 65.7506 14.247 65.9126 14.121C66.0746 13.989 66.1556 13.797 66.1556 13.545C66.1556 13.299 66.0716 13.11 65.9036 12.978C65.7416 12.846 65.5046 12.78 65.1926 12.78H63.8336V14.31ZM65.4356 16.92C66.1196 16.92 66.4616 16.65 66.4616 16.11C66.4616 15.588 66.1196 15.327 65.4356 15.327H63.8336V16.92H65.4356ZM69.0906 11.7H70.5396V15.804L73.5456 11.7H74.9136V18H73.4736V13.905L70.4676 18H69.0906V11.7ZM81.2972 12.888H79.2812V18H77.8412V12.888H75.8342V11.7H81.2972V12.888ZM87.0907 16.83V18H82.2127V11.7H86.9737V12.87H83.6617V14.238H86.5867V15.372H83.6617V16.83H87.0907ZM93.8844 11.7V18H92.4444V12.888H90.2844L90.2394 14.202C90.2094 15.096 90.1374 15.822 90.0234 16.38C89.9094 16.932 89.7174 17.358 89.4474 17.658C89.1834 17.952 88.8114 18.099 88.3314 18.099C88.1334 18.099 87.8934 18.066 87.6114 18L87.7014 16.767C87.7794 16.791 87.8664 16.803 87.9624 16.803C88.3104 16.803 88.5534 16.599 88.6914 16.191C88.8294 15.777 88.9164 15.132 88.9524 14.256L89.0424 11.7H93.8844ZM98.5088 13.77C99.2768 13.77 99.8648 13.941 100.273 14.283C100.687 14.625 100.894 15.132 100.894 15.804C100.894 16.518 100.666 17.064 100.21 17.442C99.7598 17.814 99.1238 18 98.3018 18H95.4578V11.7H96.9068V13.77H98.5088ZM98.2208 16.92C98.5988 16.92 98.8928 16.827 99.1028 16.641C99.3188 16.455 99.4268 16.185 99.4268 15.831C99.4268 15.177 99.0248 14.85 98.2208 14.85H96.9068V16.92H98.2208ZM104.923 18.108C104.281 18.108 103.699 17.97 103.177 17.694C102.661 17.412 102.253 17.025 101.953 16.533C101.659 16.035 101.512 15.474 101.512 14.85C101.512 14.226 101.659 13.668 101.953 13.176C102.253 12.678 102.661 12.291 103.177 12.015C103.699 11.733 104.284 11.592 104.932 11.592C105.478 11.592 105.97 11.688 106.408 11.88C106.852 12.072 107.224 12.348 107.524 12.708L106.588 13.572C106.162 13.08 105.634 12.834 105.004 12.834C104.614 12.834 104.266 12.921 103.96 13.095C103.654 13.263 103.414 13.5 103.24 13.806C103.072 14.112 102.988 14.46 102.988 14.85C102.988 15.24 103.072 15.588 103.24 15.894C103.414 16.2 103.654 16.44 103.96 16.614C104.266 16.782 104.614 16.866 105.004 16.866C105.634 16.866 106.162 16.617 106.588 16.119L107.524 16.983C107.224 17.349 106.852 17.628 106.408 17.82C105.964 18.012 105.469 18.108 104.923 18.108ZM113.228 12.888H111.212V18H109.772V12.888H107.765V11.7H113.228V12.888ZM118.508 14.715C118.892 14.829 119.186 15.015 119.39 15.273C119.594 15.531 119.696 15.849 119.696 16.227C119.696 16.785 119.483 17.22 119.057 17.532C118.637 17.844 118.034 18 117.248 18H114.143V11.7H117.077C117.809 11.7 118.379 11.841 118.787 12.123C119.195 12.405 119.399 12.807 119.399 13.329C119.399 13.641 119.321 13.917 119.165 14.157C119.009 14.391 118.79 14.577 118.508 14.715ZM115.592 14.31H116.951C117.269 14.31 117.509 14.247 117.671 14.121C117.833 13.989 117.914 13.797 117.914 13.545C117.914 13.299 117.83 13.11 117.662 12.978C117.5 12.846 117.263 12.78 116.951 12.78H115.592V14.31ZM117.194 16.92C117.878 16.92 118.22 16.65 118.22 16.11C118.22 15.588 117.878 15.327 117.194 15.327H115.592V16.92H117.194ZM123.855 18.108C123.201 18.108 122.61 17.967 122.082 17.685C121.56 17.403 121.149 17.016 120.849 16.524C120.555 16.026 120.408 15.468 120.408 14.85C120.408 14.232 120.555 13.677 120.849 13.185C121.149 12.687 121.56 12.297 122.082 12.015C122.61 11.733 123.201 11.592 123.855 11.592C124.509 11.592 125.097 11.733 125.619 12.015C126.141 12.297 126.552 12.687 126.852 13.185C127.152 13.677 127.302 14.232 127.302 14.85C127.302 15.468 127.152 16.026 126.852 16.524C126.552 17.016 126.141 17.403 125.619 17.685C125.097 17.967 124.509 18.108 123.855 18.108ZM123.855 16.866C124.227 16.866 124.563 16.782 124.863 16.614C125.163 16.44 125.397 16.2 125.565 15.894C125.739 15.588 125.826 15.24 125.826 14.85C125.826 14.46 125.739 14.112 125.565 13.806C125.397 13.5 125.163 13.263 124.863 13.095C124.563 12.921 124.227 12.834 123.855 12.834C123.483 12.834 123.147 12.921 122.847 13.095C122.547 13.263 122.31 13.5 122.136 13.806C121.968 14.112 121.884 14.46 121.884 14.85C121.884 15.24 121.968 15.588 122.136 15.894C122.31 16.2 122.547 16.44 122.847 16.614C123.147 16.782 123.483 16.866 123.855 16.866ZM47.516 29L47.507 25.229L45.653 28.334H45.005L43.151 25.301V29H41.783V22.7H42.989L45.347 26.615L47.669 22.7H48.875L48.884 29H47.516ZM53.455 29.108C52.801 29.108 52.21 28.967 51.682 28.685C51.16 28.403 50.749 28.016 50.449 27.524C50.155 27.026 50.008 26.468 50.008 25.85C50.008 25.232 50.155 24.677 50.449 24.185C50.749 23.687 51.16 23.297 51.682 23.015C52.21 22.733 52.801 22.592 53.455 22.592C54.109 22.592 54.697 22.733 55.219 23.015C55.741 23.297 56.152 23.687 56.452 24.185C56.752 24.677 56.902 25.232 56.902 25.85C56.902 26.468 56.752 27.026 56.452 27.524C56.152 28.016 55.741 28.403 55.219 28.685C54.697 28.967 54.109 29.108 53.455 29.108ZM53.455 27.866C53.827 27.866 54.163 27.782 54.463 27.614C54.763 27.44 54.997 27.2 55.165 26.894C55.339 26.588 55.426 26.24 55.426 25.85C55.426 25.46 55.339 25.112 55.165 24.806C54.997 24.5 54.763 24.263 54.463 24.095C54.163 23.921 53.827 23.834 53.455 23.834C53.083 23.834 52.747 23.921 52.447 24.095C52.147 24.263 51.91 24.5 51.736 24.806C51.568 25.112 51.484 25.46 51.484 25.85C51.484 26.24 51.568 26.588 51.736 26.894C51.91 27.2 52.147 27.44 52.447 27.614C52.747 27.782 53.083 27.866 53.455 27.866ZM61.0042 29.108C60.3622 29.108 59.7802 28.97 59.2582 28.694C58.7422 28.412 58.3342 28.025 58.0342 27.533C57.7402 27.035 57.5932 26.474 57.5932 25.85C57.5932 25.226 57.7402 24.668 58.0342 24.176C58.3342 23.678 58.7422 23.291 59.2582 23.015C59.7802 22.733 60.3652 22.592 61.0132 22.592C61.5592 22.592 62.0512 22.688 62.4892 22.88C62.9332 23.072 63.3052 23.348 63.6052 23.708L62.6692 24.572C62.2432 24.08 61.7152 23.834 61.0852 23.834C60.6952 23.834 60.3472 23.921 60.0412 24.095C59.7352 24.263 59.4952 24.5 59.3212 24.806C59.1532 25.112 59.0692 25.46 59.0692 25.85C59.0692 26.24 59.1532 26.588 59.3212 26.894C59.4952 27.2 59.7352 27.44 60.0412 27.614C60.3472 27.782 60.6952 27.866 61.0852 27.866C61.7152 27.866 62.2432 27.617 62.6692 27.119L63.6052 27.983C63.3052 28.349 62.9332 28.628 62.4892 28.82C62.0452 29.012 61.5502 29.108 61.0042 29.108ZM66.9945 26.462H65.9865V29H64.5375V22.7H65.9865V25.247H67.0305L68.6865 22.7H70.2255L68.1645 25.742L70.2885 29H68.6325L66.9945 26.462ZM73.9511 29.108C73.2971 29.108 72.7061 28.967 72.1781 28.685C71.6561 28.403 71.2451 28.016 70.9451 27.524C70.6511 27.026 70.5041 26.468 70.5041 25.85C70.5041 25.232 70.6511 24.677 70.9451 24.185C71.2451 23.687 71.6561 23.297 72.1781 23.015C72.7061 22.733 73.2971 22.592 73.9511 22.592C74.6051 22.592 75.1931 22.733 75.7151 23.015C76.2371 23.297 76.6481 23.687 76.9481 24.185C77.2481 24.677 77.3981 25.232 77.3981 25.85C77.3981 26.468 77.2481 27.026 76.9481 27.524C76.6481 28.016 76.2371 28.403 75.7151 28.685C75.1931 28.967 74.6051 29.108 73.9511 29.108ZM73.9511 27.866C74.3231 27.866 74.6591 27.782 74.9591 27.614C75.2591 27.44 75.4931 27.2 75.6611 26.894C75.8351 26.588 75.9221 26.24 75.9221 25.85C75.9221 25.46 75.8351 25.112 75.6611 24.806C75.4931 24.5 75.2591 24.263 74.9591 24.095C74.6591 23.921 74.3231 23.834 73.9511 23.834C73.5791 23.834 73.2431 23.921 72.9431 24.095C72.6431 24.263 72.4061 24.5 72.2321 24.806C72.0641 25.112 71.9801 25.46 71.9801 25.85C71.9801 26.24 72.0641 26.588 72.2321 26.894C72.4061 27.2 72.6431 27.44 72.9431 27.614C73.2431 27.782 73.5791 27.866 73.9511 27.866ZM82.8863 25.715C83.2703 25.829 83.5643 26.015 83.7683 26.273C83.9723 26.531 84.0743 26.849 84.0743 27.227C84.0743 27.785 83.8613 28.22 83.4353 28.532C83.0153 28.844 82.4123 29 81.6263 29H78.5213V22.7H81.4553C82.1873 22.7 82.7573 22.841 83.1653 23.123C83.5733 23.405 83.7773 23.807 83.7773 24.329C83.7773 24.641 83.6993 24.917 83.5433 25.157C83.3873 25.391 83.1683 25.577 82.8863 25.715ZM79.9703 25.31H81.3293C81.6473 25.31 81.8873 25.247 82.0493 25.121C82.2113 24.989 82.2923 24.797 82.2923 24.545C82.2923 24.299 82.2083 24.11 82.0403 23.978C81.8783 23.846 81.6413 23.78 81.3293 23.78H79.9703V25.31ZM81.5723 27.92C82.2563 27.92 82.5983 27.65 82.5983 27.11C82.5983 26.588 82.2563 26.327 81.5723 26.327H79.9703V27.92H81.5723ZM88.2063 29.108C87.5643 29.108 86.9823 28.97 86.4603 28.694C85.9443 28.412 85.5363 28.025 85.2363 27.533C84.9423 27.035 84.7953 26.474 84.7953 25.85C84.7953 25.226 84.9423 24.668 85.2363 24.176C85.5363 23.678 85.9443 23.291 86.4603 23.015C86.9823 22.733 87.5673 22.592 88.2153 22.592C88.7613 22.592 89.2533 22.688 89.6913 22.88C90.1353 23.072 90.5073 23.348 90.8073 23.708L89.8713 24.572C89.4453 24.08 88.9173 23.834 88.2873 23.834C87.8973 23.834 87.5493 23.921 87.2433 24.095C86.9373 24.263 86.6973 24.5 86.5233 24.806C86.3553 25.112 86.2713 25.46 86.2713 25.85C86.2713 26.24 86.3553 26.588 86.5233 26.894C86.6973 27.2 86.9373 27.44 87.2433 27.614C87.5493 27.782 87.8973 27.866 88.2873 27.866C88.9173 27.866 89.4453 27.617 89.8713 27.119L90.8073 27.983C90.5073 28.349 90.1353 28.628 89.6913 28.82C89.2473 29.012 88.7523 29.108 88.2063 29.108ZM94.1966 26.462H93.1886V29H91.7396V22.7H93.1886V25.247H94.2326L95.8886 22.7H97.4276L95.3666 25.742L97.4906 29H95.8346L94.1966 26.462ZM101.153 29.108C100.499 29.108 99.9083 28.967 99.3803 28.685C98.8583 28.403 98.4473 28.016 98.1473 27.524C97.8533 27.026 97.7063 26.468 97.7063 25.85C97.7063 25.232 97.8533 24.677 98.1473 24.185C98.4473 23.687 98.8583 23.297 99.3803 23.015C99.9083 22.733 100.499 22.592 101.153 22.592C101.807 22.592 102.395 22.733 102.917 23.015C103.439 23.297 103.85 23.687 104.15 24.185C104.45 24.677 104.6 25.232 104.6 25.85C104.6 26.468 104.45 27.026 104.15 27.524C103.85 28.016 103.439 28.403 102.917 28.685C102.395 28.967 101.807 29.108 101.153 29.108ZM101.153 27.866C101.525 27.866 101.861 27.782 102.161 27.614C102.461 27.44 102.695 27.2 102.863 26.894C103.037 26.588 103.124 26.24 103.124 25.85C103.124 25.46 103.037 25.112 102.863 24.806C102.695 24.5 102.461 24.263 102.161 24.095C101.861 23.921 101.525 23.834 101.153 23.834C100.781 23.834 100.445 23.921 100.145 24.095C99.8453 24.263 99.6083 24.5 99.4343 24.806C99.2663 25.112 99.1823 25.46 99.1823 25.85C99.1823 26.24 99.2663 26.588 99.4343 26.894C99.6083 27.2 99.8453 27.44 100.145 27.614C100.445 27.782 100.781 27.866 101.153 27.866ZM105.723 22.7H107.172V26.804L110.178 22.7H111.546V29H110.106V24.905L107.1 29H105.723V22.7ZM108.63 22.295C107.478 22.295 106.896 21.836 106.884 20.918H107.883C107.895 21.356 108.144 21.575 108.63 21.575C108.87 21.575 109.053 21.521 109.179 21.413C109.305 21.299 109.371 21.134 109.377 20.918H110.376C110.37 21.368 110.223 21.71 109.935 21.944C109.647 22.178 109.212 22.295 108.63 22.295ZM44.789 40.108C44.135 40.108 43.544 39.967 43.016 39.685C42.494 39.403 42.083 39.016 41.783 38.524C41.489 38.026 41.342 37.468 41.342 36.85C41.342 36.232 41.489 35.677 41.783 35.185C42.083 34.687 42.494 34.297 43.016 34.015C43.544 33.733 44.135 33.592 44.789 33.592C45.443 33.592 46.031 33.733 46.553 34.015C47.075 34.297 47.486 34.687 47.786 35.185C48.086 35.677 48.236 36.232 48.236 36.85C48.236 37.468 48.086 38.026 47.786 38.524C47.486 39.016 47.075 39.403 46.553 39.685C46.031 39.967 45.443 40.108 44.789 40.108ZM44.789 38.866C45.161 38.866 45.497 38.782 45.797 38.614C46.097 38.44 46.331 38.2 46.499 37.894C46.673 37.588 46.76 37.24 46.76 36.85C46.76 36.46 46.673 36.112 46.499 35.806C46.331 35.5 46.097 35.263 45.797 35.095C45.497 34.921 45.161 34.834 44.789 34.834C44.417 34.834 44.081 34.921 43.781 35.095C43.481 35.263 43.244 35.5 43.07 35.806C42.902 36.112 42.818 36.46 42.818 36.85C42.818 37.24 42.902 37.588 43.07 37.894C43.244 38.2 43.481 38.44 43.781 38.614C44.081 38.782 44.417 38.866 44.789 38.866ZM49.3592 33.7H54.4442V34.861H50.8082V36.157H52.5542C53.3162 36.157 53.8952 36.316 54.2912 36.634C54.6932 36.952 54.8942 37.411 54.8942 38.011C54.8942 38.641 54.6722 39.13 54.2282 39.478C53.7842 39.826 53.1572 40 52.3472 40H49.3592V33.7ZM52.2662 38.92C52.6382 38.92 52.9232 38.848 53.1212 38.704C53.3192 38.554 53.4182 38.338 53.4182 38.056C53.4182 37.504 53.0342 37.228 52.2662 37.228H50.8082V38.92H52.2662ZM61.4703 33.7V40H60.0303V34.888H57.8703L57.8253 36.202C57.7953 37.096 57.7233 37.822 57.6093 38.38C57.4953 38.932 57.3033 39.358 57.0333 39.658C56.7693 39.952 56.3973 40.099 55.9173 40.099C55.7193 40.099 55.4793 40.066 55.1973 40L55.2873 38.767C55.3653 38.791 55.4523 38.803 55.5483 38.803C55.8963 38.803 56.1393 38.599 56.2773 38.191C56.4153 37.777 56.5023 37.132 56.5383 36.256L56.6283 33.7H61.4703ZM67.3097 38.65H64.3847L63.8267 40H62.3327L65.1407 33.7H66.5807L69.3977 40H67.8677L67.3097 38.65ZM66.8507 37.543L65.8517 35.131L64.8527 37.543H66.8507ZM73.1243 40.108C72.4823 40.108 71.9003 39.97 71.3783 39.694C70.8623 39.412 70.4543 39.025 70.1543 38.533C69.8603 38.035 69.7133 37.474 69.7133 36.85C69.7133 36.226 69.8603 35.668 70.1543 35.176C70.4543 34.678 70.8623 34.291 71.3783 34.015C71.9003 33.733 72.4853 33.592 73.1333 33.592C73.6793 33.592 74.1713 33.688 74.6093 33.88C75.0533 34.072 75.4253 34.348 75.7253 34.708L74.7893 35.572C74.3633 35.08 73.8353 34.834 73.2053 34.834C72.8153 34.834 72.4673 34.921 72.1613 35.095C71.8553 35.263 71.6153 35.5 71.4413 35.806C71.2733 36.112 71.1893 36.46 71.1893 36.85C71.1893 37.24 71.2733 37.588 71.4413 37.894C71.6153 38.2 71.8553 38.44 72.1613 38.614C72.4673 38.782 72.8153 38.866 73.2053 38.866C73.8353 38.866 74.3633 38.617 74.7893 38.119L75.7253 38.983C75.4253 39.349 75.0533 39.628 74.6093 39.82C74.1653 40.012 73.6703 40.108 73.1243 40.108ZM81.4291 34.888H79.4131V40H77.9731V34.888H75.9661V33.7H81.4291V34.888ZM82.3445 33.7H83.7935V37.804L86.7995 33.7H88.1675V40H86.7275V35.905L83.7215 40H82.3445V33.7Z" fill="black"/>
<defs>
<clipPath id="clip0_1011_397">
<rect width="33" height="45" fill="white"/>
</clipPath>
</defs>
</svg>
