<svg id="onf" width="113" height="70" viewBox="0 0 84 72" fill="none" xmlns="http://www.w3.org/2000/svg">
<path fill-rule="evenodd" clip-rule="evenodd" d="M43.0583 60.3078L44.2119 58.6571C43.1135 57.89 42.0151 57.1168 40.9167 56.3498L41.4935 55.5275C42.5919 56.2946 43.6903 57.0678 44.7888 57.8348C45.1754 57.2825 45.5558 56.7364 45.9424 56.1841C44.844 55.4171 43.7456 54.6439 42.6472 53.8768L43.224 53.0546C44.3224 53.8216 46.2492 55.1716 47.3476 55.9387L47.9244 55.1164L48.7467 55.6932L48.1699 56.5155L47.3476 55.9387C46.0038 57.8593 44.6538 59.7862 43.3099 61.7069L42.8988 61.4184L42.6288 61.2282L42.4876 61.13C41.3892 60.363 40.2908 59.5898 39.1924 58.8228L39.7692 58.0005C40.8676 58.7675 41.966 59.5407 43.0644 60.3078H43.0583Z" fill="#E41D37"/>
<path fill-rule="evenodd" clip-rule="evenodd" d="M32.5467 68.3035L33.0008 67.6531L33.1235 67.4813L34.854 65.0083L34.9767 64.8365L35.4308 64.186L35.9831 64.5726L36.2531 64.7629L38.7261 66.4933L38.9961 66.6835L39.5483 67.0701L39.1986 67.5672L38.9715 67.8985L37.2411 70.3715L37.0079 70.7029L36.6581 71.1999L36.0506 70.7765L35.8297 70.6231L33.3567 68.8926L33.1358 68.7392L32.5283 68.3158L32.5467 68.3035ZM38.1492 67.3156L35.6763 65.5851L33.9458 68.0581L36.4188 69.7885L38.1492 67.3156Z" fill="#E41D37"/>
<path fill-rule="evenodd" clip-rule="evenodd" d="M40.1433 64.4684L40.4562 64.0204L40.8919 63.3945L41.0637 63.149L41.4687 62.5722L40.6464 61.9954L40.2599 62.5477L40.0696 62.8177L39.4928 63.6399L39.3026 63.9161L38.916 64.4684L39.7383 65.0452L40.1433 64.4684ZM38.3392 65.2906L38.1367 65.1495L37.7133 64.8549L37.5108 64.7138L36.6885 64.137L35.8662 63.5602L36.443 62.7379L36.8787 62.112L37.0199 61.9095L37.5967 61.0872L37.7378 60.8847L38.1735 60.2588L38.7503 59.4365L39.5726 60.0133L38.9958 60.8356L38.5601 61.4615L38.4189 61.664L37.8421 62.4863L37.701 62.6888L37.2653 63.3147L38.0876 63.8915L38.4742 63.3393L38.6644 63.0631L39.2412 62.2408L39.4314 61.9708L39.818 61.4186L40.3949 60.5963L41.0208 61.032L41.2233 61.1731L42.0455 61.7499L42.8678 62.3268L42.291 63.149L41.886 63.7259L41.7142 63.9713L41.2785 64.5972L40.9655 65.0452L40.5605 65.622L39.9837 66.4443L39.1614 65.8674L38.3392 65.2906Z" fill="#E41D37"/>
<path fill-rule="evenodd" clip-rule="evenodd" d="M47.6848 53.6989L48.2617 52.8767L48.8385 52.0544L49.4153 51.226L49.6485 50.8946L49.9921 50.4037L50.8144 50.9805L50.4707 51.4714L50.2376 51.8028L49.6607 52.6312L49.0839 53.4535L48.5071 54.2758L48.2739 54.6133L47.9303 55.1042L47.2737 54.644L47.108 54.5212L46.2796 53.9444L45.4573 53.3676L44.6351 52.7908L44.4632 52.6742L43.8066 52.2139L44.1503 51.723L44.3835 51.3917H44.3896L44.9664 50.5694L45.5432 49.741L46.1201 48.9187L46.3532 48.5873L46.6969 48.0964L47.5191 48.6733L47.1755 49.1642L46.9423 49.4955L46.3655 50.3178L45.7887 51.1462L45.2119 51.9685L46.0341 52.5453L46.611 51.723L47.1878 50.8946L47.7646 50.0723L47.9978 49.741L48.3414 49.2501L49.1698 49.8269L48.8262 50.3178L48.593 50.6492L48.0162 51.4714L47.4332 52.2999L46.8564 53.1221L47.6848 53.6989Z" fill="#E41D37"/>
<path fill-rule="evenodd" clip-rule="evenodd" d="M47.1263 47.4767L47.4944 46.9551L47.7031 46.6545L48.2799 45.8322L48.8567 45.0099L49.4335 44.1876L49.6422 43.8869L50.0104 43.3654L50.5749 43.7642L50.8326 43.9422L51.6549 44.519L51.9126 44.697L52.4772 45.0958L52.109 45.6174L51.9004 45.9181L51.3235 46.7404L50.7467 47.5626L50.1699 48.3849L50.9922 48.9617L51.2008 49.1029L51.8206 49.5386L51.2438 50.3608L50.624 49.9251L50.4154 49.7779L49.5931 49.2011L48.7708 48.6242L47.9485 48.0474L47.7399 47.9001L47.1201 47.4645L47.1263 47.4767ZM51.0842 45.3351L50.2619 44.7583L49.6851 45.5806L49.1083 46.4029L48.5315 47.2251L49.3538 47.802L49.9306 46.9797L50.5074 46.1574L51.0842 45.3351Z" fill="#E41D37"/>
<path fill-rule="evenodd" clip-rule="evenodd" d="M50.4463 42.7394L50.9249 42.0521L51.0231 41.911L51.5999 41.0887L52.1767 40.2664L52.7536 39.4441L52.8517 39.303L53.3304 38.6157L53.9747 39.0637L54.1527 39.1925L54.9749 39.7694L55.7972 40.3462L56.6195 40.923L56.7974 41.0519L57.4418 41.4998L56.9631 42.1871L56.8649 42.3282L56.2881 43.1505L55.7113 43.9728L55.1345 44.7951L55.0363 44.9362L54.5577 45.6235L53.9133 45.1755L53.7354 45.0466L52.9131 44.4698L52.0908 43.893L51.2686 43.3162L51.0906 43.1873L50.4463 42.7394ZM56.0488 41.7514L55.2265 41.1746L54.4043 40.5978L53.582 40.021L53.0052 40.8432L52.4283 41.6655L51.8515 42.4878L52.6738 43.0646L53.4961 43.6414L54.3183 44.2182L54.8952 43.396L55.472 42.5737L56.0488 41.7514Z" fill="#E41D37"/>
<path fill-rule="evenodd" clip-rule="evenodd" d="M53.7652 37.9961C54.7286 36.6215 55.6859 35.247 56.6493 33.8724L57.4716 34.4493L57.0666 35.0261L56.8948 35.2715L56.3179 36.0938L55.7411 36.9161L55.1643 37.7384L55.9866 38.3152L56.8088 38.892L57.6311 39.4688L58.2079 38.6465L58.7848 37.8243L59.3616 37.002L59.5334 36.7565L59.9384 36.1797L60.7607 36.7565C59.7973 38.1311 58.84 39.5056 57.8766 40.8802L57.2813 40.4629L57.0482 40.3034L56.2259 39.7265L55.4036 39.1497L54.5813 38.5729L54.3482 38.4134L53.7529 37.9961H53.7652Z" fill="#E41D37"/>
<path fill-rule="evenodd" clip-rule="evenodd" d="M60.3994 28.5214L60.9762 27.6991L61.6451 28.1654L61.7985 28.2759L62.6208 28.8527L63.4431 29.4295L64.2653 30.0064L64.4187 30.1168L65.0876 30.5832L64.5108 31.4054L63.8419 30.9391L63.6885 30.8286L62.8662 30.2518L62.044 29.675L61.2217 29.0982L61.0683 28.9877L60.3994 28.5214ZM66.7383 26.8154L67.4072 27.2818L66.8303 28.1041L66.1615 27.6377L66.0081 27.5273L65.1858 26.9504L64.3635 26.3736L63.5412 25.7968L63.3878 25.6863L62.719 25.22L63.2958 24.3977L63.9646 24.8641L64.1181 24.9745L64.9403 25.5513L65.7626 26.1282L66.5849 26.705L66.7383 26.8154ZM62.9583 26.6252L63.5351 25.8029L64.3574 26.3798L63.7806 27.202L62.9583 26.6252ZM63.2037 28.0243L63.7806 27.202L64.6028 27.7788L64.026 28.6011L63.2037 28.0243ZM63.4492 29.4234L64.026 28.6011L64.8483 29.1779L64.2715 30.0002L63.4492 29.4234Z" fill="#E41D37"/>
<path fill-rule="evenodd" clip-rule="evenodd" d="M67.5905 25.263L67.9219 25.4962L68.4128 25.8399L67.836 26.6621L67.3451 26.3185L67.0137 26.0853L66.1914 25.5085L65.3692 24.9317L64.5469 24.3549L64.2155 24.1217L63.7246 23.778L64.3014 22.9558L64.7923 23.2994L65.1237 23.5326L65.946 24.1094L66.7683 24.6862L67.3451 23.8639L68.1673 24.4408L67.5905 25.263ZM70.2353 22.201L70.7262 22.5446L70.1494 23.3669L69.6585 23.0233L69.3271 22.7901L68.5048 22.2133L67.6826 21.6364L66.8603 21.0596L66.5289 20.8264L66.038 20.4828L66.6148 19.6605L67.1058 20.0042L67.4371 20.2373L68.2594 20.8142L69.0817 21.391L69.9039 21.9678L70.2353 22.201ZM66.2712 21.8819L66.848 21.0596L67.6703 21.6364L67.0935 22.4587L66.2712 21.8819ZM66.5167 23.281L67.0935 22.4587L67.9158 23.0355L67.3389 23.8578L66.5167 23.281Z" fill="#E41D37"/>
<path d="M64.6269 20.7307L64.0498 21.5548L64.8739 22.1319L65.451 21.3077L64.6269 20.7307Z" fill="#E41D37"/>
<path fill-rule="evenodd" clip-rule="evenodd" d="M57.085 33.2587L57.4654 32.7125L57.6618 32.4364L58.2386 31.608L58.8154 30.7857L59.3922 29.9634L59.5825 29.6873L59.9691 29.135L60.7913 29.718L60.4109 30.2641L60.2145 30.5402L59.6377 31.3625L59.0609 32.1848L58.4841 33.0132L59.3063 33.59L60.1347 34.1668L60.957 34.7437L61.5338 33.9214L62.1107 33.093L62.6875 32.2707L62.8838 31.9946L63.2643 31.4484L64.0866 32.0252L63.7061 32.5714L63.5097 32.8475L62.9329 33.6698L62.3561 34.4982L61.7793 35.3205L61.5829 35.5966L61.2025 36.1428L60.6379 35.75L60.3802 35.5659L59.5579 34.9891L58.7295 34.4123L57.9072 33.8355L57.6495 33.6575L57.085 33.2587Z" fill="#E41D37"/>
<path fill-rule="evenodd" clip-rule="evenodd" d="M67.0391 19.0407L67.395 18.5375L67.6159 18.2185L68.1927 17.39L68.7695 16.5678L69.3463 15.7455L69.5734 15.4264L69.9232 14.9232L70.7454 15.5L70.3957 16.0032L70.1686 16.3223L69.5918 17.1446L69.015 17.973L68.4382 18.7953L69.2666 19.3721L70.0888 19.9489L70.9111 20.5257L71.4879 19.7035L72.0648 18.875L72.6416 18.0528L72.8686 17.7337L73.2184 17.2305L74.0468 17.8073L73.6909 18.3105L73.47 18.6296L72.8932 19.4519L72.3163 20.2803L71.7395 21.1026L71.5125 21.4216L71.1566 21.9248L70.5184 21.4769L70.3343 21.348L69.512 20.7712L68.6897 20.1944L67.8613 19.6175L67.6834 19.4948L67.0391 19.0407Z" fill="#E41D37"/>
<path fill-rule="evenodd" clip-rule="evenodd" d="M74.2302 15.7884L74.3959 15.905L75.0525 16.3652L74.4756 17.1875L73.819 16.7273L73.6534 16.6107L72.8311 16.0339L72.0088 15.4571L71.1865 14.8802L71.0209 14.7637L70.3643 14.3034L70.9411 13.4811L71.5977 13.9414L71.7634 14.058L72.5856 14.6348L73.1624 13.8125L73.3588 13.5302L73.7393 12.9841L74.5615 13.5609L74.1811 14.1071L73.9847 14.3893L73.4079 15.2116L74.2302 15.7884ZM72.6654 11.0082L73.2422 10.1859L74.0645 10.7627L73.4877 11.585L74.3099 12.1618L73.7331 12.9841L72.9109 12.4073L73.4877 11.585L72.6654 11.0082ZM75.9606 13.3155L76.5375 12.4932L77.3597 13.07L76.7829 13.8923L75.9606 13.3155L75.3838 14.1377L74.5615 13.5609L75.1384 12.7386L75.9606 13.3155Z" fill="#E41D37"/>
<path fill-rule="evenodd" clip-rule="evenodd" d="M73.6719 9.56001L74.2487 8.73774L74.6598 9.02615L75.071 9.31456L75.8932 9.89138L76.7155 10.4682L77.5378 11.045L77.9489 11.3334L78.3601 11.6218L77.7832 12.4441L77.3721 12.1557L76.961 11.8673L76.1387 11.2905L75.3164 10.7137L74.4941 10.1368L74.083 9.84842L73.6719 9.56001ZM80.2623 8.03819L80.6735 8.3266L80.0967 9.14888L79.6855 8.86047L79.2744 8.57206L78.4521 7.99524L77.6298 7.41842L76.8076 6.8416L76.3964 6.55319L75.9853 6.26478L76.5621 5.4425L76.9732 5.73091L77.3844 6.01932L78.2067 6.59614L79.0289 7.17296L79.8512 7.74978L80.2623 8.03819ZM76.2246 7.67001L76.8014 6.84774L77.6237 7.42456L77.0469 8.24683L76.2246 7.67001ZM76.4701 9.0691L77.0469 8.24683L77.8692 8.82365L77.2923 9.64592L76.4701 9.0691ZM76.7155 10.4682L77.2923 9.64592L78.1146 10.2227L77.5378 11.045L76.7155 10.4682Z" fill="#E41D37"/>
<path fill-rule="evenodd" clip-rule="evenodd" d="M80.8708 6.30771L81.2819 6.59612L81.6931 6.88453L81.1163 7.70681L80.7051 7.4184L80.294 7.12999L79.4717 6.55317L78.6494 5.97635L77.8272 5.39953L77.416 5.11112L77.0049 4.82271L77.5817 4.00044L77.9928 4.28885L78.404 4.57725L79.2263 5.15407L80.0485 5.73089L80.6253 4.90862L81.4476 5.48544L80.8708 6.30771ZM83.5892 3.30089L84.0004 3.5893L83.4235 4.41157L83.0124 4.12316L82.6013 3.83475L81.779 3.25793L80.9567 2.68111L80.1344 2.10429L79.7233 1.81588L79.3122 1.52747L79.889 0.7052L80.3001 0.99361L80.7113 1.28202L81.5335 1.85884L82.3558 2.43566L83.1781 3.01248L83.5892 3.30089ZM79.5515 2.93271L80.1283 2.11043L80.9506 2.68725L80.3738 3.50953L79.5515 2.93271ZM79.7969 4.3318L80.3738 3.50953L81.196 4.08634L80.6192 4.90862L79.7969 4.3318Z" fill="#E41D37"/>
<path d="M77.9003 1.77388L77.3232 2.59802L78.1474 3.17509L78.7244 2.35095L77.9003 1.77388Z" fill="#E41D37"/>
<path fill-rule="evenodd" clip-rule="evenodd" d="M50.6797 59.4856L51.3853 59.9826L52.3242 60.6392L51.7474 61.4615L50.8085 60.8049L50.1028 60.3079L49.8697 60.1483L49.2744 59.731L48.4522 59.1542L47.6299 58.5774L48.0656 57.9515L48.2067 57.749L48.7835 56.9267L49.3603 56.1044L49.796 55.4847L49.9433 55.276L50.379 54.6562L51.2013 55.2331L52.0235 55.8099L52.8458 56.3867L52.4101 57.0065L52.2628 57.2151L51.8272 57.8349L51.2503 58.6572L50.6735 59.4794L50.6797 59.4856ZM49.029 58.3319L49.8513 58.9088L50.4281 58.0865L51.0049 57.2642L51.4406 56.6444L50.6183 56.0676L50.1826 56.6874L49.6058 57.5097L49.029 58.3319Z" fill="#0C54A0"/>
<path fill-rule="evenodd" clip-rule="evenodd" d="M43.6534 67.7635L43.7946 67.561L44.3714 66.7326L44.9482 65.9104L44.1259 65.3335L43.2975 64.7567L43.8805 63.9344L44.7027 64.5113L45.525 65.0881L46.0896 65.4808L46.3473 65.6649L47.0407 66.1497L47.998 66.8185L47.4212 67.6408L46.4639 66.972L45.7705 66.4872L45.1937 67.3156L44.6168 68.1379L44.4757 68.3404L44.04 68.9601L44.758 69.4633L45.6907 70.1138L45.1139 70.9422L44.175 70.2856L43.4632 69.7824L43.2423 69.629L42.6409 69.2056L41.8186 68.6288L40.9902 68.052L41.5671 67.2297L42.3955 67.8065L43.2177 68.3833L43.6534 67.7635Z" fill="#0C54A0"/>
<path fill-rule="evenodd" clip-rule="evenodd" d="M50.3966 61.4369L51.317 62.0812L50.7402 62.9035L49.8198 62.2592L49.0895 61.7499L48.5127 62.5722L47.9359 63.3944L47.7948 63.5969L47.3591 64.2228L48.0893 64.7322L49.0098 65.3765L48.4329 66.1988L47.5125 65.5544L46.7823 65.0451L46.592 64.9101L45.96 64.4683L45.1377 63.8915L44.3154 63.3147L44.8922 62.4924L45.3279 61.8665L45.4691 61.664L46.0459 60.8417L46.6227 60.0194L47.1995 59.1971L48.0218 59.774L48.8441 60.3508L49.4761 60.7926L49.6664 60.9276L50.3966 61.4369ZM47.6904 61.9953L48.2673 61.1731L47.445 60.5962L46.8682 61.4185L46.2913 62.2408L46.1502 62.4433L45.7145 63.0692L46.5368 63.646L46.9725 63.0201L47.1136 62.8176L47.6904 61.9953Z" fill="#0C54A0"/>
<path fill-rule="evenodd" clip-rule="evenodd" d="M52.5752 51.5145L53.1152 50.7474L53.2318 50.5818L53.692 49.9252L54.5143 50.502L55.3365 51.0788L55.8888 51.4654L56.165 51.6556L56.8522 52.1343L57.8156 52.8093L57.3554 53.4659L57.2388 53.6315L56.6988 54.3986L56.0422 55.3313L55.5022 56.0984L55.3856 56.264L54.9254 56.9206L53.962 56.2456L53.2747 55.767L52.9986 55.5768L52.4463 55.1902L51.624 54.6134L50.8018 54.0365L51.262 53.38L51.3786 53.2143L51.9186 52.4472L52.5752 51.5145ZM55.5881 52.4779L55.312 52.2877L54.7597 51.9011L53.9374 51.3243L53.3974 52.0913L52.7409 53.024L52.2009 53.7911L53.0231 54.3679L53.5754 54.7545L53.8515 54.9447L54.5388 55.4234L54.6738 55.5215L55.2138 54.7545L55.8704 53.8218L56.4104 53.0547L56.2754 52.9565L55.5881 52.4779Z" fill="#0C54A0"/>
<path fill-rule="evenodd" clip-rule="evenodd" d="M57.7305 44.1508L58.3073 43.3286L59.1296 43.9054L59.9518 44.4822C60.5287 43.6599 61.1055 42.8315 61.6823 42.0092L60.86 41.4324L60.0377 40.8556L60.6146 40.0333C61.9891 40.9967 63.3637 41.9601 64.7382 42.9174L64.1614 43.7397L63.2287 43.0831L62.5168 42.5861C61.94 43.4083 61.3632 44.2367 60.7864 45.059L61.4982 45.5561L62.4309 46.2127L61.8541 47.0349C60.4796 46.0715 59.105 45.1081 57.7305 44.1508Z" fill="#0C54A0"/>
<path fill-rule="evenodd" clip-rule="evenodd" d="M64.4244 38.0942L65.0012 37.272L65.8235 37.8488L65.2467 38.6711L64.6698 39.4933L64.093 40.3156L64.9153 40.8924L65.4921 40.0702L66.0689 39.2479L66.6458 38.4256L67.468 39.0024L66.8912 39.8247L66.3144 40.647L65.7376 41.4693L65.1608 42.2915C63.7862 41.3281 62.4117 40.3708 61.0371 39.4074L61.6139 38.5852L62.4362 39.162L63.2585 39.7388L63.8353 38.9165L64.4121 38.0942H64.4244Z" fill="#0C54A0"/>
<path fill-rule="evenodd" clip-rule="evenodd" d="M65.8236 37.8487L66.4004 37.0264L65.707 36.5355L64.8172 35.9157L63.9336 35.2959L64.5104 34.4675L65.3941 35.0934L66.2838 35.7132L66.9834 36.198L67.1736 36.333L67.8056 36.7748L68.6279 37.3516L68.0511 38.18L67.2288 37.6032L66.652 38.4255L65.8236 37.8487Z" fill="#0C54A0"/>
<path fill-rule="evenodd" clip-rule="evenodd" d="M70.2975 31.4608L70.6473 31.7063L71.1198 32.0377L71.942 32.6145L71.3652 33.4368L70.5429 32.8599L70.0704 32.5286L69.7207 32.2831L69.1316 31.8658L68.8984 31.7002L68.3216 32.5224L69.1438 33.0993L68.567 33.9215L67.7448 33.3447L68.3216 32.5224L67.4993 31.9456L68.0761 31.1233L67.2538 30.5465L67.8307 29.7242L68.7695 30.3808L69.7084 31.0374L70.2975 31.4547V31.4608ZM68.8125 35.3329L69.6348 35.9097L69.0579 36.732L68.2357 36.1552L67.6957 35.7808L67.4134 35.5783L66.7813 35.1365L65.8609 34.4922L64.9404 33.8479L65.5172 33.0256L66.4377 33.6699L67.3582 34.3143L67.9902 34.7561L68.567 33.9338L69.3893 34.5106L68.8125 35.3329Z" fill="#0C54A0"/>
<path fill-rule="evenodd" clip-rule="evenodd" d="M65.2715 31.6265L65.8483 30.8042L66.6706 31.381L66.0938 32.2033L65.2715 31.6265Z" fill="#0C54A0"/>
<path fill-rule="evenodd" clip-rule="evenodd" d="M57.8095 52.803L58.3802 51.9869L57.5579 51.41C56.4227 50.6185 56.7479 50.8394 55.085 49.6796L54.2627 49.1028C55.2261 47.7282 56.1895 46.3537 57.1468 44.9791L58.0611 45.6234C58.8527 46.1819 59.6504 46.7341 60.442 47.2925L61.2643 47.8694L61.835 47.0532L62.6573 47.63L62.0804 48.4523L61.2582 47.8755C60.3929 49.1089 59.2454 50.7473 58.3802 51.9869L59.2025 52.5637L58.6257 53.386L57.8034 52.8091L57.8095 52.803ZM58.1347 50.5816C58.7116 49.7594 59.2884 48.931 59.8652 48.1087C59.0736 47.5503 58.2759 46.998 57.4843 46.4396L57.3922 46.3782C56.8154 47.2005 56.2386 48.0289 55.6618 48.8512C56.8277 49.6673 57.2143 49.9373 58.1347 50.5816Z" fill="#0C54A0"/>
<path fill-rule="evenodd" clip-rule="evenodd" d="M53.3792 71.1877L52.557 70.6109L49.2617 68.3036L50.9922 65.8306L50.1699 65.2538L50.7467 64.4315L51.569 65.0084L52.1458 64.1861L53.2995 62.5354C55.1036 63.7995 55.8031 64.2904 57.4231 65.4195L55.6926 67.8925L56.5149 68.4693L55.9381 69.2916L55.1158 68.7147C54.3795 69.7702 54.4163 69.7088 53.3854 71.1877H53.3792ZM54.2874 68.1379L51.8145 66.4075L50.6608 68.0581L53.1338 69.7886C53.8579 68.7577 53.5633 69.175 54.2874 68.1379ZM53.5449 63.9345L52.3913 65.5852L54.042 66.7388L54.8642 67.3156L56.0179 65.665C55.1097 65.0268 54.6433 64.7015 53.5449 63.9345Z" fill="#727271"/>
<path fill-rule="evenodd" clip-rule="evenodd" d="M65.5661 45.016L66.1429 44.1937L66.9652 44.7705L65.8115 46.4212L69.1068 48.7285L68.5299 49.5508C67.4315 48.7837 66.3331 48.0106 65.2347 47.2435C64.8481 47.7958 64.4677 48.3419 64.0811 48.8942L63.2588 48.3174C64.0258 47.219 64.799 46.1205 65.5661 45.0221V45.016Z" fill="#727271"/>
<path fill-rule="evenodd" clip-rule="evenodd" d="M66.5536 50.6247L67.3759 51.2015L66.7991 52.0299L65.1484 50.8701L64.5716 51.6985L63.4179 53.3431L64.2402 53.9199V53.926V53.9199L65.0686 54.5029L64.4918 55.3251L63.6634 54.7483L62.8411 54.1715L60.3682 52.441L60.945 51.6126L62.5957 52.7663L63.7493 51.1217L64.3261 50.2933L62.6754 49.1397L63.2523 48.3174L64.0807 48.8942L65.7252 50.0478L66.5536 50.6247Z" fill="#727271"/>
<path fill-rule="evenodd" clip-rule="evenodd" d="M57.0488 57.1782C58.0122 55.8037 58.9695 54.4291 59.9329 53.0546C61.3075 54.018 62.682 54.9753 64.0566 55.9387C63.0932 57.3132 62.1359 58.6878 61.1725 60.0623L57.0488 57.1782ZM60.1784 54.4598L58.4479 56.9328L60.9209 58.6632C61.4977 57.8409 62.0745 57.0125 62.6513 56.1903L60.1784 54.4598Z" fill="#727271"/>
<path fill-rule="evenodd" clip-rule="evenodd" d="M56.8642 59.1971L56.2874 60.0194L55.1337 61.6701L55.956 62.2469L56.5328 61.4246L57.6865 59.7739L56.8642 59.1971ZM56.6187 57.798L59.0917 59.5285L58.5149 60.3507L56.7844 62.8237L57.6067 63.4005L58.429 63.9773L57.8522 64.7996L56.2015 63.646L53.7285 61.9155C54.5937 60.6821 55.4283 59.4855 56.6126 57.7919L56.6187 57.798Z" fill="#727271"/>
<path fill-rule="evenodd" clip-rule="evenodd" d="M15.9359 31.7062L35.5969 59.7924L31.6941 65.3765L8.11816 31.7062H15.9359Z" fill="#0C54A0"/>
<path fill-rule="evenodd" clip-rule="evenodd" d="M8.11755 31.7062L31.6935 65.3765L27.7908 70.9606L0.299805 31.7062H8.11755Z" fill="#E41D37"/>
<path fill-rule="evenodd" clip-rule="evenodd" d="M23.7533 31.7062L39.5054 54.2083L35.5965 59.7924L15.9355 31.7062H23.7533Z" fill="white"/>
<path fill-rule="evenodd" clip-rule="evenodd" d="M39.9714 53.5333L39.505 54.2083L23.7529 31.7062H24.6857L39.9714 53.5333Z" fill="#B2B3B3"/>
</svg>
