<svg id="rospatriot" width = "113" height = "70" viewBox="0 0 673 682" fill="none" xmlns="http://www.w3.org/2000/svg">
<path d="M515.9 566.9C513.9 568.9 513 570.8 513 573C513 577 517.7 582 521.5 582C524.8 582 529.6 579.6 530.4 577.5C534.3 567.3 523.4 559.4 515.9 566.9Z" fill="black"/>
<path d="M0 614.9V661H7H14V645.5V630H26.8H39.5L48.3 645.5L57.1 661H64.6C68.7 661 72 660.6 72 660.1C72 659.5 68 652.3 63 643.9C58.1 635.6 54 628.5 54 628.1C54 627.8 55.6 626.6 57.6 625.5C66.5 620.7 72.4 610.4 72.4 599.5C72.3 587.5 66.4 578.3 55.2 572.8L48.6 569.5L24.3 569.2L0 568.8V614.9ZM44.3 582.1C60.2 586.5 62.4 608.8 47.8 615.9C43.9 617.7 41.6 618 28.7 618H14V599.5V581H27.3C34.5 581 42.2 581.5 44.3 582.1Z" fill="black"/>
<path d="M417.8 580.1C417.4 591.1 416.6 592 407.3 592H401V597.5V603H409H417V624.8C417 646.2 417 646.7 419.6 651.7C423.2 659 427.5 661 440.1 661C453.8 661 454 660.9 454 654.3V648.9L444.8 649.5C434 650.3 432.4 649.6 431 643.5C430.5 641.3 430 631.3 430 621.2V603H441.5H453V597.5V592.1L441.8 591.8L430.5 591.5L430.2 581.2L429.9 571H424.1H418.2L417.8 580.1Z" fill="black"/>
<path d="M636.8 580.1C636.4 591.1 635.6 592 626.3 592H620V597.5V603H628H636V624.8C636 646.2 636 646.7 638.6 651.7C642.2 659 646.5 661 659.1 661C672.8 661 673 660.9 673 654.3V648.9L663.8 649.5C653 650.3 651.4 649.6 650 643.5C649.5 641.3 649 631.3 649 621.2V603H660.5H672V597.5V592.1L660.8 591.8L649.5 591.5L649.2 581.2L648.9 571H643.1H637.2L636.8 580.1Z" fill="black"/>
<path d="M108.7 592C90.8996 596.5 79.8996 613.4 82.8996 632C85.4996 648 96.0996 658.2 112.7 660.9C129.7 663.6 145.2 656.4 152 642.7C161.1 624.3 153.8 602.6 135.8 594.5C130.7 592.2 127.8 591.6 121 591.4C116.3 591.2 110.8 591.5 108.7 592ZM132.3 606.6C142.5 613.7 145.1 629.9 137.9 640.5C129.6 652.6 108.6 652.4 100.3 640.2C96.9996 635.2 95.5996 627.1 96.9996 620.7C98.5996 613.2 102.2 608.3 108.3 605.4C112.7 603.3 114.6 603 120.8 603.3C126.9 603.6 128.8 604.2 132.3 606.6Z" fill="black"/>
<path d="M181.6 592.4C176.4 594.3 173 596.9 170.2 601.1C168.2 604 167.9 605.5 168.2 611C168.8 622.5 174.2 627.1 193.1 632.1C205.4 635.3 208 636.9 208 641.1C208 647.5 204.4 650 194.9 650C187.2 650 181.6 647.5 176.5 641.9L172.9 637.9L168.5 641.6C166 643.6 164 645.8 164 646.5C164 648.4 171.3 654.6 176.9 657.4C189.9 664 209.9 662.3 217.7 653.8C220.7 650.6 222 646.7 222 640.7C222 630.4 216.6 625.7 199.1 621C192.9 619.3 186.9 617.5 185.9 616.9C181.7 614.7 180.6 607.6 184 604.5C186.5 602.2 195.1 601.4 200.7 602.9C203 603.5 207 605.6 209.5 607.5C212 609.4 214.4 611 214.8 610.9C215.2 610.9 217.1 609 219 606.8L222.5 602.7L218.6 599.4C212.7 594.3 205 591.8 194.5 591.3C188.3 591.1 184.3 591.4 181.6 592.4Z" fill="black"/>
<path d="M266.5 591.6C262 592.7 258.2 594.5 253.8 597.7L249 601V596.5V592H242.5H236V637V682H243H250V667.5C250 659.5 250.3 653 250.6 653C250.9 653 252.6 654.1 254.3 655.4C261.5 660.8 276.1 662.7 286.6 659.5C303.9 654.3 313.1 634 307.1 614.2C304.4 605.3 297.7 597.4 289.8 594C284.6 591.7 271.5 590.4 266.5 591.6ZM281.8 604.6C290.9 608.3 295.7 617.2 294.7 628.6C293.8 640 287.8 646.9 277.3 648.9C267.5 650.8 258.2 646.7 253.3 638.3C250.9 634.2 250.5 632.4 250.5 625.9C250.5 619.2 250.9 617.8 253.5 613.5C259.1 604.4 271.9 600.4 281.8 604.6Z" fill="black"/>
<path d="M342.5 592.3C333.8 595.2 326.7 600.8 323.2 607.5C318.7 616.2 317.8 629 321 639.2C325.8 654.8 341.5 663.7 359.1 660.9C366.3 659.7 370.3 657.9 374.6 653.8L377.8 650.8L378.5 655.9L379.2 661H385.1H391V626.5V592H385.1C378.8 592 378 592.7 378 598.8V601.1L375.3 598.5C370.1 593.7 364.2 591.6 355 591.3C349.9 591.1 344.9 591.5 342.5 592.3ZM363.2 604.2C372.3 606.9 378.8 617.9 377.7 628.5C376.4 641.3 367.9 649.3 355.5 649.2C342.8 649.2 334.6 641.9 333.3 629.5C331.4 611 345.6 598.9 363.2 604.2Z" fill="black"/>
<path d="M488.5 592.9C486.2 593.9 483.2 596.1 481.8 597.9L479.1 601L478.4 596.5L477.8 592H471.9H466L466.2 626.2L466.5 660.5L473.3 660.8L480 661.1V643.7C480 624.8 480.9 618 484.2 611.2C487.2 604.9 491.1 602.8 498.3 603.3L504 603.8V598C504 592.9 503.8 592.2 501.8 591.6C497.7 590.5 492.6 591 488.5 592.9Z" fill="black"/>
<path d="M566.9 592.8C552.9 597.5 544.7 607.8 543.3 622.3C541.2 644.8 556.6 661.2 580 661.2C593.2 661.2 603.4 656.5 609.9 647.5C614.6 641 616.2 635.6 616.2 626.5C616.2 611.8 609.8 601 597.4 594.9C591.9 592.2 589.7 591.7 581.7 591.3C574.7 591.1 571.2 591.4 566.9 592.8ZM592.6 606.5C599.4 610.8 602.5 616.9 602.4 626.4C602.4 640.7 594 649.3 580 649.3C572.7 649.3 568.4 647.6 563.3 642.7C554.3 634.2 555.4 615.1 565.4 607.5C570.1 603.9 573.4 603 581.1 603.3C586.5 603.5 588.7 604.1 592.6 606.5Z" fill="black"/>
<path d="M515.2 626.2L515.5 660.5L522.3 660.8L529 661.1V626.5V592H522H515L515.2 626.2Z" fill="black"/>
<path d="M433.921 211.387C433.921 167.662 421.922 124.853 399.32 87.3867C391.413 74.2797 381.572 58.3047 368.921 49.3867L369.921 51.3867C345.728 41.3117 321.767 26.8397 298.921 13.9627C291.274 9.65273 276.923 -1.59628 267.921 0.190723C248.335 4.07872 231.868 21.7807 226.36 40.3867C222.554 53.2437 223.921 67.1317 223.921 80.3867V147.387V184.387C223.921 189.533 222.724 196.556 225.378 201.202C229.791 208.928 244.396 213.941 251.921 218.237C274.639 231.204 297.777 247.845 321.921 257.857C335.974 263.684 334.921 247.106 334.921 238.387C334.921 219.671 333.921 201.11 333.921 182.387C333.921 176.133 332.491 166.661 339.936 163.89C346.785 161.341 360.076 171.987 365.921 175.247C381.851 184.134 397.767 193.17 413.921 201.642C420.341 205.01 426.74 210.002 433.921 211.387ZM313.921 5.38672L314.921 6.38672L313.921 5.38672ZM314.921 6.38672V7.38672L319.921 9.38672V8.38672L314.921 6.38672Z" fill="#B4B4B4"/>
<path d="M327.921 13.3867L328.921 14.3867L327.921 13.3867ZM328.921 14.3867V15.3867C378.769 43.7827 413.735 100.896 427.294 155.387C431.521 172.373 437.049 195.05 432.921 212.387C438.002 214.759 445.123 221.34 450.921 220.675C457.837 219.881 465.963 212.811 471.921 209.387C487.231 200.588 502.57 191.834 517.921 183.106C523.263 180.069 535.661 175.773 538.318 170.008C542.086 161.83 535.5 146.515 531.609 139.387C519.731 117.632 496.503 107.617 475.921 95.9627C443.01 77.3267 409.945 58.9607 376.921 40.5267C361.701 32.0307 345.536 19.6447 328.921 14.3867Z" fill="#8C1812"/>
<path d="M377.921 58.3867L378.921 59.3867L377.921 58.3867ZM385.921 68.3867L386.921 69.3867L385.921 68.3867ZM388.921 72.3867L389.921 73.3867L388.921 72.3867ZM398.921 87.3867L399.921 88.3867L398.921 87.3867ZM401.921 92.3867L402.921 93.3867L401.921 92.3867ZM407.921 103.387L408.921 104.387L407.921 103.387ZM408.921 105.387L409.921 106.387L408.921 105.387ZM413.921 116.387L414.921 117.387L413.921 116.387ZM416.921 123.387L417.921 124.387L416.921 123.387ZM419.921 131.387L420.921 132.387L419.921 131.387ZM420.921 134.387L421.921 135.387L420.921 134.387ZM421.921 137.387L422.921 138.387L421.921 137.387ZM422.921 140.387L423.921 141.387L422.921 140.387ZM424.921 147.387L425.921 148.387L424.921 147.387ZM427.921 159.387L428.921 160.387L427.921 159.387ZM428.921 164.387L429.921 165.387L428.921 164.387ZM429.921 169.387L430.921 170.387L429.921 169.387ZM347.921 278.387V279.387L354.921 276.387V380.387C354.921 391.269 358.996 409.769 348.921 416.387V417.387C366.971 409.609 383.763 397.825 400.921 388.247C453.61 358.837 501.458 328.1 524.717 269.387C537.408 237.353 538.921 205.354 538.921 171.387C515.24 178.881 491.499 197.595 469.921 209.966C429.502 233.138 388.086 254.7 347.921 278.387ZM431.921 183.387L432.921 184.387L431.921 183.387ZM433.254 195.054L433.588 195.72L433.254 195.054Z" fill="#C31B13"/>
<path d="M223.921 487.387C235.498 484.045 246.477 475.606 256.921 469.668C278.573 457.358 300.313 445.196 321.921 432.808C329.649 428.378 337.243 423.754 344.921 419.248C348.023 417.428 352.796 415.71 354.318 412.177C358.616 402.199 354.921 383.262 354.921 372.387V276.387C340.083 280.67 325.318 291.734 311.921 299.386C275.577 320.145 242.599 340.829 229.642 383.387C219.609 416.34 223.921 453.308 223.921 487.387Z" fill="#8C1812"/>
<path d="M340.921 421.387L341.921 422.387L340.921 421.387ZM338.921 422.387L339.921 423.387L338.921 422.387ZM223.921 488.387C249.569 505.359 277.248 519.927 303.921 535.237C309.378 538.369 325.37 551.732 331.179 544.953C336.335 538.935 332.921 520.036 332.921 512.387V459.387C332.921 446.049 331.854 435.137 338.921 423.387C321.378 428.939 303.923 442.404 287.921 451.537C267.413 463.244 242.061 473.342 223.921 488.387Z" fill="#B4B4B4"/>
</svg>
