<svg width="728" height="343" viewBox="0 0 728 343" fill="none" xmlns="http://www.w3.org/2000/svg">
<path d="M468 0V1H494L468 0Z" fill="#EE9F9F"/>
<path d="M428 4.99999V5.99999C450.763 11.422 474.229 13.704 497 19.735C570.296 39.147 642.548 73.59 686 138C691.34 132.371 691.421 122.365 692.424 115C696.74 83.289 680.14 54.197 654 38.065C605.4 8.07099 543.967 -0.207021 487.999 0.985979C467.781 1.41698 447.944 1.13199 428 4.99999Z" fill="#F9A42A"/>
<path d="M495 0L496 1L495 0ZM497 0V1H512L497 0ZM453 1V2H456L453 1ZM524 1V2H528L524 1ZM443 2V3H448L443 2ZM533 2V3H538L533 2ZM434.667 3.33299L435.333 3.66701L434.667 3.33299ZM545.667 3.33299L546.333 3.66701L545.667 3.33299ZM242 4L243 5L242 4ZM423 5V6L430 7V6H428V5H431H423ZM551 4V5H554L551 4ZM216 5V6H220L216 5Z" fill="#EE9F9F"/>
<path d="M40 203H41C68.46 133.214 153.168 98.127 220 78.445C240.871 72.299 264.253 63.539 286 62L284 57H286L284 54L290 53V51L283 50C286.162 39.304 278.338 21.794 285 13V12V11L282 8.00002H276L277 6.00002C259.647 6.00002 242.382 4.58902 225 5.01502C181.099 6.09002 134.768 14.907 95 33.975C80.434 40.959 63.565 49.326 52.3 61.171C40.945 73.11 32.903 91.316 28.427 107C24.244 121.658 23.643 135.839 24.015 151C24.474 169.763 32.977 186.13 40 203Z" fill="#F9A42A"/>
<path d="M257 5V6H261L257 5ZM262 5V6H275L262 5ZM558 5V6H561L558 5ZM203 6V7H207L203 6ZM276 7V8H282L285 11V12V13C278.495 18.685 285.079 41.27 283 50L290 51V53L284 54L286 57H284L286 62L269 65V66C273.398 65.705 291.337 64.438 292 60L301 59L299 56L305 55V53L294 49L299 51L306 50V49H300V17C302.923 17.735 304.45 17.685 306 15L296 13V12L303 11C297.099 6.007 283.185 4.881 276 7ZM563 6V7H566L563 6ZM193 7L194 8L193 7ZM435 7V8H439L435 7ZM570.667 7.33299L571.333 7.66701L570.667 7.33299ZM185.667 8.33299L186.333 8.66701L185.667 8.33299ZM441.667 8.33299L442.333 8.66701L441.667 8.33299ZM574.667 8.33299L575.333 8.66701L574.667 8.33299ZM448 9V10H451L448 9ZM580 9L581 10L580 9ZM453.667 10.333L454.333 10.667L453.667 10.333ZM583.667 10.333L584.333 10.667L583.667 10.333ZM459.667 11.333L460.333 11.667L459.667 11.333ZM588 11L589 12L588 11ZM161 12L162 13L161 12ZM464.667 12.333L465.333 12.667L464.667 12.333ZM591.667 12.333L592.333 12.667L591.667 12.333ZM469 13V14H472L469 13ZM595 13L596 14L595 13ZM152 14L153 15L152 14ZM474 14L475 15L474 14ZM598.667 14.333L599.333 14.667L598.667 14.333ZM478.667 15.333L479.333 15.667L478.667 15.333ZM602 15L603 16L602 15ZM144 16L145 17L144 16ZM605 16L606 17L605 16ZM487.667 17.333L488.333 17.667L487.667 17.333ZM608 17L609 18L608 17ZM136.667 18.333L137.333 18.667L136.667 18.333ZM491 18L492 19L491 18ZM611 18L612 19L611 18ZM495.667 19.333L496.333 19.667L495.667 19.333ZM614 19L615 20L614 19ZM130 20L131 21L130 20ZM499 20L500 21L499 20ZM616.667 20.333L617.333 20.667L616.667 20.333ZM126 21L127 22L126 21ZM502.667 21.333L503.333 21.667L502.667 21.333ZM123 22L124 23L123 22ZM506 22L507 23L506 22ZM621.667 22.333L622.333 22.667L621.667 22.333ZM120 23L121 24L120 23ZM509.667 23.333L510.333 23.667L509.667 23.333ZM624 23L625 24L624 23ZM117.667 24.333L118.333 24.667L117.667 24.333ZM513 24L514 25L513 24ZM626 24L627 25L626 24ZM516.667 25.333L517.333 25.667L516.667 25.333ZM629 25L630 26L629 25ZM112 26L113 27L112 26ZM519 26L520 27L519 26ZM631 26L632 27L631 26ZM109 27L110 28L109 27ZM523 27L524 28L523 27ZM633 27L634 28L633 27ZM107 28L108 29L107 28ZM526 28L527 29L526 28ZM635 28L636 29L635 28ZM529 29L530 30L529 29ZM102 30L103 31L102 30ZM532 30L533 31L532 30ZM639 30L640 31L639 30ZM535 31L536 32L535 31ZM98 32L99 33L98 32ZM537.667 32.333L538.333 32.667L537.667 32.333ZM643 32L644 33L643 32ZM540.667 33.333L541.333 33.667L540.667 33.333ZM645 33L646 34L645 33ZM94 34L95 35L94 34ZM543 34L544 35L543 34ZM647 34L648 35L647 34ZM91 35L92 36L91 35ZM546 35L547 36L546 35ZM649 35L650 36L649 35ZM89 36L90 37L89 36ZM548 36L549 37L548 36ZM87 37L88 38L87 37ZM551 37L552 38L551 37ZM86 38L87 39L86 38ZM553 38L554 39L553 38ZM654 38L655 39L654 38ZM556 39L557 40L556 39ZM82 40L83 41L82 40ZM558 40L559 41L558 40ZM657 40L658 41L657 40ZM80 41L81 42L80 41ZM561 41L562 42L561 41ZM78 42L79 43L78 42ZM563 42L564 43L563 42ZM660 42L661 43L660 42ZM566 43L567 44L566 43ZM75 44L76 45L75 44ZM568 44L569 45L568 44ZM663 44L664 45L663 44ZM73 45L74 46L73 45ZM570 45L571 46L570 45ZM572 46L573 47L572 46ZM666 46L667 47L666 46ZM70 47L71 48L70 47ZM574.667 47.333L575.333 47.667L574.667 47.333ZM667 47L668 48L667 47ZM69 48L70 49L69 48ZM67 49L68 50L67 49ZM579 49L580 50L579 49ZM670 49L671 50L670 49ZM66 50L67 51L66 50Z" fill="#EE9F9F"/>
<path d="M292 50L293 51L292 50Z" fill="#FFFEFD"/>
<path d="M581 50L582 51L581 50ZM671 50L672 51L671 50ZM64 51L65 52L64 51ZM583 51L584 52L583 51ZM63 52L64 53L63 52ZM585 52L586 53L585 52ZM307 53L308 54L307 53ZM587 53L588 54L587 53ZM675 53L676 54L675 53ZM60 54L61 55L60 54ZM589 54L590 55L589 54ZM676 54L678 56L676 54ZM591 55L592 56L591 55Z" fill="#EE9F9F"/>
<path d="M676 55L677 56L676 55Z" fill="#B72225"/>
<path d="M296.667 56.333L297.333 56.667L296.667 56.333Z" fill="#FFFEFD"/>
<path d="M677 56L686 75H687L682 62C737.713 117.713 741.813 213.187 685 270L693 254H692L684 272L677 280C729.06 243.328 738.109 163.284 715.799 108C708.763 90.563 694.747 64.276 677 56Z" fill="#B72225"/>
<path d="M56 57L57 58L56 57Z" fill="#EE9F9F"/>
<path d="M291 57L290 59L291 57Z" fill="#FFFEFD"/>
<path d="M302 58V59L307 58H302ZM595 57L596 58L595 57ZM680 57L681 58L680 57ZM55 58L56 59L55 58Z" fill="#EE9F9F"/>
<path d="M294 60L297 59L294 60Z" fill="#FFFEFD"/>
<path d="M596 58L597 59L596 58ZM681 58L682 59L681 58ZM304 59V60H307L304 59ZM598 59L599 60L598 59ZM682 59L683 60L682 59ZM600 60L601 61L600 60ZM683 60L684 61L683 60ZM51 61L52 62L51 61ZM602 61L603 62L602 61Z" fill="#EE9F9F"/>
<path d="M681 61L682 62L681 61Z" fill="#C6191E"/>
<path d="M684 61L685 62L684 61ZM50 62L49 64L50 62ZM603 62L604 63L603 62Z" fill="#EE9F9F"/>
<path d="M682 62C685.6 73.604 692.259 84.545 692.957 97C693.412 105.121 693.828 113.982 692.386 122C691.425 127.341 688.229 133.591 688.6 139C689 144.835 693.958 151.594 696.189 157C700.463 167.357 703.266 177.879 704.711 189C708.755 220.136 695.132 242.327 685 270C699.879 259.519 710.029 239.718 716.249 223C730.85 183.755 729.371 137.67 710.706 100C703.92 86.305 694.689 70.938 682 62Z" fill="#C6191E"/>
<path d="M685 62L686 63L685 62Z" fill="#EE9F9F"/>
<path d="M50 63L51 64L50 63Z" fill="#B72225"/>
<path d="M605 63L606 64L605 63ZM686 63L687 64L686 63Z" fill="#EE9F9F"/>
<path d="M52 288L48 281C42.871 279.562 38.923 274.012 35.615 270C27.217 259.815 20.174 249.054 14.785 236.985C-3.00601 197.134 -3.28201 146.005 17.389 107C22.831 96.731 29.582 86.722 37.289 78.005C41.68 73.038 46.693 69.913 50 64C34.458 71.248 22.619 93.246 15.247 108C-6.11901 150.759 -3.65301 204.885 17.756 247C25.323 261.884 37.306 279.506 52 288Z" fill="#B72225"/>
<path d="M607 64L608 65L607 64ZM687 64L688 65L687 64ZM688 65L689 66L688 65ZM265 66V67H269L265 66ZM610 66L611 67L610 66ZM689 66L690 67L689 66ZM261 67V68H264L261 67ZM612 67L613 68L612 67ZM690 67L691 68L690 67ZM43 68L44 69L43 68ZM256 68V69H260L256 68ZM613 68L614 69L613 68ZM252 69V70H255L252 69ZM615 69L616 70L615 69ZM41 70L42 71L41 70ZM248 70V71H251L248 70ZM692 70L693 71L692 70ZM40 71L41 72L40 71ZM244 71V72H247L244 71ZM618 71L619 72L618 71ZM693 71L694 72L693 71Z" fill="#EE9F9F"/>
<path d="M46.9998 282C40.3728 265.429 33.5668 250.334 34.0148 232C34.2448 222.56 40.7828 211.109 39.0918 202C36.8688 190.026 28.3278 178.338 25.4998 166C17.9458 133.039 26.6178 100.293 43.9998 72C29.1168 78.96 17.8908 103.464 12.0138 118C-3.93524 157.446 -1.17324 205.346 17.3798 243.285C24.2488 257.333 34.0538 272.881 46.9998 282Z" fill="#C6191E"/>
<path d="M241.667 72.333L242.333 72.667L241.667 72.333ZM694 72L695 73L694 72Z" fill="#EE9F9F"/>
<path d="M43 73L44 74L43 73Z" fill="#B72225"/>
<path d="M237 73L238 74L237 73ZM621 73L622 74L621 73ZM695 73L696 74L695 73Z" fill="#EE9F9F"/>
<path d="M42 74L41 77L42 74Z" fill="#B72225"/>
<path d="M234 74L235 75L234 74ZM229.667 75.333L230.333 75.667L229.667 75.333ZM624 75L625 76L624 75ZM36 76L37 77L36 76ZM226 76L227 77L226 76Z" fill="#EE9F9F"/>
<path d="M687 76L688 81H689L687 76Z" fill="#B72225"/>
<path d="M697 76L698 77L697 76ZM35 77L36 78L35 77Z" fill="#EE9F9F"/>
<path d="M40 77L39 81H40V77Z" fill="#B72225"/>
<path d="M222.667 77.333L223.333 77.667L222.667 77.333ZM627 77L628 78L627 77ZM698 77L699 78L698 77ZM34 78L35 79L34 78ZM699 78L700 79L699 78ZM33 79L34 80L33 79ZM215.667 79.333L216.333 79.667L215.667 79.333ZM630 79L631 80L630 79ZM32 80L33 81L32 80ZM213 80L214 81L213 80ZM631 80L632 81L631 80ZM700 80L701 81L700 80Z" fill="#EE9F9F"/>
<path d="M38.333 81.667L38.667 82.333L38.333 81.667Z" fill="#B72225"/>
<path d="M209 81L210 82L209 81Z" fill="#EE9F9F"/>
<path d="M689 81L690 89H691L689 81Z" fill="#B72225"/>
<path d="M701 81L702 82L701 81ZM30 83L31 84L30 83Z" fill="#EE9F9F"/>
<path d="M37.333 83.667L37.667 84.333L37.333 83.667Z" fill="#B72225"/>
<path d="M203 83L204 84L203 83ZM635 83L636 84L635 83ZM702 83L703 84L702 83ZM29 84L30 85L29 84ZM200 84L201 85L200 84ZM703 84L704 85L703 84Z" fill="#EE9F9F"/>
<path d="M36 85L35 89H36V85Z" fill="#B72225"/>
<path d="M197 85L198 86L197 85ZM638 85L639 86L638 85ZM639 86L640 87L639 86ZM704 86L705 87L704 86ZM27 87L28 88L27 87ZM191 87L192 88L191 87ZM640 87L641 88L640 87ZM705 87L706 88L705 87ZM26 88L27 89L26 88Z" fill="#EE9F9F"/>
<path d="M34.333 89.667L34.667 90.333L34.333 89.667Z" fill="#B72225"/>
<path d="M186 89L187 90L186 89ZM643 89L644 90L643 89ZM706 89L707 90L706 89ZM25 90L26 91L25 90ZM644 90L645 91L644 90Z" fill="#EE9F9F"/>
<path d="M691 90L692 102H693L691 90Z" fill="#B72225"/>
<path d="M24 91L25 92L24 91Z" fill="#EE9F9F"/>
<path d="M33.333 91.667L33.667 92.333L33.333 91.667Z" fill="#B72225"/>
<path d="M645 91L646 92L645 91ZM646 92L647 93L646 92ZM708 92L709 93L708 92ZM23 93L24 94L23 93Z" fill="#EE9F9F"/>
<path d="M32 93L31 98H32V93Z" fill="#B72225"/>
<path d="M175 93L176 94L175 93ZM647 93L648 94L647 93ZM22 94L23 95L22 94ZM709 94L710 95L709 94ZM650 95L651 96L650 95ZM21 96L22 97L21 96ZM651 96L652 97L651 96ZM710 96L711 97L710 96ZM20 97L21 98L20 97ZM652 97L653 98L652 97ZM653 98L654 99L653 98ZM711 98L712 99L711 98ZM19 99L20 100L19 99Z" fill="#EE9F9F"/>
<path d="M30.333 99.667L30.667 100.333L30.333 99.667Z" fill="#B72225"/>
<path d="M654 99L655 100L654 99ZM655 100L656 101L655 100ZM712 100L713 101L712 100ZM18 101L19 102L18 101Z" fill="#EE9F9F"/>
<path d="M29 101V104H30L29 101Z" fill="#B72225"/>
<path d="M156 101L157 102L156 101ZM656 101L657 102L656 101ZM657 102L658 103L657 102ZM713 102L714 103L713 102ZM17 103L18 104L17 103ZM152 103L153 104L152 103ZM658 103L659 104L658 103ZM659 104L660 105L659 104ZM714 104L715 105L714 104ZM16 105L17 106L16 105Z" fill="#EE9F9F"/>
<path d="M28.333 105.667L28.667 106.333L28.333 105.667Z" fill="#B72225"/>
<path d="M660 105L661 106L660 105ZM15.333 106.667L15.667 107.333L15.333 106.667ZM661 106L662 107L661 106Z" fill="#EE9F9F"/>
<path d="M693 106L694 107L693 106Z" fill="#B72225"/>
<path d="M715.333 106.667L715.667 107.333L715.333 106.667ZM143 107L144 108L143 107ZM662 107L663 108L662 107Z" fill="#EE9F9F"/>
<path d="M27 108V111H28L27 108Z" fill="#B72225"/>
<path d="M663 108L664 109L663 108ZM716.333 108.667L716.667 109.333L716.333 108.667ZM14 109L15 110L14 109ZM664 109L665 110L664 109ZM665 110L666 111L665 110ZM13 111L14 112L13 111ZM135 111L136 112L135 111Z" fill="#EE9F9F"/>
<path d="M565 111C569.549 119.272 566.552 128.095 565.08 137C562.277 153.957 559.345 170.975 557 188C555.861 196.268 555.98 206.484 549 212C555.199 214.601 567.86 213.957 571.911 207.811C575.589 202.229 575.568 192.495 576.576 186C579.109 169.666 581.53 153.305 584.247 137C585.24 131.042 589.474 119.514 585.397 114.228C581.336 108.965 570.838 111 565 111Z" fill="#B72225"/>
<path d="M582 111L583 112L582 111ZM666 111L667 112L666 111ZM717.333 111.667L717.667 112.333L717.333 111.667Z" fill="#EE9F9F"/>
<path d="M26 112L25 119H26V112Z" fill="#B72225"/>
<path d="M565 112L566 113L565 112Z" fill="#EE9F9F"/>
<path d="M567 112V113C572.263 118.78 567.22 130.963 566.208 138C562.821 161.561 561.984 189.946 553 212C558.469 211.999 565.269 212.48 569.566 208.351C573.731 204.35 573.518 195.34 574.464 190C577.332 173.802 580.382 157.325 582.1 141C582.766 134.678 588.161 121.999 584.958 116.189C581.74 110.355 572.5 112 567 112Z" fill="#C6191E"/>
<path d="M584 112L585 113L584 112ZM12 113L13 114L12 113ZM566 113L567 114L566 113ZM585 113L586 114L585 113Z" fill="#EE9F9F"/>
<path d="M693 113L692 122H693V113Z" fill="#B72225"/>
<path d="M130 114L131 115L130 114ZM348 114V115H355L348 114ZM567.333 114.667L567.667 115.333L567.333 114.667ZM586 114L587 115L586 114ZM718 114L719 115L718 114ZM11 115L12 116L11 115ZM128 115L129 116L128 115Z" fill="#EE9F9F"/>
<path d="M339 115C343.573 124.109 340.033 134.342 338.414 144C334.658 166.396 335.451 197.838 323 217C329.083 217 337.422 217.857 342.892 214.683C347.904 211.775 348.078 205.092 348.92 200C350.673 189.393 349.828 170.137 355.938 161.225C359.94 155.388 370.64 155.792 373.972 162.044C376.296 166.403 374.2 172.348 374 177H375C376.123 172.282 377.423 164.533 374.972 160.059C372.024 154.675 359.681 154.158 355.589 158.514C350.104 164.352 348.346 186.036 348.018 194C347.783 199.693 347.759 208.536 342.853 212.436C339.052 215.457 332.637 215.413 328 216C332.145 191.52 337.792 166.796 340.09 142C340.878 133.491 345.184 124.362 342 116C346.819 116 353.897 114.741 357.681 118.434C363.122 123.743 356.001 143.564 356 151C366.655 149.617 380.893 143.425 389.721 153.133C398.391 162.666 389.897 184.789 388.205 196C387.451 201.001 387.75 207.542 383.697 211.276C379.579 215.07 373.149 214 368 214C372.037 202.927 373.999 189.753 374 178H373C372.466 190.447 370.712 205.469 364 216C370.333 216 379.41 217.608 384.606 213.146C390.726 207.89 390.267 193.462 391.424 186C392.716 177.674 396.391 167.362 394.471 159C390.467 141.566 369.212 146.028 357 150C357.594 142.483 365.153 122.346 358.566 116.742C354.279 113.095 344.289 115 339 115Z" fill="#B72225"/>
<path d="M357 115L358 116L357 115ZM669 115L670 116L669 115ZM339 116L340 117L339 116Z" fill="#EE9F9F"/>
<path d="M342 116C344.664 127.432 340.216 140.644 338.324 152C334.807 173.108 330.11 194.808 328 216C332.653 215.633 340.026 215.682 343.686 212.436C347.901 208.698 347.805 200.152 348.018 195C348.364 186.61 350.184 165.798 355.589 159.279C360.971 152.786 374.516 155.423 375.852 164C378.164 178.84 371.804 199.622 368 214C373.106 214 380.545 215.376 384.436 211.276C387.849 207.68 387.519 201.549 388.205 197C389.916 185.666 399.007 161.68 389.721 152.275C381.243 143.686 365.932 149.046 356 151C356.005 143.722 363.666 122.68 357.682 117.742C353.922 114.64 346.549 116 342 116Z" fill="#C6191E"/>
<path d="M422.667 116.333L423.333 116.667L422.667 116.333Z" fill="#EE9F9F"/>
<path d="M424 116.653C410.69 117.949 409.777 139.254 424 138.485C437.724 137.744 438.969 115.195 424 116.653Z" fill="#B72225"/>
<path d="M426 116V117H429L426 116ZM587 116V120H588L587 116ZM670 116L671 117L670 116ZM719.333 116.667L719.667 117.333L719.333 116.667ZM340 117L341 118L340 117ZM419 117L420 118L419 117ZM430 117L431 118L430 117ZM671 117L672 118L671 117ZM10 118L11 119L10 118ZM360 118L361 119L360 118ZM418 118L419 119L418 118Z" fill="#EE9F9F"/>
<path d="M421.018 118.742C409.939 123.119 415.55 141.174 426.985 136.391C438.683 131.499 433.335 113.877 421.018 118.742Z" fill="#C6191E"/>
<path d="M672 118L673 119L672 118Z" fill="#EE9F9F"/>
<path d="M24 119L23 155H24V119Z" fill="#B72225"/>
<path d="M121 119L122 120L121 119ZM341 119V125H342L341 119ZM567 119V122H568L567 119ZM720.333 119.667L720.667 120.333L720.333 119.667ZM9.33301 120.667L9.66701 121.333L9.33301 120.667ZM361 120V123H362L361 120ZM434 121L435 122L434 121ZM674 121L675 122L674 121ZM116 122L117 123L116 122ZM414 122L415 123L414 122ZM675 122L676 123L675 122Z" fill="#EE9F9F"/>
<path d="M691 122V127H692L691 122Z" fill="#B72225"/>
<path d="M8.33301 123.667L8.66701 124.333L8.33301 123.667ZM114 123L115 124L114 123ZM435 123V130H436L435 123ZM586 123V126H587L586 123ZM676 123L677 124L676 123ZM721.333 123.667L721.667 124.333L721.333 123.667ZM113 124L114 125L113 124ZM149 124V125H153L149 124Z" fill="#EE9F9F"/>
<path d="M114 149C122.516 143.697 129.886 137.418 140 135.286C175.048 127.899 186.54 160.847 175.536 189C171.79 198.584 161.431 213.372 149.034 210.643C141.155 208.908 146.867 192.316 147.753 187C148.942 179.863 155.937 157.874 149.682 152.603C145.317 148.925 134.412 151 129 151C135.588 164.125 127.117 185.866 125.13 200C124.452 204.825 122.747 211.194 124.742 215.895C127.57 222.559 137.225 221 143 221C160.257 221 179.283 217.168 189.779 201.999C202.184 184.074 205.21 154.148 189.815 137.015C169.043 113.899 128.147 123.619 114 149Z" fill="#B72225"/>
<path d="M166 124V125H169L166 124ZM413.333 124.667L413.667 125.333L413.333 124.667ZM111 125L112 126L111 125ZM145.667 125.333L146.333 125.667L145.667 125.333ZM171.667 125.333L172.333 125.667L171.667 125.333ZM566 125V129H567L566 125ZM677 125L678 126L677 125ZM7.33301 126.667L7.66701 127.333L7.33301 126.667ZM142 126L143 127L142 126Z" fill="#EE9F9F"/>
<path d="M122 141C131.658 136.979 140.736 132.361 151.576 132.888C182.371 134.386 184.936 165.748 176.823 189C172.963 200.06 162.452 213.839 149.015 211.848C139.801 210.483 145.126 196.893 145.82 190.985C146.88 181.961 149.168 173.044 149.999 164C150.31 160.626 151.668 156.163 148.678 153.603C144.947 150.409 136.6 152 132 152C136.259 171.457 124.134 192.292 125.383 211.996C125.965 221.163 136.44 220.003 143 220C159.369 219.994 177.781 215.872 188.029 201.96C200.079 185.603 203.615 156.903 190.624 140.004C175.411 120.213 137.069 120.585 122 141Z" fill="#C6191E"/>
<path d="M174 126L175 127L174 126ZM360 126V130H361L360 126ZM678 126L679 127L678 126ZM722 126V129H723L722 126ZM108 127L109 128L108 127ZM139 127L140 128L139 127ZM176.667 127.333L177.333 127.667L176.667 127.333Z" fill="#EE9F9F"/>
<path d="M690 127V131H691L690 127Z" fill="#B72225"/>
<path d="M136.667 128.333L137.333 128.667L136.667 128.333ZM179 128L180 129L179 128ZM340 128V132H341L340 128ZM6.33301 129.667L6.66701 130.333L6.33301 129.667ZM105 129L106 130L105 129ZM134 129L135 130L134 129ZM180 129L181 130L180 129ZM585 129V132H586L585 129ZM680 129L681 130L680 129ZM132 130L133 131L132 130ZM182 130L183 131L182 130ZM102 131L103 132L102 131ZM131 131L132 132L131 131ZM183 131L184 132L183 131ZM413.333 131.667L413.667 132.333L413.333 131.667ZM434 131L435 132L434 131ZM565 131V135H566L565 131Z" fill="#EE9F9F"/>
<path d="M689 131V134H690L689 131Z" fill="#B72225"/>
<path d="M723.333 131.667L723.667 132.333L723.333 131.667ZM5 132V135H6L5 132ZM101 132L102 133L101 132ZM129 132L130 133L129 132ZM185 132L186 133L185 132ZM682 132L683 133L682 132ZM99 133L100 134L99 133ZM127 133L128 134L127 133ZM186 133L187 134L186 133ZM359 133V136H360L359 133ZM414 133L415 134L414 133ZM433 133L434 134L433 133ZM98 134L99 135L98 134ZM126 134L127 135L126 134ZM144 134V135H155L144 134ZM187 134L188 135L187 134ZM339 134V138H340L339 134ZM432 134L433 135L432 134ZM125 135L126 136L125 135ZM138 135V136H141L138 135ZM158 135V136H161L158 135Z" fill="#EE9F9F"/>
<path d="M180 135L179 137H181L180 135Z" fill="#B72225"/>
<path d="M188 135L189 136L188 135ZM415 135L416 136L415 135ZM431 135L432 136L431 135ZM584 135V139H585L584 135ZM684 135L685 136L684 135Z" fill="#EE9F9F"/>
<path d="M688 135L692 150H693L688 135Z" fill="#B72225"/>
<path d="M724 135V138H725L724 135ZM4.00001 136V139H5.00001L4.00001 136ZM95 136L96 137L95 136ZM135.667 136.333L136.333 136.667L135.667 136.333ZM162.667 136.333L163.333 136.667L162.667 136.333ZM189 136L190 137L189 136ZM416 136L417 137L416 136ZM430 136L431 137L430 136ZM94 137L95 138L94 137ZM122 137L123 138L122 137ZM132.667 137.333L133.333 137.667L132.667 137.333ZM165 137L166 138L165 137ZM190 137L191 138L190 137ZM418 137L419 138L418 137ZM428 137L429 138L428 137ZM685 137L686 138L685 137ZM121 138L122 139L121 138ZM130 138L131 139L130 138ZM167 138L168 139L167 138ZM420.667 138.333L421.333 138.667L420.667 138.333ZM425.667 138.333L426.333 138.667L425.667 138.333ZM564 138V141H565L564 138ZM686 138L685 143H686V138ZM91 139L92 140L91 139ZM120 139L121 140L120 139ZM128 139L129 140L128 139ZM358 139V143H359L358 139ZM90 140L91 141L90 140ZM119 140L120 141L119 140ZM126 140L127 141L126 140ZM170 140L171 141L170 140ZM192 140L193 141L192 140ZM3.33301 141.667L3.66701 142.333L3.33301 141.667ZM89 141L90 142L89 141ZM124 141L125 142L124 141ZM171 141L172 142L171 141ZM193 141L194 142L193 141ZM338 141V144H339L338 141ZM583 141V145H584L583 141Z" fill="#EE9F9F"/>
<path d="M687 141C679.23 153.215 673.693 166.04 663.829 177C623.37 221.958 565.058 247.494 508 264.294C487.827 270.234 464.082 279.986 443 280L447 286L441 287C445.165 300.348 445 315.071 445 329H440L442 334L445 333C445.998 337.659 461.349 336.957 466 337C488.133 337.205 509.936 338.287 532 335.222C580.014 328.554 641.53 318.281 676.583 280.611C695.173 260.634 704 228.555 704 202C704 183.927 701.071 154.197 687 141Z" fill="#F9A42A"/>
<path d="M725 141V145H726L725 141ZM123 142L124 143L123 142ZM172 142L173 143L172 142ZM615 142L616 143L615 142ZM86 143L87 144L86 143ZM117 143L118 144L117 143ZM121 143L122 144L121 143ZM173 143L174 144L173 143ZM194 143L195 144L194 143ZM513 143V144H517L513 143Z" fill="#EE9F9F"/>
<path d="M517 143.428C511.523 144.213 499.797 144.818 501.882 152.945C504.038 161.349 531.453 146.855 528.458 163.945C527.406 169.946 517.545 169.408 513 170.425C503.404 172.573 493.673 176.002 487.394 184.004C478.108 195.837 483.736 210.704 498 213.789C503.297 214.934 508.59 215.198 514 214.961C520.608 214.671 533.498 214.379 538.4 209.298C542.654 204.889 542.3 191.902 543.13 186C545.603 168.419 551.745 147.178 528 143.439C524.346 142.864 520.657 142.904 517 143.428Z" fill="#B72225"/>
<path d="M528 143V144H532L528 143ZM601.333 143.667L601.667 144.333L601.333 143.667Z" fill="#EE9F9F"/>
<path d="M602 143C600.241 156.158 582.381 163.311 580.842 176C579.35 188.293 594.38 199.254 592 212H602C628.211 211.988 596.591 185.618 599.379 174C601.077 166.923 610.559 159.527 615.076 154C616.777 151.918 620.259 148.478 619.263 145.434C617.844 141.097 605.561 143 602 143Z" fill="#B72225"/>
<path d="M618 143L619 144L618 143ZM85 144L86 145L85 144ZM116 144L117 145L116 144ZM120 144L121 145L120 144ZM174 144L175 145L174 144ZM509.667 144.333L510.333 144.667L509.667 144.333Z" fill="#EE9F9F"/>
<path d="M502 149L504 156C509.481 155.068 515.778 151.582 521.424 153.28C526.994 154.955 533.71 163.312 527.682 168.397C524.91 170.735 519.447 170.421 516 171.259C504.37 174.088 491.655 177.092 486.251 189.001C473.727 216.599 520.22 218.442 535.686 209.312C541.609 205.815 541.34 189.18 542.296 183C543.749 173.612 547.104 162.32 542.992 153.093C537.036 139.731 511.981 143.768 502 149Z" fill="#C6191E"/>
<path d="M533.667 144.333L534.333 144.667L533.667 144.333ZM563 144V148H564L563 144Z" fill="#EE9F9F"/>
<path d="M603 144C602.132 156.584 585.639 163.565 582.553 175.285C580.178 184.309 592.141 202.191 595 211L612 210C611.238 198.143 596.163 185.283 598.032 174.004C599.997 162.145 617.053 156.677 618 144H603Z" fill="#C6191E"/>
<path d="M84 145L85 146L84 145ZM195 145L196 146L195 145ZM357 145L359 150L357 145ZM444 145V146H461L444 145ZM506 145L507 146L506 145ZM536 145L537 146L536 145ZM684 145L685 146L684 145ZM2 146V149H3L2 146ZM115 146L116 147L115 146ZM117 146L118 147L117 146ZM175 146L176 147L175 146ZM305 146V147H310L305 146ZM367 146V147H370L367 146ZM379 146V147H382L379 146ZM409 146L412 150V147L409 146Z" fill="#EE9F9F"/>
<path d="M410 147C416.018 160.213 407.598 182.983 405.424 197C404.43 203.412 404.194 209.532 399 214C426.405 225.499 425.711 190.143 428.586 173C429.549 167.261 433.979 154.271 430.243 149.279C426.3 144.009 415.477 145.696 410 147Z" fill="#B72225"/>
<path d="M426.667 146.333L427.333 146.667L426.667 146.333Z" fill="#EE9F9F"/>
<path d="M444 146C451.028 158.79 442.052 183.932 439.754 198C438.709 204.396 438.383 209.746 433 214V215C439.24 215 447.381 216.331 452.945 212.91C458.098 209.743 458.191 203.37 459.08 198C460.782 187.728 460.279 172.845 468.105 165.109C476.654 156.658 490.957 170.084 494.852 158.995C496.622 153.956 491.204 150.121 487 148.804C478.797 146.234 471.741 150.558 466 156C465.849 143.185 453.624 146 444 146Z" fill="#B72225"/>
<path d="M462.667 146.333L463.333 146.667L462.667 146.333ZM503 146L504 147L503 146ZM538 146L539 147L538 146ZM601.333 146.667L601.667 147.333L601.333 146.667ZM114 147L115 148L114 147ZM116 147L117 148L116 147ZM196 147L197 148L196 147ZM243 147V148H246L243 147ZM298 147V148H301L298 147Z" fill="#EE9F9F"/>
<path d="M277 200C261.07 219.229 291.451 221.311 304 215.648C315.798 210.324 325.774 193.149 314.891 182.105C310.471 177.619 297.955 174.804 298.542 167.004C299.521 154.006 313.321 161.249 319.957 160.473C323.277 160.085 326.527 155.633 324.867 152.39C322.478 147.723 313.508 147.118 309 147.015C294.12 146.673 279.716 155.779 280.019 172C280.264 185.085 301.373 186.335 299.968 197C298.343 209.328 282.635 206.991 277 200Z" fill="#B72225"/>
<path d="M314 147V148H317L314 147ZM337 147V150H338L337 147ZM363.667 147.333L364.333 147.667L363.667 147.333ZM384 147L385 148L384 147ZM429 147L430 148L429 147Z" fill="#EE9F9F"/>
<path d="M447 148L444.464 176L437 214C442.297 214 448.348 214.583 452.852 211.181C456.927 208.103 457.474 200.727 458.05 196C459.247 186.179 459.553 171.48 467.108 164.189C475.066 156.508 489.76 167.015 493.319 158.995C495.421 154.257 490.038 150.945 486 150.228C477.318 148.685 471.321 152.547 465 158C464.351 147.292 456.823 145.45 447 148Z" fill="#C6191E"/>
<path d="M464 147L465 148L464 147ZM480 147V148H483L480 147ZM501 147L502 148L501 147ZM540 147L541 148L540 147ZM683 147L684 148L683 147ZM115 148L116 149L115 148ZM176 148L177 149L176 148ZM236 148V149H239L236 148Z" fill="#EE9F9F"/>
<path d="M239 148.44C218.474 151.738 207.796 171.632 207.04 191C206.374 208.062 218.056 222.017 236 219.406C255.803 216.524 266.845 200.99 269.572 182C272.483 161.72 260.803 144.936 239 148.44Z" fill="#B72225"/>
<path d="M251.667 148.333L252.333 148.667L251.667 148.333ZM296 148L297 149L296 148Z" fill="#EE9F9F"/>
<path d="M278 203H276C267.461 225.179 305.924 217.743 313.986 205.985C320.314 196.756 319.139 185.883 309.7 179.721C304.818 176.534 295.192 173.749 296.898 166.004C300.613 149.14 320.426 166.294 325 153C308.969 144.926 273.145 149.89 282.148 176C285.373 185.354 300.525 185.382 301.551 195.004C302.913 207.781 284.949 210.468 278 203Z" fill="#C6191E"/>
<path d="M319 148L320 149L319 148ZM360.667 148.333L361.333 148.667L360.667 148.333ZM386.667 148.333L387.333 148.667L386.667 148.333Z" fill="#EE9F9F"/>
<path d="M412 148V149C415.477 153.614 412.374 159.659 411.975 165C410.863 179.876 408.895 200.824 402 214C407.019 214 413.521 215.024 417.941 212.142C426.509 206.556 424.664 184.188 426.745 175C427.97 169.595 432.773 153.98 428.397 149.603C425.122 146.329 416.277 148 412 148Z" fill="#C6191E"/>
<path d="M430 148L431 149L430 148ZM445 148L446 149L445 148ZM465 148L466 149L465 148ZM476.667 148.333L477.333 148.667L476.667 148.333ZM486.667 148.333L487.333 148.667L486.667 148.333ZM500 148L501 149L500 148ZM541 148L542 149L541 148ZM582 148V151H583L582 148ZM600 148L601 149L600 148ZM619 148L620 149L619 148ZM726 148V153H727L726 148ZM79 149L80 150L79 149ZM113 149V151L115 149H113ZM197.333 149.667L197.667 150.333L197.333 149.667ZM233 149L234 150L233 149ZM255 149L256 150L255 149ZM293.667 149.333L294.333 149.667L293.667 149.333ZM321 149L322 150L321 149ZM388 149L389 150L388 149ZM446 149V152H447L446 149ZM473.667 149.333L474.333 149.667L473.667 149.333ZM489 149L490 150L489 149ZM542 149L543 150L542 149ZM618 149L619 150L618 149ZM682 149L683 150L682 149ZM78 150L79 151L78 150ZM144 150V151H147L144 150ZM177 150L178 151L177 150ZM230.667 150.333L231.333 150.667L230.667 150.333Z" fill="#EE9F9F"/>
<path d="M235 152C228.051 151.204 221.405 157.673 217.594 163.015C208.814 175.321 203.227 197.832 213.789 210.815C223.605 222.88 244.671 219.02 254.906 209.802C266.73 199.152 271.548 179.133 267.12 164C264.228 154.118 243.619 142.137 235 152Z" fill="#C6191E"/>
<path d="M257 150L258 151L257 150ZM292 150L293 151L292 150ZM323 150L324 151L323 150ZM431 150L432 151L431 150ZM466 150V156H467L466 150ZM472 150L473 151L472 150ZM543 150L544 151L543 150ZM599 150L600 151L599 150ZM77 151L78 152L77 151ZM149 151L150 152L149 151ZM228 151L229 152L228 151ZM259 151L260 152L259 151ZM290 151L291 152L290 151ZM325 151L326 152L325 151ZM470 151L471 152L470 151ZM492 151L493 152L492 151ZM501 151V154H502L501 151ZM562 151V154H563L562 151ZM598 151L599 152L598 151ZM681 151L682 152L681 151Z" fill="#EE9F9F"/>
<path d="M693 151L694 155H695L693 151Z" fill="#B72225"/>
<path d="M1 152V157H2L1 152ZM76 152L77 153L76 152ZM129 152L130 153L129 152ZM150 152L151 153L150 152ZM198.333 152.667L198.667 153.333L198.333 152.667ZM226 152L227 153L226 152ZM260 152L261 153L260 152ZM289 152L290 153L289 152ZM326 152V155H327L326 152ZM412 152L413 153L412 152ZM469 152L470 153L469 152ZM493 152L494 153L493 152ZM544 152L545 153L544 152ZM597 152L598 153L597 152ZM616 152L617 153L616 152ZM75 153L76 154L75 153ZM130 153L131 154L130 153ZM151 153L152 154L151 153ZM178.333 153.667L178.667 154.333L178.333 153.667ZM225 153L226 154L225 153ZM336 153V157H337L336 153ZM392 153L393 154L392 153ZM446 153V156H447L446 153ZM468 153L469 154L468 153ZM494 153L495 154L494 153ZM615 153L616 154L615 153ZM680 153L681 154L680 153ZM74 154L75 155L74 154ZM286 154L287 155L286 154ZM431 154V158H432L431 154ZM495 154L496 155L495 154ZM514 154V155H521L514 154ZM545.333 154.667L545.667 155.333L545.333 154.667ZM581 154V158H582L581 154ZM614 154L615 155L614 154ZM73 155L74 156L73 155ZM131 155V161H132L131 155ZM152 155V160H153L152 155ZM222 155L223 156L222 155ZM285 155L286 156L285 155ZM325 155L326 156L325 155ZM393 155L394 156L393 155ZM510.667 155.333L511.333 155.667L510.667 155.333ZM523 155L524 156L523 155ZM595 155L596 156L595 155ZM613 155L614 156L613 155Z" fill="#EE9F9F"/>
<path d="M695.333 155.667L695.667 156.333L695.333 155.667ZM24 156V161H25L24 156Z" fill="#B72225"/>
<path d="M72 156L73 157L72 156ZM199 156V159H200L199 156ZM221 156L222 157L221 156ZM411 156V159H412L411 156ZM496 156L497 157L496 156ZM507.667 156.333L508.333 156.667L507.667 156.333ZM525 156L526 157L525 156ZM561 156V160H562L561 156ZM594 156L595 157L594 156ZM678 156L679 157L678 156ZM71 157L72 158L71 157ZM179 157V172H180L179 157ZM220 157L221 158L220 157ZM265 157L266 158L265 157ZM284 157L285 158L284 157ZM324 157L325 158L324 157ZM361 157V158H364L361 157ZM366 157V158H370L366 157ZM394.333 157.667L394.667 158.333L394.333 157.667ZM546 157V168H547L546 157ZM593 157L594 158L593 157Z" fill="#EE9F9F"/>
<path d="M696 157V160H697L696 157Z" fill="#B72225"/>
<path d="M70 158L71 159L70 158ZM219 158L220 159L219 158Z" fill="#EE9F9F"/>
<path d="M237.019 158.988C226.364 164.035 222.919 187.588 224.186 198C225.205 206.374 233.225 210.82 240.985 206.821C251.54 201.382 253.697 179.422 252.405 169C251.4 160.89 245.664 154.893 237.019 158.988Z" fill="#B72225"/>
<path d="M266 158L267 159L266 158ZM283 158L284 159L283 158ZM306 158V159H312L306 158ZM358 158L359 159L358 158ZM371 158L372 159L371 158ZM495 158L496 159L495 158ZM527 158L528 159L527 158ZM611 158L612 159L611 158ZM677 158L678 159L677 158ZM69 159L70 160L69 159ZM218 159L219 160L218 159ZM239 159V160H242L239 159Z" fill="#EE9F9F"/>
<path d="M242 159.657C228.264 160.421 226.362 184.719 226.129 195C226.002 200.582 228.607 206.71 235 206.786C249.122 206.955 251.202 181.014 250.985 171C250.864 165.451 248.665 159.287 242 159.657Z" fill="#FFFEFD"/>
<path d="M244.667 159.333L245.333 159.667L244.667 159.333ZM303 159L304 160L303 159ZM314.667 159.333L315.333 159.667L314.667 159.333ZM323 159L324 160L323 159ZM335 159V163H336L335 159ZM356 159L357 160L356 159ZM445 159V162H446L445 159ZM592 159L593 160L592 159ZM610 159L611 160L610 159ZM68 160L69 161L68 160ZM217 160L218 161L217 160ZM237 160L238 161L237 160ZM247 160L248 161L247 160ZM267 160L268 161L267 160ZM282 160L283 161L282 160ZM316.667 160.333L317.333 160.667L316.667 160.333ZM322 160L323 161L322 160ZM355 160L356 161L355 160ZM373 160L374 161L373 160ZM430 160V164H431L430 160ZM476 160V161H479L476 160ZM494 160L495 161L494 160ZM528 160V166H529L528 160ZM580 160V164H581L580 160ZM591 160L592 161L591 160ZM609 160L610 161L609 160ZM676 160L677 161L676 160Z" fill="#EE9F9F"/>
<path d="M697 160L698 165H699L697 160Z" fill="#B72225"/>
<path d="M67 161L68 162L67 161ZM216 161L217 162L216 161ZM235 161L236 162L235 161ZM248 161L249 162L248 161ZM300 161L301 162L300 161ZM319 161L320 162L319 161ZM374.333 161.667L374.667 162.333L374.333 161.667ZM472.667 161.333L473.333 161.667L472.667 161.333ZM481.667 161.333L482.333 161.667L481.667 161.333ZM493 161L494 162L493 161ZM590 161L591 162L590 161ZM608 161L609 162L608 161ZM675 161L676 162L675 161ZM66 162L67 163L66 162ZM151 162V166H152L151 162ZM234 162L235 163L234 162ZM249 162L250 163L249 162ZM268.333 162.667L268.667 163.333L268.333 162.667ZM281 162L282 163L281 162ZM410 162V166H411L410 162ZM470 162L471 163L470 162ZM483 162L484 163L483 162ZM589 162L590 163L589 162ZM607 162L608 163L607 162ZM727 162V177H728L727 162ZM0 163V185H1L0 163Z" fill="#EE9F9F"/>
<path d="M25 163V167H26L25 163Z" fill="#B72225"/>
<path d="M65 163L66 164L65 163ZM215 163L216 164L215 163ZM299 163L300 164L299 163ZM469 163L470 164L469 163ZM485 163L486 164L485 163ZM492 163L493 164L492 163ZM560 163V167H561L560 163ZM674 163L675 164L674 163ZM130 164V167H131L130 164ZM200 164V170H201L200 164ZM214 164L215 165L214 164ZM250.333 164.667L250.667 165.333L250.333 164.667ZM280.333 164.667L280.667 165.333L280.333 164.667ZM354 164V168H355L354 164ZM468 164L469 165L468 164ZM486 164L487 165L486 164ZM491 164L492 165L491 164ZM588 164L589 165L588 164ZM673 164L674 165L673 164ZM232 165L233 166L232 165ZM298 165V171H299L298 165ZM444 165V169H445L444 165ZM467 165L468 166L467 165ZM587 165L588 166L587 165ZM605 165L606 166L605 165ZM213 166L214 167L213 166ZM269.333 166.667L269.667 167.333L269.333 166.667ZM334 166V169H335L334 166ZM466 166L467 167L466 166ZM586 166L587 167L586 166ZM604 166L605 167L604 166Z" fill="#EE9F9F"/>
<path d="M699 166L701 176H702L699 166ZM26 167V170H27L26 167Z" fill="#B72225"/>
<path d="M62 167L63 168L62 167ZM231 167L232 168L231 167ZM394 167V170H395L394 167ZM429 167V170H430L429 167ZM465 167L466 168L465 167ZM527 167L528 168L527 167ZM579 167V170H580L579 167ZM603 167L604 168L603 167ZM671 167L672 168L671 167ZM61 168L62 169L61 168ZM212 168L213 169L212 168ZM279 168V175H280L279 168ZM374 168V172H375L374 168ZM521 168V169H525L521 168ZM602 168L603 169L602 168ZM150 169V172H151L150 169ZM230.333 169.667L230.667 170.333L230.333 169.667ZM409 169V172H410L409 169ZM464 169L465 170L464 169ZM515 169V170H518L515 169ZM559 169V173H560L559 169ZM584 169L585 170L584 169ZM129 170V173H130L129 170ZM211 170L212 171L211 170ZM353 170V174H354L353 170ZM511.667 170.333L512.333 170.667L511.667 170.333ZM583 170L584 171L583 170ZM669 170L670 171L669 170Z" fill="#EE9F9F"/>
<path d="M27 171V174H28L27 171Z" fill="#B72225"/>
<path d="M443 171V175H444L443 171ZM463 171V174H464L463 171ZM507.667 171.333L508.333 171.667L507.667 171.333ZM545 171V174H546L545 171ZM582 171L583 172L582 171ZM600 171L601 172L600 171ZM668 171L669 172L668 171ZM58 172L59 173L58 172ZM210.333 172.667L210.667 173.333L210.333 172.667ZM229.333 172.667L229.667 173.333L229.333 172.667ZM270 172V177H271L270 172ZM333 172V175H334L333 172ZM504.667 172.333L505.333 172.667L504.667 172.333ZM599 172L600 173L599 172ZM667 172L668 173L667 172ZM57 173L58 174L57 173ZM393 173V176H394L393 173ZM428 173V177H429L428 173ZM501.667 173.333L502.333 173.667L501.667 173.333ZM578 173L580 177L578 173ZM581 173L582 174L581 173ZM598 173V176H599L598 173ZM302 174L303 175L302 174ZM373 174V178H374L373 174ZM499 174L500 175L499 174Z" fill="#EE9F9F"/>
<path d="M523.941 174.782C516.257 174.148 505.647 179.177 502.139 186.04C497.556 195.005 499.777 206.118 511 207.315C524.302 208.734 524.51 198.016 526.25 188C526.896 184.284 530.181 175.296 523.941 174.782Z" fill="#B72225"/>
<path d="M580 174L581 175L580 174Z" fill="#EE9F9F"/>
<path d="M28.333 175.667L28.667 176.333L28.333 175.667Z" fill="#B72225"/>
<path d="M149 175V179H150L149 175ZM178 175V178H179L178 175ZM199 175V178H200L199 175ZM209.333 175.667L209.667 176.333L209.333 175.667ZM228 175V178H229L228 175ZM304 175L305 176L304 175ZM408 175V178H409L408 175ZM497 175L498 176L497 175ZM665 175L666 176L665 175ZM55 176L56 177L55 176ZM128 176V180H129L128 176ZM306 176L307 177L306 176ZM462 176V180H463L462 176ZM495 176L496 177L495 176ZM521 176V177H525L521 176Z" fill="#EE9F9F"/>
<path d="M525 176C520.388 177.459 515.417 177.782 511.004 179.919C504.131 183.246 497.552 196.007 504.318 202.566C507.57 205.719 518.798 206.898 521.566 202.566C523.937 198.856 523.696 192.281 524.414 188C525.074 184.062 526.48 179.792 525 176Z" fill="#FFFEFD"/>
<path d="M526.333 176.667L526.667 177.333L526.333 176.667ZM558 176V179H559L558 176ZM664 176L665 177L664 176Z" fill="#EE9F9F"/>
<path d="M702 176V181H703L702 176Z" fill="#B72225"/>
<path d="M280 177L281 178L280 177ZM308 177L309 178L308 177ZM352 177V181H353L352 177ZM494 177L495 178L494 177ZM516 177V178H519L516 177ZM544 177V181H545L544 177ZM580.333 177.667L580.667 178.333L580.333 177.667ZM599 177L600 178L599 177ZM663 177L664 178L663 177Z" fill="#EE9F9F"/>
<path d="M29.333 178.667L29.667 179.333L29.333 178.667Z" fill="#B72225"/>
<path d="M208 178V181H209L208 178ZM250 178V182H251L250 178ZM310 178L311 179L310 178ZM332 178V182H333L332 178ZM442 178V181H443L442 178ZM492 178L493 179L492 178ZM513.667 178.333L514.333 178.667L513.667 178.333ZM600.333 178.667L600.667 179.333L600.333 178.667ZM662 178L663 179L662 178ZM53 179L54 180L53 179ZM281 179L282 180L281 179ZM312 179L313 180L312 179ZM392 179V183H393L392 179ZM427 179V183H428L427 179ZM491 179L492 180L491 179ZM511 179L512 180L511 179ZM577 179V183H578L577 179ZM52 180L53 181L52 180ZM177 180V183H178L177 180ZM198 180V183H199L198 180ZM227 180V184H228L227 180ZM282 180L283 181L282 180ZM313 180L314 181L313 180ZM490 180L491 181L490 180ZM509 180L510 181L509 180ZM581 180L582 181L581 180Z" fill="#EE9F9F"/>
<path d="M30.333 181.667L30.667 182.333L30.333 181.667Z" fill="#B72225"/>
<path d="M314 181L315 182L314 181ZM372 181V184H373L372 181ZM407 181V185H408L407 181ZM489 181L490 182L489 181ZM525 181V185H526L525 181ZM601 181L602 182L601 181ZM51 182L52 183L51 182ZM127 182V186H128L127 182ZM148 182V185H149L148 182ZM269 182V185H270L269 182ZM315 182L316 183L315 182ZM461 182V186H462L461 182ZM488 182L489 183L488 182ZM506 182L507 183L506 182ZM557 182V185H558L557 182ZM582 182L583 183L582 182Z" fill="#EE9F9F"/>
<path d="M703 182L704 216H705C705 205.732 707.532 191.431 703 182ZM31 183V186H32L31 183Z" fill="#B72225"/>
<path d="M50 183L51 184L50 183ZM207 183V187H208L207 183ZM285 183L286 184L285 183ZM316 183L317 184L316 183ZM351 183V187H352L351 183ZM487 183L488 184L487 183ZM505 183L506 184L505 183ZM543 183V187H544L543 183ZM602 183L603 184L602 183ZM286 184L287 185L286 184ZM317 184L318 185L317 184ZM331 184V188H332L331 184ZM441 184V187H442L441 184ZM486 184L487 185L486 184ZM726 184V189H727L726 184ZM49 185L50 186L49 185ZM176.333 185.667L176.667 186.333L176.333 185.667ZM197.333 185.667L197.667 186.333L197.333 185.667ZM249 185V188H250L249 185ZM288 185L289 186L288 185ZM391 185V188H392L391 185ZM504 185L505 186L504 185ZM583 185L584 186L583 185ZM603 185L604 186L603 185Z" fill="#EE9F9F"/>
<path d="M32.333 186.667L32.667 187.333L32.333 186.667Z" fill="#B72225"/>
<path d="M289.667 186.333L290.333 186.667L289.667 186.333ZM318 186L319 187L318 186ZM426 186V189H427L426 186ZM485 186L486 187L485 186ZM503 186L504 187L503 186ZM576 186V189H577L576 186ZM48 187L49 188L48 187ZM226 187V192H227L226 187ZM292 187L293 188L292 187ZM371 187V190H372L371 187ZM524 187V191H525L524 187ZM584 187L585 188L584 187ZM604 187L605 188L604 187Z" fill="#EE9F9F"/>
<path d="M33.333 188.667L33.667 189.333L33.333 188.667Z" fill="#B72225"/>
<path d="M47.333 188.667L47.667 189.333L47.333 188.667ZM147 188V191H148L147 188ZM175.333 188.667L175.667 189.333L175.333 188.667ZM196.333 188.667L196.667 189.333L196.333 188.667ZM268.333 188.667L268.667 189.333L268.333 188.667ZM294 188L295 189L294 188ZM406 188V191H407L406 188ZM484 188L485 189L484 188ZM502.333 188.667L502.667 189.333L502.333 188.667ZM556 188V192H557L556 188ZM126 189V192H127L126 189ZM296 189L297 190L296 189ZM319 189V192H320L319 189ZM350 189V193H351L350 189ZM460 189V192H461L460 189ZM585.333 189.667L585.667 190.333L585.333 189.667ZM605 189L606 190L605 189ZM248.333 190.667L248.667 191.333L248.333 190.667ZM297 190L298 191L297 190ZM440 190V194H441L440 190ZM483.333 190.667L483.667 191.333L483.333 190.667ZM542 190V193H543L542 190Z" fill="#EE9F9F"/>
<path d="M34.333 191.667L34.667 192.333L34.333 191.667Z" fill="#B72225"/>
<path d="M46 191L47 192L46 191ZM174 191L175 192L174 191ZM195 191L196 192L195 191ZM267.333 191.667L267.667 192.333L267.333 191.667ZM330 191V194H331L330 191ZM501 191V200H502L501 191ZM606 191L607 192L606 191ZM1 192V197H2L1 192ZM45.333 192.667L45.667 193.333L45.333 192.667ZM299 192L300 193L299 192ZM390 192V195H391L390 192ZM425 192V196H426L425 192ZM575 192V195H576L575 192ZM586 192L587 193L586 192ZM725 192V196H726L725 192Z" fill="#EE9F9F"/>
<path d="M35.333 193.667L35.667 194.333L35.333 193.667Z" fill="#B72225"/>
<path d="M173 193L174 194L173 193ZM194.333 193.667L194.667 194.333L194.333 193.667ZM370 193V197H371L370 193ZM405 193V197H406L405 193ZM523 193V197H524L523 193ZM607 193L608 194L607 193ZM647 193L648 194L647 193ZM146 194V198H147L146 194ZM247.333 194.667L247.667 195.333L247.333 194.667ZM266.333 194.667L266.667 195.333L266.333 194.667ZM300 194V197H301L300 194ZM319 194V198H320L319 194ZM587.333 194.667L587.667 195.333L587.333 194.667ZM646 194L647 195L646 194Z" fill="#EE9F9F"/>
<path d="M36.333 195.667L36.667 196.333L36.333 195.667Z" fill="#B72225"/>
<path d="M44 195L45 196L44 195ZM125 195V198H126L125 195ZM172 195L173 196L172 195ZM193.333 195.667L193.667 196.333L193.333 195.667ZM459 195V199H460L459 195ZM482 195V201H483L482 195ZM555 195V198H556L555 195ZM608 195L609 196L608 195ZM645 195L646 196L645 195ZM43.333 196.667L43.667 197.333L43.333 196.667ZM349 196V199H350L349 196ZM541 196V200H542L541 196ZM644 196L645 197L644 196Z" fill="#EE9F9F"/>
<path d="M37.333 197.667L37.667 198.333L37.333 197.667Z" fill="#B72225"/>
<path d="M171 197L172 198L171 197ZM192 197L193 198L192 197ZM246 197L247 198L246 197ZM265 197L266 198L265 197ZM329 197V200H330L329 197ZM439 197V200H440L439 197ZM588 197L589 198L588 197ZM609 197L610 198L609 197ZM643 197L644 198L643 197ZM207 198V202H208L207 198ZM389 198V201H390L389 198ZM424 198V202H425L424 198ZM574 198V202H575L574 198ZM642 198L643 199L642 198ZM724 198V201H725L724 198Z" fill="#EE9F9F"/>
<path d="M38 199L39 200L38 199Z" fill="#B72225"/>
<path d="M42 199L43 200L42 199ZM170 199L171 200L170 199ZM191 199L192 200L191 199ZM226.333 199.667L226.667 200.333L226.333 199.667ZM245 199L246 200L245 199ZM264 199L265 200L264 199ZM276 199L278 201V199H276ZM299 199L300 200L299 199ZM369 199V203H370L369 199ZM589 199L590 200L589 199ZM610 199L611 200L610 199ZM640 199L641 200L640 199ZM2 200V203H3L2 200ZM145 200V204H146L145 200ZM169 200L170 201L169 200ZM318 200L319 201L318 200ZM404 200V204H405L404 200ZM522 200V203H523L522 200ZM639 200L640 201L639 200Z" fill="#EE9F9F"/>
<path d="M39 201L40 202L39 201Z" fill="#B72225"/>
<path d="M41.333 201.667L41.667 202.333L41.333 201.667ZM124 201V205H125L124 201ZM168 201L169 202L168 201ZM190 201L191 202L190 201ZM244 201L245 202L244 201ZM263 201L264 202L263 201ZM275 201L276 202L275 201ZM298 201L299 202L298 201ZM458 201V205H459L458 201ZM502 201L503 202L502 201ZM554 201V205H555L554 201ZM590.333 201.667L590.667 202.333L590.333 201.667ZM611 201L612 202L611 201ZM638 201L639 202L638 201ZM167 202L168 203L167 202ZM189 202L190 203L189 202ZM243 202L244 203L243 202ZM262 202L263 203L262 202ZM278 202L279 203L278 202ZM297 202L298 203L297 202ZM317.333 202.667L317.667 203.333L317.333 202.667ZM348 202V206H349L348 202ZM503 202L504 203L503 202Z" fill="#EE9F9F"/>
<path d="M40 203L38 211H39L40 203Z" fill="#B72225"/>
<path d="M188 203L189 204L188 203ZM208.333 203.667L208.667 204.333L208.333 203.667ZM227 203L228 204L227 203ZM274 203L275 204L274 203ZM279 203L280 204L279 203ZM296 203L297 204L296 203ZM328 203V207H329L328 203ZM438 203V207H439L438 203ZM483 203L484 204L483 203ZM504 203L505 204L504 203ZM540 203V206H541L540 203ZM612 203L613 204L612 203ZM635 203L636 204L635 203ZM723.333 203.667L723.667 204.333L723.333 203.667ZM41 204L42 205L41 204ZM165 204L166 205L165 204ZM228 204L229 205L228 204ZM261 204L262 205L261 204ZM280 204L281 205L280 204ZM295 204L296 205L295 204ZM316.333 204.667L316.667 205.333L316.333 204.667ZM388 204V208H389L388 204ZM506 204L507 205L506 204ZM520 204L521 205L520 204ZM573 204V207H574L573 204ZM591 204L592 205L591 204ZM634 204L635 205L634 204Z" fill="#EE9F9F"/>
<path d="M39.9999 205C37.2669 216.922 33.9849 228.601 35.1699 241C36.7069 257.086 41.7599 276.31 52.5289 288.829C63.7509 301.877 83.5089 310.685 98.9999 317.424C145.992 337.869 196.411 342 247 342C264.87 342 283.409 341.266 301 338V337C205.078 324.612 98.2579 288.393 41.9999 205H39.9999Z" fill="#F9A42A"/>
<path d="M164 205L165 206L164 205ZM229 205L230 206L229 205ZM240 205L241 206L240 205ZM260 205L261 206L260 205ZM273 205L274 206L273 205ZM282 205V206H285L282 205ZM291.667 205.333L292.333 205.667L291.667 205.333Z" fill="#EE9F9F"/>
<path d="M312 205L313 206L312 205Z" fill="#B72225"/>
<path d="M423 205V208H424L423 205ZM484 205L485 206L484 205ZM509 205V206H518L509 205ZM613.333 205.667L613.667 206.333L613.333 205.667ZM3 206V209H4L3 206ZM163 206L164 207L163 206ZM209 206L210 207L209 206ZM230.667 206.333L231.333 206.667L230.667 206.333ZM238 206L239 207L238 206ZM315 206L316 207L315 206ZM368 206V209H369L368 206ZM403 206V209H404L403 206ZM553.333 206.667L553.667 207.333L553.333 206.667ZM592.333 206.667L592.667 207.333L592.333 206.667ZM43 207L44 208L43 207ZM123 207V215H124L123 207ZM144.333 207.667L144.667 208.333L144.333 207.667ZM161 207L162 208L161 207ZM272 207L273 208L272 207ZM314 207L315 208L314 207ZM457.333 207.667L457.667 208.333L457.333 207.667ZM485 207L486 208L485 207ZM572 207L573 208L572 207ZM630 207L631 208L630 207ZM722 207V210H723L722 207ZM159 208L160 209L159 208ZM210 208L211 209L210 208ZM258 208L259 209L258 208ZM347.333 208.667L347.667 209.333L347.333 208.667ZM486 208L487 209L486 208ZM613.333 208.667L613.667 209.333L613.333 208.667ZM156.667 209.333L157.333 209.667L156.667 209.333ZM182 209L183 210L182 209ZM257 209L258 210L257 209ZM271.333 209.667L271.667 210.333L271.333 209.667ZM387.333 209.667L387.667 210.333L387.333 209.667ZM422.333 209.667L422.667 210.333L422.333 209.667ZM437 209L438 210L437 209ZM487 209L488 210L487 209ZM539 209L540 210L539 209ZM552 209L553 210L552 209ZM592.333 209.667L592.667 210.333L592.333 209.667ZM627 209L628 210L627 209ZM45 210L46 211L45 210ZM146 210L147 211L146 210ZM151 210V211H154L151 210ZM181 210L182 211L181 210ZM211 210L212 211L211 210ZM256 210L257 211L256 210ZM327 210L328 211L327 210ZM367.333 210.667L367.667 211.333L367.333 210.667ZM402 210L403 211L402 210ZM456 210L457 211L456 210ZM537.667 210.333L538.333 210.667L537.667 210.333ZM551 210L552 211L551 210ZM569 210L570 211L569 210ZM612 210L613 211L612 210ZM626 210L627 211L626 210ZM4.333 211.667L4.667 212.333L4.333 211.667ZM180 211L181 212L180 211ZM212 211L213 212L212 211ZM255 211L256 212L255 211ZM310 211L311 212L310 211ZM346 211L347 212L346 211ZM386 211L387 212L386 211ZM421 211L422 212L421 211ZM436 211L437 212L436 211ZM455 211L456 212L455 211ZM490 211L491 212L490 211ZM534.667 211.333L535.333 211.667L534.667 211.333ZM550 211L551 212L550 211ZM568 211L569 212L568 211ZM591 211L608 213V212L591 211ZM611 211L612 212L611 211ZM721.333 211.667L721.667 212.333L721.333 211.667Z" fill="#EE9F9F"/>
<path d="M37 212V215H38L37 212Z" fill="#B72225"/>
<path d="M178 212L179 213L178 212ZM213 212L214 213L213 212ZM253 212L254 213L253 212ZM271.333 212.667L271.667 213.333L271.333 212.667ZM309 212L310 213L309 212ZM326 212L327 213L326 212ZM366 212L367 213L366 212ZM401 212L402 213L401 212ZM420 212L421 213L420 212ZM435 212L436 213L435 212ZM454 212L455 213L454 212ZM492 212L493 213L492 212ZM531.667 212.333L532.333 212.667L531.667 212.333ZM564 212V213H567L564 212ZM623 212L624 213L623 212ZM47 213L48 214L47 213ZM177 213L178 214L177 213ZM214 213L215 214L214 213ZM252 213L253 214L252 213ZM308 213L309 214L308 213ZM365 213L366 214L365 213ZM384 213L385 214L384 213ZM400 213L401 214L400 213ZM419 213L420 214L419 213ZM434 213L435 214L434 213ZM452 213L453 214L452 213ZM495.667 213.333L496.333 213.667L495.667 213.333ZM526 213V214H529L526 213ZM175 214L176 215L175 214ZM215 214L216 215L215 214ZM251 214L252 215L251 214ZM272 214L273 215L272 214ZM306 214L307 215L306 214ZM343 214L344 215L343 214ZM364 214L365 215L364 214ZM383 214L384 215L383 214ZM417 214L418 215L417 214ZM449.667 214.333L450.333 214.667L449.667 214.333ZM498 214V215H502L498 214ZM518 214V215H523L518 214ZM620 214L621 215L620 214ZM5.33301 215.667L5.66701 216.333L5.33301 215.667ZM173 215L174 216L173 215ZM216 215L217 216L216 215ZM249 215L250 216L249 215ZM273 215L274 216L273 215ZM304 215L305 216L304 215ZM323 215L324 216L323 215ZM342 215L343 216L342 215ZM363 215L369 217V216L363 215ZM380.667 215.333L381.333 215.667L380.667 215.333ZM398 215V216H415L398 215ZM720 215L721 216L720 215ZM49 216L50 217L49 216ZM124 216L125 217L124 216ZM171 216L172 217L171 216ZM218 216L219 217L218 216ZM247 216L248 217L247 216ZM274 216L275 217L274 216ZM302 216L303 217L302 216ZM335 216V217H340L335 216ZM617 216L618 217L617 216Z" fill="#EE9F9F"/>
<path d="M703 216V222H704L703 216ZM36 217L34 243H35L36 217Z" fill="#B72225"/>
<path d="M50 217L51 218L50 217ZM168.667 217.333L169.333 217.667L168.667 217.333ZM220 217L221 218L220 217ZM244.667 217.333L245.333 217.667L244.667 217.333ZM276.667 217.333L277.333 217.667L276.667 217.333ZM298.667 217.333L299.333 217.667L298.667 217.333ZM165.667 218.333L166.333 218.667L165.667 218.333ZM222.667 218.333L223.333 218.667L222.667 218.333ZM241.667 218.333L242.333 218.667L241.667 218.333ZM280 218V219H287L280 218ZM288 218V219H296L288 218ZM614 218L615 219L614 218ZM719 218L720 219L719 218ZM6.33301 219.667L6.66701 220.333L6.33301 219.667ZM127 219L128 220L127 219ZM160 219V220H163L160 219ZM226 219V220H230L226 219ZM235 219V220H239L235 219ZM612 219L613 220L612 219ZM52 220L53 221L52 220ZM129 220L130 221L129 220ZM154 220V221H158L154 220ZM53 221L54 222L53 221ZM133 221V222H148L133 221ZM718 221L719 222L718 221ZM7.33301 222.667L7.66701 223.333L7.33301 222.667ZM607 222L608 223L607 222Z" fill="#EE9F9F"/>
<path d="M702 222V227H703L702 222Z" fill="#B72225"/>
<path d="M717.333 223.667L717.667 224.333L717.333 223.667ZM55 224L56 225L55 224ZM604 224L605 225L604 224ZM8.33301 225.667L8.66701 226.333L8.33301 225.667ZM56 225L57 226L56 225ZM602 225L603 226L602 225ZM57 226L58 227L57 226ZM600 226L601 227L600 226ZM716 226L717 227L716 226ZM58 227L59 228L58 227Z" fill="#EE9F9F"/>
<path d="M701 227V232H702L701 227Z" fill="#B72225"/>
<path d="M9.33301 228.667L9.66701 229.333L9.33301 228.667ZM715.333 228.667L715.667 229.333L715.333 228.667ZM593 230L594 231L593 230ZM10 231L11 232L10 231ZM61 231L62 232L61 231ZM714 231L715 232L714 231ZM62 232L63 233L62 232ZM589 232L590 233L589 232Z" fill="#EE9F9F"/>
<path d="M700 232L699 238H700V232Z" fill="#B72225"/>
<path d="M11.333 233.667L11.667 234.333L11.333 233.667ZM63 233L64 234L63 233ZM713 233L714 234L713 233ZM64 234L65 235L64 234ZM585 234L586 235L585 234ZM65 235L66 236L65 235ZM712 235L713 236L712 235ZM12 236L13 237L12 236ZM66 236L67 237L66 236ZM581 236L582 237L581 236ZM67 237L68 238L67 237ZM711 237L712 238L711 237ZM13 238L14 239L13 238ZM68 238L69 239L68 238ZM577 238L578 239L577 238Z" fill="#EE9F9F"/>
<path d="M698 238L697 244H698V238Z" fill="#B72225"/>
<path d="M69 239L70 240L69 239ZM710 239L711 240L710 239ZM14 240L15 241L14 240ZM70 240L71 241L70 240ZM71 241L72 242L71 241ZM709 241L710 242L709 241ZM15.333 242.667L15.667 243.333L15.333 242.667ZM72 242L73 243L72 242ZM568 242L569 243L568 242ZM708 242L709 243L708 242Z" fill="#EE9F9F"/>
<path d="M35 243L36 255H37L35 243Z" fill="#B72225"/>
<path d="M73 243L74 244L73 243ZM16 244L17 245L16 244ZM74 244L75 245L74 244Z" fill="#EE9F9F"/>
<path d="M696 244V247H697L696 244Z" fill="#B72225"/>
<path d="M707 244L708 245L707 244ZM75 245L76 246L75 245ZM17 246L18 247L17 246ZM706 246L707 247L706 246Z" fill="#EE9F9F"/>
<path d="M695.333 247.667L695.667 248.333L695.333 247.667Z" fill="#B72225"/>
<path d="M705 247L706 248L705 247ZM18 248L19 249L18 248ZM80 249L81 250L80 249Z" fill="#EE9F9F"/>
<path d="M694.333 249.667L694.667 250.333L694.333 249.667Z" fill="#B72225"/>
<path d="M704 249L705 250L704 249ZM19 250L20 251L19 250ZM81 250L82 251L81 250ZM82 251L83 252L82 251Z" fill="#EE9F9F"/>
<path d="M693.333 251.667L693.667 252.333L693.333 251.667Z" fill="#B72225"/>
<path d="M20 252L21 253L20 252ZM83 252L84 253L83 252ZM702 252L703 253L702 252ZM21 253L22 254L21 253ZM701 253L702 254L701 253ZM86 254L87 255L86 254ZM538 254L539 255L538 254ZM22 255L23 256L22 255Z" fill="#EE9F9F"/>
<path d="M37 255V259H38L37 255Z" fill="#B72225"/>
<path d="M87 255L88 256L87 255ZM700 255L701 256L700 255ZM88 256L89 257L88 256ZM532 256L533 257L532 256ZM699 256L700 257L699 256ZM529 257L530 258L529 257ZM24 258L25 259L24 258ZM526 258L527 259L526 258ZM698 258L699 259L698 258Z" fill="#EE9F9F"/>
<path d="M38 259V262H39L38 259Z" fill="#B72225"/>
<path d="M92 259L93 260L92 259ZM523 259L524 260L523 259ZM697 259L698 260L697 259ZM93 260L94 261L93 260ZM520 260L521 261L520 260ZM696 260L697 261L696 260ZM26 261L27 262L26 261ZM95 261L96 262L95 261ZM517 261L518 262L517 261ZM695 261L696 262L695 261ZM27 262L28 263L27 262Z" fill="#EE9F9F"/>
<path d="M39 262V265H40L39 262Z" fill="#B72225"/>
<path d="M96 262L97 263L96 262ZM514 262L515 263L514 262ZM510 263L511 264L510 263ZM99 264L100 265L99 264ZM507 264L508 265L507 264ZM693 264L694 265L693 264ZM29 265L30 266L29 265Z" fill="#EE9F9F"/>
<path d="M40.333 265.667L40.667 266.333L40.333 265.667Z" fill="#B72225"/>
<path d="M100 265L101 266L100 265ZM503 265L504 266L503 265ZM692 265L693 266L692 265ZM30 266L31 267L30 266ZM500.667 266.333L501.333 266.667L500.667 266.333ZM691 266L692 267L691 266ZM103 267L104 268L103 267ZM496 267L497 268L496 267ZM690 267L691 268L690 267Z" fill="#EE9F9F"/>
<path d="M41.333 268.667L41.667 269.333L41.333 268.667Z" fill="#B72225"/>
<path d="M493.667 268.333L494.333 268.667L493.667 268.333ZM689 268L690 269L689 268ZM32 269L33 270L32 269ZM106 269L107 270L106 269ZM489 269L490 270L489 269ZM688 269L689 270L688 269ZM33 270L34 271L33 270Z" fill="#EE9F9F"/>
<path d="M42 270V273H43L42 270Z" fill="#B72225"/>
<path d="M107 270L108 271L107 270ZM485.667 270.333L486.333 270.667L485.667 270.333ZM687 270L688 271L687 270ZM34 271L35 272L34 271ZM109 271L110 272L109 271ZM480 271V272H483L480 271Z" fill="#EE9F9F"/>
<path d="M683 271L684 272L683 271Z" fill="#C6191E"/>
<path d="M686 271L687 272L686 271ZM35 272L36 273L35 272ZM477.667 272.333L478.333 272.667L477.667 272.333ZM685 272L686 273L685 272Z" fill="#EE9F9F"/>
<path d="M43.333 273.667L43.667 274.333L43.333 273.667Z" fill="#B72225"/>
<path d="M112 273L113 274L112 273ZM472 273V274H475L472 273ZM684 273L685 274L684 273ZM114 274L115 275L114 274ZM467 274V275H472L467 274ZM683 274L684 275L683 274Z" fill="#EE9F9F"/>
<path d="M44 275L45 279H46L44 275Z" fill="#B72225"/>
<path d="M462 275V276H467L462 275ZM682 275L683 276L682 275ZM38 276L39 277L38 276ZM117 276L118 277L117 276ZM444 279V280L462 277L444 279ZM681 276L682 277L681 276ZM39 277L40 278L39 277ZM119 277L120 278L119 277ZM680 277L681 278L680 277ZM40 278L41 279L40 278ZM120 278L121 279L120 278ZM679 278L680 279L679 278ZM41 279L42 280L41 279Z" fill="#EE9F9F"/>
<path d="M46 279L47 280L46 279Z" fill="#B72225"/>
<path d="M122 279L123 280L122 279ZM678 279L679 280L678 279ZM42 280L43 281L42 280ZM124 280L125 281L124 280ZM426 284L429 287L428 321L435 323L424 322L428 328L424 327L435 329V330C430.949 330.098 428.135 330.345 426 334L439 333V334H435V335C448.011 338.954 463.499 338 477 338V337C469.823 337 449.047 339.242 445 333L442 334L440 329H445C445 315.734 446.231 299.346 441 287L447 286C444.194 276.99 432.306 280.948 426 284ZM677 280L678 281L677 280ZM43 281L44 282L43 281ZM675 281L676 282L675 281ZM44 282L45 283L44 282ZM127 282L128 283L127 282ZM426 282L427 283L426 282ZM674 282L675 283L674 282ZM45 283L46 284L45 283ZM129 283L130 284L129 283Z" fill="#EE9F9F"/>
<path d="M429 284V285H437L429 284Z" fill="#FFFEFD"/>
<path d="M448 283V287H449L448 283ZM673 283L674 284L673 283ZM131 284L132 285L131 284ZM419.667 284.333L420.333 284.667L419.667 284.333ZM672 284L673 285L672 284ZM133 285L134 286L133 285ZM450 285L451 286L450 285ZM49 286L50 287L49 286ZM423 286V287H426L423 286ZM669 286L670 287L669 286ZM50 287L51 288L50 287ZM426.333 287.667L426.667 288.333L426.333 287.667ZM668 287L669 288L668 287ZM51 288L52 289L51 288ZM138 288L139 289L138 288ZM52 289L53 290L52 289ZM665 289L666 290L665 289ZM142 290L143 291L142 290ZM664 290L665 291L664 290ZM55 291L56 292L55 291ZM662 291L663 292L662 291ZM56 292L57 293L56 292ZM661 292L662 293L661 292ZM57 293L58 294L57 293ZM149 293L150 294L149 293ZM151 294L152 295L151 294ZM658 294L659 295L658 294ZM60 295L61 296L60 295ZM153 295L154 296L153 295ZM656 295L657 296L656 295ZM61 296L62 297L61 296ZM155 296L156 297L155 296ZM655 296L656 297L655 296ZM63 297L64 298L63 297ZM157 297L158 298L157 297ZM653 297L654 298L653 297ZM64 298L65 299L64 298ZM159 298L160 299L159 298ZM652 298L653 299L652 298ZM66 299L67 300L66 299ZM162 299L163 300L162 299ZM650 299L651 300L650 299ZM67 300L68 301L67 300ZM164 300L165 301L164 300ZM69 301L70 302L69 301ZM646 301L647 302L646 301ZM70 302L71 303L70 302ZM169 302L170 303L169 302ZM645 302L646 303L645 302ZM72 303L73 304L72 303ZM171 303L172 304L171 303ZM643 303L644 304L643 303ZM73 304L74 305L73 304ZM174 304L175 305L174 304ZM75 305L76 306L75 305ZM176.667 305.333L177.333 305.667L176.667 305.333ZM639 305L640 306L639 305ZM179 306L180 307L179 306ZM637 306L638 307L637 306ZM182 307L183 308L182 307ZM635 307L636 308L635 307ZM80 308L81 309L80 308ZM184 308L185 309L184 308ZM633 308L634 309L633 308ZM82 309L83 310L82 309ZM187 309L188 310L187 309ZM631 309L632 310L631 309ZM84 310L85 311L84 310ZM189.667 310.333L190.333 310.667L189.667 310.333ZM629 310L630 311L629 310ZM86 311L87 312L86 311ZM193 311L194 312L193 311ZM88 312L89 313L88 312ZM195.667 312.333L196.333 312.667L195.667 312.333ZM624 312L625 313L624 312ZM90 313L91 314L90 313ZM199 313L200 314L199 313ZM622 313L623 314L622 313ZM92 314L93 315L92 314ZM201.667 314.333L202.333 314.667L201.667 314.333ZM94 315L95 316L94 315ZM205 315L206 316L205 315ZM617 315L618 316L617 315ZM96 316L97 317L96 316ZM207.667 316.333L208.333 316.667L207.667 316.333ZM99 317L100 318L99 317ZM211 317L212 318L211 317ZM611 317L612 318L611 317ZM101 318L102 319L101 318ZM214 318L215 319L214 318ZM609 318L610 319L609 318ZM103 319L104 320L103 319ZM218 319L219 320L218 319ZM606 319L607 320L606 319ZM105 320L106 321L105 320ZM221 320L222 321L221 320ZM603 320L604 321L603 320ZM108 321L109 322L108 321ZM449.333 321.667L449.667 322.333L449.333 321.667ZM600 321L601 322L600 321ZM111 322L112 323L111 322ZM228.667 322.333L229.333 322.667L228.667 322.333ZM597 322L598 323L597 322ZM113.667 323.333L114.333 323.667L113.667 323.333ZM233 323L234 324L233 323ZM593 323L594 324L593 323ZM116 324L117 325L116 324ZM236.667 324.333L237.333 324.667L236.667 324.333ZM119.667 325.333L120.333 325.667L119.667 325.333ZM240.667 325.333L241.333 325.667L240.667 325.333ZM586 325L587 326L586 325ZM122 326L123 327L122 326ZM244.667 326.333L245.333 326.667L244.667 326.333ZM125.667 327.333L126.333 327.667L125.667 327.333ZM249.667 327.333L250.333 327.667L249.667 327.333ZM578 327L579 328L578 327ZM129 328L130 329L129 328ZM253.667 328.333L254.333 328.667L253.667 328.333ZM132.667 329.333L133.333 329.667L132.667 329.333ZM258.667 329.333L259.333 329.667L258.667 329.333ZM569 329L570 330L569 329ZM136 330L137 331L136 330ZM262 330V331H265L262 330ZM418 330V331H421L418 330ZM425.667 330.333L426.333 330.667L425.667 330.333ZM140.667 331.333L141.333 331.667L140.667 331.333ZM268.667 331.333L269.333 331.667L268.667 331.333ZM422 331V332H425L422 331Z" fill="#EE9F9F"/>
<path d="M429 331V332H435L429 331Z" fill="#FFFEFD"/>
<path d="M442 331L443 332L442 331ZM449.333 331.667L449.667 332.333L449.333 331.667ZM559 331L560 332L559 331ZM144 332L145 333L144 332ZM273.667 332.333L274.333 332.667L273.667 332.333ZM419.667 332.333L420.333 332.667L419.667 332.333ZM148.667 333.333L149.333 333.667L148.667 333.333ZM280 333L281 334L280 333ZM422 333V334H425L422 333ZM546.667 333.333L547.333 333.667L546.667 333.333ZM152.667 334.333L153.333 334.667L152.667 334.333ZM284 334V335H287L284 334ZM157 335V336H160L157 335ZM292.667 335.333L293.333 335.667L292.667 335.333ZM530 335V336H533L530 335ZM163 336L164 337L163 336ZM297 336V337H301L297 336ZM521.667 336.333L522.333 336.667L521.667 336.333ZM169 337V338H172L169 337ZM301 337V338H305L301 337ZM499 337V338H508L499 337ZM175.667 338.333L176.333 338.667L175.667 338.333ZM298 338V339H301L298 338ZM183 339V340H187L183 339ZM287 339V340H292L287 339ZM191 340V341H194L191 340ZM281.667 340.333L282.333 340.667L281.667 340.333ZM203 341V342H212L203 341ZM264 341V342H273L264 341ZM222 342V343H254L222 342Z" fill="#EE9F9F"/>
</svg>
