<svg width="721" height="179" viewBox="0 0 721 179" fill="none" xmlns="http://www.w3.org/2000/svg">
<path fill-rule="evenodd" clip-rule="evenodd" d="M582.088 128.636L586.435 42.992L548.287 23.722L549.267 4.453H717.275L716.353 22.652L671.764 42.992L667.357 129.707L708.795 151.117L707.596 174.667H534.4L535.486 153.257L582.088 128.636Z" fill="#FF7313" stroke="black" stroke-width="6.7601" stroke-miterlimit="2.6131"/>
<path fill-rule="evenodd" clip-rule="evenodd" d="M400.183 130.933H374.773L376.316 99.355L401.769 99.351C415.253 98.816 421.26 110.859 417.842 118.621C417.842 118.621 416.55 130.398 400.183 130.933ZM403.308 69.636H377.898L379.445 39.972H406.171C416.284 39.706 423.546 47.16 421.343 56.636C421.342 56.636 420.698 69.644 403.308 69.636ZM476.097 4.16001C476.097 4.16001 508.507 0.680004 514.781 41.785C514.781 41.785 517.371 70.129 488.566 86.746C519.964 95.816 514.257 133.82 514.257 133.82C504.773 177 460.58 174.531 460.58 174.531H246.688L247.994 153.121L287.864 128.535L291.666 41.73L254.292 23.574L255.598 4.30101L476.097 4.16001Z" fill="#FF7313" stroke="black" stroke-width="6.7601" stroke-miterlimit="2.6131"/>
<path fill-rule="evenodd" clip-rule="evenodd" d="M123.32 27.597H128.3C139.755 27.597 148.554 37.183 147.954 49.007L144.022 126.507C143.42 138.331 133.649 147.917 122.192 147.917H117.213C105.758 147.917 96.9595 138.331 97.5575 126.507L101.493 49.007C102.092 37.183 111.865 27.597 123.32 27.597ZM81.1995 4.29602H173.248C213.346 4.29602 244.146 37.847 242.043 79.234L241.01 99.574C238.908 140.965 204.703 174.512 164.61 174.512H72.5605C32.4685 174.512 1.66747 140.965 3.76947 99.574L4.79847 79.234C6.90247 37.847 41.1075 4.29602 81.1995 4.29602Z" fill="#FF7313" stroke="black" stroke-width="6.7601" stroke-miterlimit="2.6131"/>
<path d="M679.443 112.042C679.443 107.726 681.138 103.812 683.877 100.987C686.615 98.1591 690.404 96.4091 694.584 96.4091C698.768 96.4091 702.553 98.1591 705.291 100.987C708.033 103.811 709.729 107.725 709.729 112.042C709.729 116.355 708.034 120.265 705.291 123.093H705.287C702.545 125.921 698.76 127.671 694.584 127.671C690.416 127.671 686.627 125.921 683.885 123.093C683.885 123.089 683.881 123.089 683.877 123.085C681.139 120.253 679.443 116.347 679.443 112.042ZM694.596 113.898H691.237V119.828H688.428V104.129L696.244 104.125C698.478 104.188 700.111 105.387 700.9 106.906C701.24 107.566 701.427 108.285 701.435 109V109.008C701.439 109.738 701.267 110.477 700.9 111.156C700.361 112.144 699.408 112.984 698.009 113.469L702.001 120.106H698.325L694.596 113.898ZM691.236 110.999C692.904 110.999 694.334 110.89 696.209 110.89H696.459L696.467 110.902C697.53 110.703 698.17 110.265 698.455 109.742C698.576 109.527 698.631 109.277 698.627 109.031C698.627 108.769 698.557 108.5 698.436 108.261C698.084 107.589 697.295 107.054 696.17 107.023H691.236V110.999ZM685.955 103.128C683.748 105.409 682.385 108.562 682.385 112.042C682.385 115.522 683.744 118.675 685.951 120.948L685.955 120.952C688.158 123.229 691.213 124.636 694.584 124.636C697.959 124.636 701.01 123.226 703.217 120.952V120.948C705.424 118.667 706.791 115.522 706.791 112.042C706.791 108.562 705.424 105.409 703.217 103.132C701.006 100.851 697.955 99.4411 694.584 99.4411C691.217 99.4411 688.166 100.851 685.955 103.128Z" fill="black"/>
</svg>
