<svg width="204" height="183" viewBox="0 0 204 183" fill="NONE" xmlns="http://www.w3.org/2000/svg">
<path d="M2.70914 56.3699C4.29673 55.9952 5.93365 56.7611 6.66316 58.2201L17.5862 80.0662L28.5093 58.2201C29.2388 56.7611 30.8757 55.9952 32.4633 56.3699C34.0508 56.7447 35.1724 58.1619 35.1724 59.7931V116.069C35.1724 118.011 33.5977 119.586 31.6552 119.586C29.7127 119.586 28.1379 118.011 28.1379 116.069V74.6924L20.7321 89.504C20.1363 90.6956 18.9184 91.4483 17.5862 91.4483C16.254 91.4483 15.0361 90.6956 14.4403 89.504L7.03448 74.6924V116.069C7.03448 118.011 5.45976 119.586 3.51724 119.586C1.57472 119.586 0 118.011 0 116.069V59.7931C0 58.1619 1.12156 56.7447 2.70914 56.3699Z" fill="black"/>
<path fill-rule="evenodd" clip-rule="evenodd" d="M46.6989 38.3236C49.4319 32.8578 53.8581 28.1379 59.7931 28.1379C65.7281 28.1379 70.1543 32.8578 72.8873 38.3236C75.7254 43.9999 77.3793 51.5954 77.3793 59.7931C77.3793 67.9908 75.7254 75.5863 72.8873 81.2626C70.1543 86.7284 65.7281 91.4483 59.7931 91.4483C53.8581 91.4483 49.4319 86.7284 46.6989 81.2626C43.8608 75.5863 42.2069 67.9908 42.2069 59.7931C42.2069 51.5954 43.8608 43.9999 46.6989 38.3236ZM52.9908 41.4695C50.7369 45.9772 49.2414 52.4507 49.2414 59.7931C49.2414 67.1355 50.7369 73.609 52.9908 78.1167C55.3498 82.8347 57.958 84.4138 59.7931 84.4138C61.6282 84.4138 64.2364 82.8347 66.5954 78.1167C68.8493 73.609 70.3448 67.1355 70.3448 59.7931C70.3448 52.4507 68.8493 45.9772 66.5954 41.4695C64.2364 36.7515 61.6282 35.1724 59.7931 35.1724C57.958 35.1724 55.3498 36.7515 52.9908 41.4695Z" fill="black"/>
<path fill-rule="evenodd" clip-rule="evenodd" d="M186.414 35.1724C180.479 35.1724 176.053 39.8922 173.32 45.3581C170.481 51.0343 168.828 58.6299 168.828 66.8276C168.828 75.0253 170.481 82.6208 173.32 88.2971C176.053 93.7629 180.479 98.4828 186.414 98.4828C192.349 98.4828 196.775 93.7629 199.508 88.2971C202.346 82.6208 204 75.0253 204 66.8276C204 58.6299 202.346 51.0343 199.508 45.3581C196.775 39.8922 192.349 35.1724 186.414 35.1724ZM175.862 66.8276C175.862 59.4851 177.358 53.0117 179.611 48.504C181.97 43.786 184.579 42.2069 186.414 42.2069C188.249 42.2069 190.857 43.786 193.216 48.504C195.47 53.0117 196.965 59.4851 196.965 66.8276C196.965 74.17 195.47 80.6435 193.216 85.1511C190.857 89.8692 188.249 91.4483 186.414 91.4483C184.579 91.4483 181.97 89.8692 179.611 85.1511C177.358 80.6435 175.862 74.17 175.862 66.8276Z" fill="black"/>
<path d="M130.138 63.3103C132.08 63.3103 133.655 64.8851 133.655 66.8276V91.4483H154.759V66.8276C154.759 64.8851 156.333 63.3103 158.276 63.3103C160.218 63.3103 161.793 64.8851 161.793 66.8276V123.103C161.793 125.046 160.218 126.621 158.276 126.621C156.333 126.621 154.759 125.046 154.759 123.103V98.4828H133.655V123.103C133.655 125.046 132.08 126.621 130.138 126.621C128.195 126.621 126.621 125.046 126.621 123.103V66.8276C126.621 64.8851 128.195 63.3103 130.138 63.3103Z" fill="black"/>
<path d="M119.586 94.9655C119.586 93.3343 118.465 91.9171 116.877 91.5424C115.289 91.1676 113.653 91.9336 112.923 93.3926L91.4483 136.342V94.9655C91.4483 93.023 89.8735 91.4483 87.931 91.4483C85.9885 91.4483 84.4138 93.023 84.4138 94.9655V151.241C84.4138 152.873 85.5353 154.29 87.1229 154.665C88.7105 155.039 90.3474 154.273 91.0769 152.814L112.552 109.865V151.241C112.552 153.184 114.126 154.759 116.069 154.759C118.011 154.759 119.586 153.184 119.586 151.241V94.9655Z" fill="black"/>
<path d="M50.6983 151.241L76.3491 125.591C77.7227 124.217 77.7227 121.99 76.3491 120.616C74.9756 119.243 72.7486 119.243 71.375 120.616L49.2414 142.75V123.103C49.2414 121.161 47.6666 119.586 45.7241 119.586C43.7816 119.586 42.2069 121.161 42.2069 123.103V179.379C42.2069 181.322 43.7816 182.897 45.7241 182.897C47.6666 182.897 49.2414 181.322 49.2414 179.379V159.733L71.375 181.866C72.7486 183.24 74.9756 183.24 76.3491 181.866C77.7227 180.493 77.7227 178.266 76.3491 176.892L50.6983 151.241Z" fill="black"/>
<path d="M87.931 31.6552C87.931 18.0575 98.9541 7.03448 112.552 7.03448C114.494 7.03448 116.069 5.45976 116.069 3.51724C116.069 1.57472 114.494 0 112.552 0C95.069 0 80.8965 14.1725 80.8965 31.6552C80.8965 49.1378 95.069 63.3103 112.552 63.3103C114.494 63.3103 116.069 61.7356 116.069 59.7931C116.069 57.8506 114.494 56.2759 112.552 56.2759C98.9541 56.2759 87.931 45.2528 87.931 31.6552Z" fill="black"/>
</svg>
