<svg width="1774" height="2033" viewBox="0 0 1774 2033" fill="none" xmlns="http://www.w3.org/2000/svg">
<g opacity="0.5">
<rect width="1754" height="2023" transform="matrix(-1 0 0 1 1764 0)" fill="#F4F4F4"/>
<circle r="253.5" transform="matrix(-1 0 0 1 264 1769)" stroke="#C94C9C"/>
<circle r="298.5" transform="matrix(-1 0 0 1 309 1724)" stroke="#C94C9C"/>
<g filter="url(#filter0_f_797_412)">
<circle r="369" transform="matrix(-1 0 0 1 379.5 1653.5)" stroke="#C94C9C"/>
</g>
<g filter="url(#filter1_f_797_412)">
<circle r="454" transform="matrix(-1 0 0 1 464.5 1568.5)" stroke="#C94C9C"/>
</g>
<g filter="url(#filter2_f_797_412)">
<circle r="579" transform="matrix(-1 0 0 1 589.5 1443.5)" stroke="#C94C9C"/>
</g>
<g filter="url(#filter3_f_797_412)">
<circle r="706.5" transform="matrix(-1 0 0 1 717 1316)" stroke="#C94C9C"/>
</g>
<g filter="url(#filter4_f_797_412)">
<circle r="876.5" transform="matrix(-1 0 0 1 887 1146)" stroke="#C94C9C"/>
</g>
</g>
<defs>
<filter id="filter0_f_797_412" x="8" y="1282" width="743" height="743" filterUnits="userSpaceOnUse" color-interpolation-filters="sRGB">
<feFlood flood-opacity="0" result="BackgroundImageFix"/>
<feBlend mode="normal" in="SourceGraphic" in2="BackgroundImageFix" result="shape"/>
<feGaussianBlur stdDeviation="1" result="effect1_foregroundBlur_797_412"/>
</filter>
<filter id="filter1_f_797_412" x="6" y="1110" width="917" height="917" filterUnits="userSpaceOnUse" color-interpolation-filters="sRGB">
<feFlood flood-opacity="0" result="BackgroundImageFix"/>
<feBlend mode="normal" in="SourceGraphic" in2="BackgroundImageFix" result="shape"/>
<feGaussianBlur stdDeviation="2" result="effect1_foregroundBlur_797_412"/>
</filter>
<filter id="filter2_f_797_412" x="4" y="858" width="1171" height="1171" filterUnits="userSpaceOnUse" color-interpolation-filters="sRGB">
<feFlood flood-opacity="0" result="BackgroundImageFix"/>
<feBlend mode="normal" in="SourceGraphic" in2="BackgroundImageFix" result="shape"/>
<feGaussianBlur stdDeviation="3" result="effect1_foregroundBlur_797_412"/>
</filter>
<filter id="filter3_f_797_412" x="2" y="601" width="1430" height="1430" filterUnits="userSpaceOnUse" color-interpolation-filters="sRGB">
<feFlood flood-opacity="0" result="BackgroundImageFix"/>
<feBlend mode="normal" in="SourceGraphic" in2="BackgroundImageFix" result="shape"/>
<feGaussianBlur stdDeviation="4" result="effect1_foregroundBlur_797_412"/>
</filter>
<filter id="filter4_f_797_412" x="0" y="259" width="1774" height="1774" filterUnits="userSpaceOnUse" color-interpolation-filters="sRGB">
<feFlood flood-opacity="0" result="BackgroundImageFix"/>
<feBlend mode="normal" in="SourceGraphic" in2="BackgroundImageFix" result="shape"/>
<feGaussianBlur stdDeviation="5" result="effect1_foregroundBlur_797_412"/>
</filter>
</defs>
</svg>
