<svg>
	<symbol id="facebook" width="32" height="32" viewBox="0 0 32 32" fill="none" xmlns="http://www.w3.org/2000/svg">
		<g opacity="0.5">
            <rect width="32" height="32" rx="16" fill="#717171"/>
            <path d="M19.5742 17.3503L20.0008 14.5995L17.3335 14.5995L17.3335 12.8143C17.3335 12.0618 17.7061 11.3282 18.9007 11.3282L20.1133 11.3282L20.1133 8.98614C20.1133 8.98614 19.0129 8.80029 17.9608 8.80029C15.7642 8.80029 14.3284 10.1178 14.3284 12.5029L14.3284 14.5995L11.8867 14.5995L11.8867 17.3503L14.3284 17.3503L14.3284 24.0003L17.3335 24.0003L17.3335 17.3503L19.5742 17.3503Z" fill="white"/>
        </g>
	</symbol>
	<symbol id="instagram"  width="32" height="32" viewBox="0 0 32 32" fill="none" xmlns="http://www.w3.org/2000/svg">
		<g opacity="0.5">
            <rect width="32" height="32" rx="16" fill="#717171"/>
            <g clip-path="url(#clip0_394_882)">
                <path d="M16.0037 11.5949C13.5125 11.5949 11.503 13.5601 11.503 15.9964C11.503 18.4326 13.5125 20.3978 16.0037 20.3978C18.495 20.3978 20.5044 18.4326 20.5044 15.9964C20.5044 13.5601 18.495 11.5949 16.0037 11.5949ZM16.0037 18.8579C14.3938 18.8579 13.0777 17.5746 13.0777 15.9964C13.0777 14.4181 14.3899 13.1349 16.0037 13.1349C17.6175 13.1349 18.9297 14.4181 18.9297 15.9964C18.9297 17.5746 17.6136 18.8579 16.0037 18.8579ZM21.7383 11.4149C21.7383 11.9857 21.2682 12.4415 20.6885 12.4415C20.1049 12.4415 19.6387 11.9818 19.6387 11.4149C19.6387 10.848 20.1088 10.3883 20.6885 10.3883C21.2682 10.3883 21.7383 10.848 21.7383 11.4149ZM24.7191 12.4568C24.6526 11.0816 24.3314 9.8635 23.3012 8.85987C22.2749 7.85624 21.0293 7.54213 19.6231 7.47317C18.1738 7.39273 13.8297 7.39273 12.3804 7.47317C10.9781 7.5383 9.73251 7.85241 8.70232 8.85604C7.67214 9.85967 7.35486 11.0778 7.28435 12.453C7.20209 13.8704 7.20209 18.1185 7.28435 19.5359C7.35094 20.9111 7.67214 22.1292 8.70232 23.1329C9.73251 24.1365 10.9742 24.4506 12.3804 24.5195C13.8297 24.6 18.1738 24.6 19.6231 24.5195C21.0293 24.4544 22.2749 24.1403 23.3012 23.1329C24.3274 22.1292 24.6486 20.9111 24.7191 19.5359C24.8014 18.1185 24.8014 13.8742 24.7191 12.4568ZM22.8468 21.0566C22.5413 21.8074 21.9498 22.3859 21.1781 22.6885C20.0226 23.1367 17.2807 23.0333 16.0037 23.0333C14.7267 23.0333 11.9809 23.1329 10.8293 22.6885C10.0615 22.3897 9.47006 21.8113 9.16062 21.0566C8.70232 19.9266 8.80808 17.2451 8.80808 15.9964C8.80808 14.7476 8.70624 12.0623 9.16062 10.9361C9.46615 10.1853 10.0576 9.60684 10.8293 9.30422C11.9848 8.85604 14.7267 8.95946 16.0037 8.95946C17.2807 8.95946 20.0265 8.85987 21.1781 9.30422C21.9459 9.60301 22.5373 10.1814 22.8468 10.9361C23.3051 12.0661 23.1993 14.7476 23.1993 15.9964C23.1993 17.2451 23.3051 19.9304 22.8468 21.0566Z" fill="white"/>
            </g>
        </g>
        <defs>
        <clipPath id="clip0_394_882">
        <rect width="17.5484" height="19.6129" fill="white" transform="translate(7.22559 6.1936)"/>
        </clipPath>
        </defs>
	</symbol>
	<symbol id="telegram" width="32" height="32" viewBox="0 0 32 32" fill="none" xmlns="http://www.w3.org/2000/svg">
		<g>
            <path d="M15.8333 0C11.6341 0 7.6068 1.66815 4.63748 4.63748C1.66815 7.6068 0 11.6341 0 15.8333C0 20.0326 1.66815 24.0599 4.63748 27.0292C7.6068 29.9985 11.6341 31.6667 15.8333 31.6667C20.0326 31.6667 24.0599 29.9985 27.0292 27.0292C29.9985 24.0599 31.6667 20.0326 31.6667 15.8333C31.6667 11.6341 29.9985 7.6068 27.0292 4.63748C24.0599 1.66815 20.0326 0 15.8333 0V0Z" fill="#29B6F6"/>
            <path d="M23.7104 8.70866L20.7448 23.8501C20.7448 23.8501 20.6174 24.542 19.7592 24.542C19.3032 24.542 19.0681 24.3251 19.0681 24.3251L12.6445 18.9948L9.50158 17.4107L5.46804 16.338C5.46804 16.338 4.75 16.1305 4.75 15.5368C4.75 15.042 5.48862 14.8061 5.48862 14.8061L22.3638 8.10224C22.363 8.10145 22.8792 7.9162 23.2552 7.91699C23.4864 7.91699 23.75 8.01595 23.75 8.31283C23.75 8.51074 23.7104 8.70866 23.7104 8.70866Z" fill="white"/>
            <path d="M15.041 20.9834L12.3288 23.6545C12.3288 23.6545 12.2108 23.7455 12.0533 23.7495C11.9986 23.7511 11.94 23.7424 11.8799 23.7155L12.643 18.9932L15.041 20.9834Z" fill="#B0BEC5"/>
            <path d="M20.5018 11.2386C20.368 11.0644 20.121 11.0327 19.9468 11.165L9.5 17.4167C9.5 17.4167 11.1672 22.0812 11.4214 22.8887C11.6763 23.697 11.8805 23.716 11.8805 23.716L12.6437 18.9937L20.4274 11.7927C20.6015 11.6605 20.634 11.4127 20.5018 11.2386Z" fill="#CFD8DC"/>
        </g>
	</symbol>
    <symbol id="viber" width="32" height="32" viewBox="0 0 32 32" fill="none" xmlns="http://www.w3.org/2000/svg">
		<g>
            <path d="M24 0C37.2548 0 48 10.7452 48 24C48 37.2548 37.2548 48 24 48C10.7452 48 0 37.2548 0 24C0 10.7452 10.7452 0 24 0Z" fill="#7F4DA0"/>
            <path d="M30.3938 20.9585C30.2771 20.0102 29.9856 19.2656 29.468 18.606C28.7958 17.7567 27.9369 17.2482 26.6652 16.9465C25.8364 16.7454 25.5016 16.7685 25.2019 17.0423C24.9227 17.2988 24.8682 17.813 25.0815 18.1461C25.2316 18.3878 25.4047 18.4743 25.8861 18.5688C26.5272 18.6868 26.9703 18.8399 27.3733 19.0703C28.2287 19.5643 28.6271 20.3372 28.6698 21.5886C28.6897 22.1761 28.7405 22.3567 28.9457 22.5651C29.326 22.946 30.0029 22.872 30.2901 22.4161C30.3954 22.2443 30.4115 22.1695 30.4226 21.7706C30.43 21.5236 30.4193 21.1559 30.3938 20.9585Z" fill="white"/>
            <path d="M33.7443 22.0277C33.5754 19.1223 32.439 16.7848 30.4052 15.1402C29.2593 14.216 27.8742 13.5806 26.356 13.2716C25.7998 13.161 24.7759 13.0715 24.6002 13.1227C24.4344 13.1702 24.2 13.3496 24.0955 13.512C23.9849 13.688 23.96 14.081 24.0543 14.3083C24.2065 14.6883 24.4895 14.8226 25.2823 14.892C26.5044 14.9989 27.7649 15.4282 28.7173 16.0639C29.8046 16.7876 30.669 17.7775 31.2281 18.9407C31.7113 19.9402 32.0084 21.3805 32.0002 22.6703C31.9974 23.1367 32.0695 23.4002 32.257 23.5928C32.5402 23.8889 32.953 23.9537 33.3173 23.757C33.721 23.5447 33.8154 23.172 33.7443 22.0277Z" fill="white"/>
            <path d="M37.4521 33.2164C37.3953 33.0503 37.2627 32.7942 37.168 32.6471C36.5711 31.7458 33.3644 29.2363 31.7634 28.4156C30.8492 27.946 30.1719 27.7895 29.6698 27.9364C29.1298 28.0883 28.8456 28.3397 27.9409 29.464C27.5762 29.9147 27.202 30.3369 27.1025 30.4033C26.8562 30.5741 26.373 30.7117 26.032 30.7117C25.241 30.7069 23.8058 30.1946 22.7021 29.5209C21.8448 28.9991 20.7459 28.0646 19.9027 27.1395C18.908 26.0532 18.2307 25.0949 17.6954 24.0133C17.0039 22.6234 16.8286 21.7741 17.1175 21.1526C17.1886 20.9961 17.2834 20.8302 17.3259 20.778C17.3686 20.7306 17.8139 20.3653 18.3064 19.9668C19.2728 19.1983 19.4291 19.0228 19.609 18.4962C19.8364 17.8273 19.7749 17.1442 19.4243 16.4564C19.1543 15.9345 18.4486 14.796 17.937 14.0607C17.2597 13.093 15.5734 11.0247 15.237 10.7447C14.6308 10.2514 13.854 10.166 12.9966 10.4981C12.092 10.8491 10.3962 12.2154 9.67143 13.1689C9.01777 14.0323 8.7668 14.6442 8.72887 15.4506C8.69574 16.1148 8.75256 16.3899 9.10308 17.2391C11.8456 23.8994 15.9381 29.2173 21.5606 33.4394C24.4973 35.6452 27.543 37.3246 30.7024 38.4727C32.5449 39.1415 33.3454 39.1747 34.288 38.6245C34.6859 38.3872 35.6711 37.3768 36.2206 36.6415C37.13 35.4175 37.4664 34.8531 37.5611 34.4024C37.6274 34.094 37.5753 33.558 37.4521 33.2164Z" fill="white"/>
            <path d="M37.1552 22.695C37.0945 21.0516 36.8178 19.7036 36.2408 18.2006C35.6712 16.7223 35.0947 15.7575 34.0059 14.4527C32.9766 13.2293 32.177 12.5307 30.909 11.7532C29.1399 10.6698 26.9869 9.9528 24.5741 9.65128C23.7513 9.5459 23.5651 9.55343 23.3127 9.72187C22.8235 10.041 22.83 10.8368 23.3207 11.1511C23.4832 11.2511 23.6273 11.2876 24.2855 11.3737C25.2959 11.5097 25.9456 11.6379 26.7165 11.8483C29.7395 12.6746 32.0642 14.3638 33.6184 16.8713C34.919 18.9612 35.4589 21.0514 35.3823 23.7209C35.3556 24.6233 35.375 24.7821 35.5129 24.999C35.7771 25.4031 36.4738 25.4831 36.8312 25.1477C37.0536 24.9433 37.0955 24.7899 37.1393 24.0175C37.1603 23.6145 37.1648 23.0197 37.1552 22.695Z" fill="white"/>
        </g>
	</symbol>
</svg>
