<svg>
	<symbol id="facebook" width="32" height="32" viewBox="0 0 32 32" fill="none" xmlns="http://www.w3.org/2000/svg">
		<g opacity="0.5">
            <rect width="32" height="32" rx="16" fill="#717171"/>
            <path d="M19.5742 17.3503L20.0008 14.5995L17.3335 14.5995L17.3335 12.8143C17.3335 12.0618 17.7061 11.3282 18.9007 11.3282L20.1133 11.3282L20.1133 8.98614C20.1133 8.98614 19.0129 8.80029 17.9608 8.80029C15.7642 8.80029 14.3284 10.1178 14.3284 12.5029L14.3284 14.5995L11.8867 14.5995L11.8867 17.3503L14.3284 17.3503L14.3284 24.0003L17.3335 24.0003L17.3335 17.3503L19.5742 17.3503Z" fill="white"/>
        </g>
	</symbol>
	<symbol id="instagram"  width="32" height="32" viewBox="0 0 32 32" fill="none" xmlns="http://www.w3.org/2000/svg">
		<g opacity="0.5">
            <rect width="32" height="32" rx="16" fill="#717171"/>
            <g clip-path="url(#clip0_394_882)">
                <path d="M16.0037 11.5949C13.5125 11.5949 11.503 13.5601 11.503 15.9964C11.503 18.4326 13.5125 20.3978 16.0037 20.3978C18.495 20.3978 20.5044 18.4326 20.5044 15.9964C20.5044 13.5601 18.495 11.5949 16.0037 11.5949ZM16.0037 18.8579C14.3938 18.8579 13.0777 17.5746 13.0777 15.9964C13.0777 14.4181 14.3899 13.1349 16.0037 13.1349C17.6175 13.1349 18.9297 14.4181 18.9297 15.9964C18.9297 17.5746 17.6136 18.8579 16.0037 18.8579ZM21.7383 11.4149C21.7383 11.9857 21.2682 12.4415 20.6885 12.4415C20.1049 12.4415 19.6387 11.9818 19.6387 11.4149C19.6387 10.848 20.1088 10.3883 20.6885 10.3883C21.2682 10.3883 21.7383 10.848 21.7383 11.4149ZM24.7191 12.4568C24.6526 11.0816 24.3314 9.8635 23.3012 8.85987C22.2749 7.85624 21.0293 7.54213 19.6231 7.47317C18.1738 7.39273 13.8297 7.39273 12.3804 7.47317C10.9781 7.5383 9.73251 7.85241 8.70232 8.85604C7.67214 9.85967 7.35486 11.0778 7.28435 12.453C7.20209 13.8704 7.20209 18.1185 7.28435 19.5359C7.35094 20.9111 7.67214 22.1292 8.70232 23.1329C9.73251 24.1365 10.9742 24.4506 12.3804 24.5195C13.8297 24.6 18.1738 24.6 19.6231 24.5195C21.0293 24.4544 22.2749 24.1403 23.3012 23.1329C24.3274 22.1292 24.6486 20.9111 24.7191 19.5359C24.8014 18.1185 24.8014 13.8742 24.7191 12.4568ZM22.8468 21.0566C22.5413 21.8074 21.9498 22.3859 21.1781 22.6885C20.0226 23.1367 17.2807 23.0333 16.0037 23.0333C14.7267 23.0333 11.9809 23.1329 10.8293 22.6885C10.0615 22.3897 9.47006 21.8113 9.16062 21.0566C8.70232 19.9266 8.80808 17.2451 8.80808 15.9964C8.80808 14.7476 8.70624 12.0623 9.16062 10.9361C9.46615 10.1853 10.0576 9.60684 10.8293 9.30422C11.9848 8.85604 14.7267 8.95946 16.0037 8.95946C17.2807 8.95946 20.0265 8.85987 21.1781 9.30422C21.9459 9.60301 22.5373 10.1814 22.8468 10.9361C23.3051 12.0661 23.1993 14.7476 23.1993 15.9964C23.1993 17.2451 23.3051 19.9304 22.8468 21.0566Z" fill="white"/>
            </g>
        </g>
        <defs>
        <clipPath id="clip0_394_882">
        <rect width="17.5484" height="19.6129" fill="white" transform="translate(7.22559 6.1936)"/>
        </clipPath>
        </defs>
	</symbol>
	<symbol id="telegram" width="32" height="32" viewBox="0 0 32 32" fill="none" xmlns="http://www.w3.org/2000/svg">
		<g>
            <path d="M15.8333 0C11.6341 0 7.6068 1.66815 4.63748 4.63748C1.66815 7.6068 0 11.6341 0 15.8333C0 20.0326 1.66815 24.0599 4.63748 27.0292C7.6068 29.9985 11.6341 31.6667 15.8333 31.6667C20.0326 31.6667 24.0599 29.9985 27.0292 27.0292C29.9985 24.0599 31.6667 20.0326 31.6667 15.8333C31.6667 11.6341 29.9985 7.6068 27.0292 4.63748C24.0599 1.66815 20.0326 0 15.8333 0V0Z" fill="#29B6F6"/>
            <path d="M23.7104 8.70866L20.7448 23.8501C20.7448 23.8501 20.6174 24.542 19.7592 24.542C19.3032 24.542 19.0681 24.3251 19.0681 24.3251L12.6445 18.9948L9.50158 17.4107L5.46804 16.338C5.46804 16.338 4.75 16.1305 4.75 15.5368C4.75 15.042 5.48862 14.8061 5.48862 14.8061L22.3638 8.10224C22.363 8.10145 22.8792 7.9162 23.2552 7.91699C23.4864 7.91699 23.75 8.01595 23.75 8.31283C23.75 8.51074 23.7104 8.70866 23.7104 8.70866Z" fill="white"/>
            <path d="M15.041 20.9834L12.3288 23.6545C12.3288 23.6545 12.2108 23.7455 12.0533 23.7495C11.9986 23.7511 11.94 23.7424 11.8799 23.7155L12.643 18.9932L15.041 20.9834Z" fill="#B0BEC5"/>
            <path d="M20.5018 11.2386C20.368 11.0644 20.121 11.0327 19.9468 11.165L9.5 17.4167C9.5 17.4167 11.1672 22.0812 11.4214 22.8887C11.6763 23.697 11.8805 23.716 11.8805 23.716L12.6437 18.9937L20.4274 11.7927C20.6015 11.6605 20.634 11.4127 20.5018 11.2386Z" fill="#CFD8DC"/>
        </g>
	</symbol>
    <symbol id="telegram-sm" width="24" height="24" viewBox="0 0 24 24" fill="none" xmlns="http://www.w3.org/2000/svg">
        <path d="M12 0C8.8174 0 5.76516 1.26428 3.51472 3.51472C1.26428 5.76516 0 8.8174 0 12C0 15.1826 1.26428 18.2348 3.51472 20.4853C5.76516 22.7357 8.8174 24 12 24C15.1826 24 18.2348 22.7357 20.4853 20.4853C22.7357 18.2348 24 15.1826 24 12C24 8.8174 22.7357 5.76516 20.4853 3.51472C18.2348 1.26428 15.1826 0 12 0V0Z" fill="#29B6F6"/>
        <path d="M17.9706 6.6L15.723 18.0756C15.723 18.0756 15.6264 18.6 14.976 18.6C14.6304 18.6 14.4522 18.4356 14.4522 18.4356L9.58379 14.3958L7.20179 13.1952L4.14479 12.3822C4.14479 12.3822 3.60059 12.225 3.60059 11.775C3.60059 11.4 4.16039 11.2212 4.16039 11.2212L16.95 6.1404C16.9494 6.1398 17.3406 5.9994 17.6256 6C17.8008 6 18.0006 6.075 18.0006 6.3C18.0006 6.45 17.9706 6.6 17.9706 6.6Z" fill="white"/>
        <path d="M11.3997 15.9029L9.34411 17.9273C9.34411 17.9273 9.25471 17.9963 9.13531 17.9993C9.09391 18.0005 9.04951 17.9939 9.00391 17.9735L9.58231 14.3945L11.3997 15.9029Z" fill="#B0BEC5"/>
        <path d="M15.5384 8.51793C15.437 8.38593 15.2498 8.36193 15.1178 8.46213L7.2002 13.2003C7.2002 13.2003 8.4638 16.7355 8.65639 17.3475C8.84959 17.9601 9.00439 17.9745 9.00439 17.9745L9.5828 14.3955L15.482 8.93793C15.614 8.83773 15.6386 8.64993 15.5384 8.51793Z" fill="#CFD8DC"/>
    </symbol>
    <symbol id="viber-sm" width="24" height="24" viewBox="0 0 24 24" fill="none" xmlns="http://www.w3.org/2000/svg">
        <rect x="0.5" y="0.5" width="23" height="23" rx="11.5" fill="white"/>
        <path fill-rule="evenodd" clip-rule="evenodd" d="M12 -1.19209e-07C18.6274 -1.19209e-07 24 5.37258 24 12C24 18.6274 18.6274 24 12 24C5.37258 24 0 18.6274 0 12C0 5.37258 5.37258 -1.19209e-07 12 -1.19209e-07ZM12.7187 4.88807C13.5347 4.98991 14.194 5.18645 14.9175 5.53933C15.629 5.8875 16.0845 6.21668 16.6869 6.81586C17.2515 7.3819 17.5646 7.8106 17.8966 8.47609C18.3592 9.40449 18.6224 10.5081 18.6675 11.7231C18.6841 12.1375 18.6722 12.2299 18.5773 12.3483C18.3971 12.5781 18.001 12.5401 17.8658 12.282C17.8231 12.1967 17.8112 12.1234 17.797 11.7918C17.7733 11.2826 17.7377 10.9534 17.6666 10.5602C17.3867 9.01846 16.6466 7.7869 15.4654 6.9035C14.481 6.16459 13.4635 5.80459 12.1305 5.72644C11.6798 5.70039 11.6015 5.68384 11.4995 5.60568C11.3097 5.45646 11.3003 5.10597 11.4829 4.94255C11.5944 4.84069 11.6727 4.82648 12.0593 4.83832C12.2609 4.84542 12.5574 4.86912 12.7187 4.88807ZM7.29647 5.14386C7.37951 5.17226 7.50759 5.23857 7.58113 5.28594C8.03177 5.58437 9.28651 7.1877 9.69687 7.98822C9.93167 8.44529 10.01 8.78397 9.93646 9.03502C9.86051 9.30501 9.73485 9.44711 9.17268 9.89947C8.94734 10.0818 8.73621 10.2689 8.70303 10.3187C8.61763 10.4418 8.54883 10.6834 8.54883 10.8539C8.55124 11.2494 8.80741 11.967 9.14423 12.5189C9.40511 12.9475 9.87235 13.497 10.3349 13.9186C10.8781 14.4159 11.3572 14.7545 11.898 15.0222C12.593 15.368 13.0176 15.4556 13.3283 15.3111C13.4066 15.2756 13.4896 15.2282 13.5157 15.2069C13.5394 15.1856 13.722 14.963 13.9213 14.7167C14.3055 14.2335 14.3933 14.1554 14.6566 14.0654C14.991 13.9517 15.3326 13.9825 15.6765 14.1577C15.9374 14.2928 16.5067 14.6456 16.8743 14.9014C17.3582 15.2401 18.3923 16.0832 18.5323 16.2514C18.779 16.5545 18.8217 16.9429 18.6556 17.3716C18.4801 17.8239 17.797 18.6718 17.3202 19.0342C16.8885 19.361 16.5826 19.4865 16.1793 19.5055C15.8473 19.522 15.7097 19.4936 15.2851 19.3184C11.955 17.9471 9.29601 15.9009 7.18497 13.0896C6.08205 11.6213 5.24237 10.0984 4.66834 8.51874C4.33393 7.59747 4.31734 7.19718 4.59245 6.72589C4.71108 6.52696 5.21629 6.03434 5.58393 5.75962C6.19591 5.30489 6.47815 5.13673 6.70349 5.08937C6.85766 5.05621 7.12567 5.08227 7.29647 5.14386ZM12.8823 6.60509C14.3221 6.81586 15.4369 7.48377 16.1675 8.56846C16.5778 9.17949 16.834 9.89709 16.9218 10.6668C16.9526 10.9486 16.9526 11.4626 16.9194 11.5478C16.8885 11.6283 16.7889 11.7373 16.7035 11.7823C16.611 11.8296 16.4142 11.8249 16.3051 11.7681C16.1224 11.6757 16.0679 11.5289 16.0679 11.131C16.0679 10.5176 15.9089 9.87104 15.6338 9.36894C15.3207 8.79581 14.8653 8.32216 14.3103 7.99295C13.8335 7.70875 13.1291 7.49798 12.4863 7.44589C12.2538 7.42692 12.1257 7.37955 12.0379 7.27771C11.9028 7.12376 11.8885 6.91535 12.0024 6.74248C12.1257 6.55064 12.3154 6.51982 12.8823 6.60509ZM13.3876 8.39319C13.8548 8.49266 14.213 8.6703 14.519 8.95687C14.9127 9.32868 15.1286 9.77867 15.2234 10.4252C15.2875 10.8468 15.2614 11.0126 15.112 11.1499C14.972 11.2778 14.7135 11.2826 14.5569 11.1618C14.4431 11.0765 14.4075 10.9865 14.3814 10.7426C14.3506 10.4181 14.2937 10.1908 14.1964 9.97998C13.9877 9.53237 13.62 9.30027 12.9986 9.22449C12.7068 9.18895 12.6191 9.15581 12.5242 9.04451C12.3511 8.83846 12.4174 8.50452 12.657 8.38136C12.7472 8.33636 12.7851 8.33163 12.9843 8.34347C13.1077 8.35057 13.2904 8.37186 13.3876 8.39319Z" fill="#6F3FAA"/>
        <rect x="0.5" y="0.5" width="23" height="23" rx="11.5" stroke="#6F3FAA"/>
    </symbol>
    <symbol id="viber" width="32" height="32" viewBox="0 0 32 32" fill="none" xmlns="http://www.w3.org/2000/svg">
        <rect x="0.5" y="0.5" width="31" height="31" rx="15.5" fill="white"/>
        <path fill-rule="evenodd" clip-rule="evenodd" d="M16 -1.19209e-06C24.8366 -1.19209e-06 32 7.16344 32 16C32 24.8366 24.8366 32 16 32C7.16344 32 0 24.8366 0 16C0 7.16344 7.16344 -1.19209e-06 16 -1.19209e-06ZM16.9583 6.51743C18.0462 6.65321 18.9254 6.91527 19.89 7.38578C20.8387 7.85 21.4459 8.28891 22.2492 9.08781C23.002 9.84253 23.4194 10.4141 23.8622 11.3015C24.4789 12.5393 24.8299 14.0108 24.89 15.6308C24.9122 16.1834 24.8963 16.3066 24.7698 16.4644C24.5295 16.7708 24.0013 16.7202 23.8211 16.376C23.7641 16.2623 23.7483 16.1645 23.7293 15.7224C23.6977 15.0434 23.6503 14.6045 23.5554 14.0803C23.1822 12.0246 22.1955 10.3825 20.6205 9.20466C19.308 8.21945 17.9513 7.73945 16.174 7.63525C15.5731 7.60052 15.4687 7.57846 15.3327 7.47423C15.0796 7.27528 15.0671 6.80795 15.3105 6.59007C15.4592 6.45426 15.5635 6.43531 16.0791 6.4511C16.3479 6.46056 16.7432 6.49216 16.9583 6.51743ZM9.72863 6.85847C9.83934 6.89635 10.0101 6.98476 10.1082 7.04793C10.709 7.44582 12.382 9.5836 12.9292 10.651C13.2422 11.2604 13.3466 11.712 13.2486 12.0467C13.1474 12.4067 12.9798 12.5961 12.2302 13.1993C11.9298 13.4424 11.6483 13.6919 11.604 13.7582C11.4902 13.9224 11.3984 14.2445 11.3984 14.4719C11.4016 14.9992 11.7432 15.956 12.1923 16.6918C12.5401 17.2634 13.1631 17.9959 13.7799 18.5581C14.5041 19.2212 15.1429 19.6727 15.864 20.0296C16.7906 20.4906 17.3568 20.6074 17.7711 20.4149C17.8754 20.3675 17.9861 20.3043 18.0209 20.2759C18.0525 20.2475 18.296 19.9506 18.5617 19.6223C19.074 18.978 19.1911 18.8739 19.5421 18.7539C19.9881 18.6023 20.4435 18.6433 20.902 18.877C21.2499 19.057 22.0089 19.5275 22.4991 19.8685C23.1442 20.3201 24.5231 21.4443 24.7098 21.6685C25.0386 22.0727 25.0956 22.5905 24.8742 23.1621C24.6401 23.7652 23.7293 24.8958 23.0936 25.3789C22.5181 25.8147 22.1101 25.982 21.5725 26.0073C21.1297 26.0294 20.9463 25.9915 20.3802 25.7578C15.9399 23.9294 12.3947 21.2012 9.57997 17.4528C8.1094 15.495 6.98983 13.4646 6.22446 11.3583C5.77857 10.13 5.75646 9.59624 6.12327 8.96785C6.28143 8.70261 6.95505 8.04578 7.44524 7.6795C8.26121 7.07318 8.63754 6.84897 8.93799 6.78583C9.14355 6.74161 9.5009 6.77636 9.72863 6.85847ZM17.1765 8.80679C19.0962 9.08781 20.5826 9.97836 21.5566 11.4246C22.1038 12.2393 22.4453 13.1961 22.5624 14.2224C22.6034 14.5982 22.6034 15.2834 22.5592 15.3971C22.518 15.5045 22.3852 15.6497 22.2714 15.7097C22.148 15.7729 21.8856 15.7666 21.7401 15.6908C21.4965 15.5676 21.4238 15.3718 21.4238 14.8413C21.4238 14.0235 21.2119 13.1614 20.8451 12.4919C20.4276 11.7277 19.8204 11.0962 19.0804 10.6573C18.4447 10.2783 17.5054 9.99731 16.6484 9.92785C16.3384 9.90256 16.1676 9.83939 16.0506 9.70361C15.8704 9.49834 15.8514 9.22047 16.0032 8.98997C16.1676 8.73418 16.4206 8.6931 17.1765 8.80679ZM17.8501 11.1909C18.4731 11.3236 18.9507 11.5604 19.3587 11.9425C19.8836 12.4382 20.1715 13.0382 20.2979 13.9003C20.3833 14.4624 20.3486 14.6834 20.1493 14.8666C19.9627 15.0371 19.618 15.0434 19.4093 14.8824C19.2575 14.7687 19.21 14.6487 19.1752 14.3235C19.1341 13.8908 19.0582 13.5877 18.9286 13.3066C18.6503 12.7098 18.16 12.4004 17.3315 12.2993C16.9424 12.2519 16.8254 12.2077 16.699 12.0593C16.4681 11.7846 16.5566 11.3394 16.876 11.1751C16.9962 11.1151 17.0469 11.1088 17.3125 11.1246C17.4769 11.1341 17.7205 11.1625 17.8501 11.1909Z" fill="#6F3FAA"/>
        <rect x="0.5" y="0.5" width="31" height="31" rx="15.5" stroke="#6F3FAA"/>
    </symbol>
    <symbol id="vk" width="32" height="32" viewBox="0 0 32 32" fill="none" xmlns="http://www.w3.org/2000/svg">
        <rect x="0.5" y="0.5" width="31" height="31" rx="15.5" fill="#81858A"/>
        <path d="M16 0C7.164 0 0 7.164 0 16C0 24.836 7.164 32 16 32C24.836 32 32 24.836 32 16C32 7.164 24.836 0 16 0ZM24.4587 21.5507H21.9693C20.5627 21.5507 20.3267 20.7493 19.1667 19.592C18.12 18.5453 17.54 19.348 17.564 20.8387C17.572 21.2347 17.376 21.5507 16.904 21.5507C15.4307 21.5507 13.312 21.7587 11.1653 19.444C8.96933 17.072 6.66667 12.3133 6.66667 11.8453C6.66667 11.568 6.896 11.444 7.27867 11.444H9.80933C10.48 11.444 10.536 11.776 10.724 12.2013C11.5027 13.976 13.3653 17.5373 13.8627 15.5493C14.148 14.408 14.264 11.764 13.0427 11.536C12.3493 11.408 13.5707 10.6667 15.3387 10.6667C15.7787 10.6667 16.256 10.7133 16.744 10.8267C17.6413 11.0347 17.6453 11.4373 17.632 12.024C17.5867 14.2453 17.3187 15.7387 17.904 16.116C18.4627 16.4773 19.932 14.1133 20.7093 12.288C20.9213 11.784 20.964 11.4453 21.5667 11.4453H24.6627C26.284 11.4453 24.4507 13.776 23.0493 15.5947C21.92 17.06 21.98 17.088 23.2933 18.3067C24.228 19.1747 25.3333 20.36 25.3333 21.0307C25.3333 21.348 25.0853 21.5507 24.4587 21.5507Z" fill="#3A3E43"/>
        <rect x="0.5" y="0.5" width="31" height="31" rx="15.5" stroke="#3A3E43"/>
    </symbol>
    <symbol id="whatsapp" width="32" height="32" viewBox="0 0 32 32" fill="none" xmlns="http://www.w3.org/2000/svg">
        <rect  transform="translate(4,4)" x="0.5" y="0.5" width="23" height="23" rx="11.5" fill="white"/>
        <path  transform="translate(4,4)" d="M12.031 6.172C8.85 6.172 6.264 8.758 6.263 11.938C6.262 13.236 6.643 14.208 7.282 15.225L6.7 17.353L8.882 16.78C9.86 17.36 10.793 17.708 12.027 17.709C15.205 17.709 17.794 15.122 17.795 11.943C17.796 8.756 15.22 6.173 12.031 6.172V6.172ZM15.423 14.416C15.279 14.821 14.586 15.19 14.253 15.24C13.954 15.285 13.576 15.303 13.161 15.171C12.909 15.091 12.586 14.984 12.173 14.806C10.434 14.055 9.299 12.304 9.212 12.189C9.125 12.073 8.504 11.249 8.504 10.396C8.504 9.543 8.952 9.123 9.111 8.95C9.27 8.777 9.457 8.733 9.573 8.733L9.905 8.739C10.011 8.744 10.154 8.699 10.295 9.037C10.439 9.384 10.786 10.237 10.829 10.324C10.872 10.411 10.901 10.512 10.843 10.628C10.785 10.744 10.756 10.816 10.67 10.917L10.41 11.221C10.323 11.307 10.233 11.401 10.334 11.575C10.435 11.749 10.783 12.316 11.298 12.776C11.96 13.367 12.519 13.55 12.692 13.636C12.865 13.722 12.966 13.708 13.068 13.593C13.169 13.477 13.501 13.087 13.617 12.913C13.733 12.74 13.848 12.768 14.007 12.826C14.166 12.884 15.018 13.303 15.191 13.39C15.364 13.477 15.48 13.52 15.523 13.592C15.568 13.664 15.568 14.011 15.423 14.416V14.416ZM12 0C5.373 0 0 5.373 0 12C0 18.627 5.373 24 12 24C18.627 24 24 18.627 24 12C24 5.373 18.627 0 12 0ZM12.029 18.88C10.868 18.88 9.724 18.588 8.711 18.036L5.034 19L6.018 15.405C5.411 14.353 5.091 13.159 5.092 11.937C5.093 8.112 8.205 5 12.029 5C13.885 5.001 15.627 5.723 16.936 7.034C18.246 8.345 18.967 10.088 18.966 11.942C18.965 15.767 15.853 18.88 12.029 18.88V18.88Z" fill="#29A71A"/>
        <rect  transform="translate(4,4)" x="0.5" y="0.5" width="23" height="23" rx="11.5" stroke="#29A71A"/>
    </symbol>
    <symbol id="whatsapp-sm"  width="24" height="24" viewBox="0 0 24 24" fill="none" xmlns="http://www.w3.org/2000/svg">
    <path d="M23.5 12C23.5 5.64873 18.3513 0.5 12 0.5C5.64873 0.5 0.5 5.64873 0.5 12C0.5 18.3513 5.64873 23.5 12 23.5C18.3513 23.5 23.5 18.3513 23.5 12Z" fill="white"/>
    <path d="M12.031 6.172C8.85 6.172 6.264 8.758 6.263 11.938C6.262 13.236 6.643 14.208 7.282 15.225L6.7 17.353L8.882 16.78C9.86 17.36 10.793 17.708 12.027 17.709C15.205 17.709 17.794 15.122 17.795 11.943C17.796 8.756 15.22 6.173 12.031 6.172ZM15.423 14.416C15.279 14.821 14.586 15.19 14.253 15.24C13.954 15.285 13.576 15.303 13.161 15.171C12.909 15.091 12.586 14.984 12.173 14.806C10.434 14.055 9.299 12.304 9.212 12.189C9.125 12.073 8.504 11.249 8.504 10.396C8.504 9.543 8.952 9.123 9.111 8.95C9.27 8.777 9.457 8.733 9.573 8.733L9.905 8.739C10.011 8.744 10.154 8.699 10.295 9.037C10.439 9.384 10.786 10.237 10.829 10.324C10.872 10.411 10.901 10.512 10.843 10.628C10.785 10.744 10.756 10.816 10.67 10.917L10.41 11.221C10.323 11.307 10.233 11.401 10.334 11.575C10.435 11.749 10.783 12.316 11.298 12.776C11.96 13.367 12.519 13.55 12.692 13.636C12.865 13.722 12.966 13.708 13.068 13.593C13.169 13.477 13.501 13.087 13.617 12.913C13.733 12.74 13.848 12.768 14.007 12.826C14.166 12.884 15.018 13.303 15.191 13.39C15.364 13.477 15.48 13.52 15.523 13.592C15.568 13.664 15.568 14.011 15.423 14.416ZM12 0C5.373 0 0 5.373 0 12C0 18.627 5.373 24 12 24C18.627 24 24 18.627 24 12C24 5.373 18.627 0 12 0ZM12.029 18.88C10.868 18.88 9.724 18.588 8.711 18.036L5.034 19L6.018 15.405C5.411 14.353 5.091 13.159 5.092 11.937C5.093 8.112 8.205 5 12.029 5C13.885 5.001 15.627 5.723 16.936 7.034C18.246 8.345 18.967 10.088 18.966 11.942C18.965 15.767 15.853 18.88 12.029 18.88Z" fill="#29A71A"/>
    <path d="M23.5 12C23.5 5.64873 18.3513 0.5 12 0.5C5.64873 0.5 0.5 5.64873 0.5 12C0.5 18.3513 5.64873 23.5 12 23.5C18.3513 23.5 23.5 18.3513 23.5 12Z" stroke="#29A71A"/>
    </symbol>


</svg>
