<svg id="telegram" width="24" height="24" viewBox="0 0 24 24" fill="none" xmlns="http://www.w3.org/2000/svg">
<path d="M12 0C8.8174 0 5.76516 1.26428 3.51472 3.51472C1.26428 5.76516 0 8.8174 0 12C0 15.1826 1.26428 18.2348 3.51472 20.4853C5.76516 22.7357 8.8174 24 12 24C15.1826 24 18.2348 22.7357 20.4853 20.4853C22.7357 18.2348 24 15.1826 24 12C24 8.8174 22.7357 5.76516 20.4853 3.51472C18.2348 1.26428 15.1826 0 12 0V0Z" fill="#29B6F6"/>
<path d="M17.9706 6.6L15.723 18.0756C15.723 18.0756 15.6264 18.6 14.976 18.6C14.6304 18.6 14.4522 18.4356 14.4522 18.4356L9.58379 14.3958L7.20179 13.1952L4.14479 12.3822C4.14479 12.3822 3.60059 12.225 3.60059 11.775C3.60059 11.4 4.16039 11.2212 4.16039 11.2212L16.95 6.1404C16.9494 6.1398 17.3406 5.9994 17.6256 6C17.8008 6 18.0006 6.075 18.0006 6.3C18.0006 6.45 17.9706 6.6 17.9706 6.6Z" fill="white"/>
<path d="M11.3997 15.9029L9.34411 17.9273C9.34411 17.9273 9.25471 17.9963 9.13531 17.9993C9.09391 18.0005 9.04951 17.9939 9.00391 17.9735L9.58231 14.3945L11.3997 15.9029Z" fill="#B0BEC5"/>
<path d="M15.5384 8.51793C15.437 8.38593 15.2498 8.36193 15.1178 8.46213L7.2002 13.2003C7.2002 13.2003 8.4638 16.7355 8.65639 17.3475C8.84959 17.9601 9.00439 17.9745 9.00439 17.9745L9.5828 14.3955L15.482 8.93793C15.614 8.83773 15.6386 8.64993 15.5384 8.51793Z" fill="#CFD8DC"/>
</svg>
