<svg width="32" height="32" viewBox="0 0 32 32" fill="none" xmlns="http://www.w3.org/2000/svg">
<path d="M15.8333 0C11.6341 0 7.6068 1.66815 4.63748 4.63748C1.66815 7.6068 0 11.6341 0 15.8333C0 20.0326 1.66815 24.0599 4.63748 27.0292C7.6068 29.9985 11.6341 31.6667 15.8333 31.6667C20.0326 31.6667 24.0599 29.9985 27.0292 27.0292C29.9985 24.0599 31.6667 20.0326 31.6667 15.8333C31.6667 11.6341 29.9985 7.6068 27.0292 4.63748C24.0599 1.66815 20.0326 0 15.8333 0V0Z" fill="#29B6F6"/>
<path d="M23.7104 8.70866L20.7448 23.8501C20.7448 23.8501 20.6174 24.542 19.7592 24.542C19.3032 24.542 19.0681 24.3251 19.0681 24.3251L12.6445 18.9948L9.50158 17.4107L5.46804 16.338C5.46804 16.338 4.75 16.1305 4.75 15.5368C4.75 15.042 5.48862 14.8061 5.48862 14.8061L22.3638 8.10224C22.363 8.10145 22.8792 7.9162 23.2552 7.91699C23.4864 7.91699 23.75 8.01595 23.75 8.31283C23.75 8.51074 23.7104 8.70866 23.7104 8.70866Z" fill="white"/>
<path d="M15.041 20.9834L12.3288 23.6545C12.3288 23.6545 12.2108 23.7455 12.0533 23.7495C11.9986 23.7511 11.94 23.7424 11.8799 23.7155L12.643 18.9932L15.041 20.9834Z" fill="#B0BEC5"/>
<path d="M20.5018 11.2386C20.368 11.0644 20.121 11.0327 19.9468 11.165L9.5 17.4167C9.5 17.4167 11.1672 22.0812 11.4214 22.8887C11.6763 23.697 11.8805 23.716 11.8805 23.716L12.6437 18.9937L20.4274 11.7927C20.6015 11.6605 20.634 11.4127 20.5018 11.2386Z" fill="#CFD8DC"/>
</svg>
