<svg>
	<symbol id="chevron-left" width="8" height="14" viewBox="0 0 8 14" fill="none" xmlns="http://www.w3.org/2000/svg">
		<g>
            <path d="M7 1L1 7L7 13" stroke="#CC4391" stroke-width="2" stroke-linecap="round" stroke-linejoin="round"/>
        </g>
	</symbol>
	<symbol id="chevron-right" width="8" height="14" viewBox="0 0 8 14" fill="none" xmlns="http://www.w3.org/2000/svg">
		<g>
            <path d="M1 13L7 7L1 1" stroke="#CC4391" stroke-width="2" stroke-linecap="round" stroke-linejoin="round"/>
        </g>
	</symbol>
    <symbol id="close-active" width="24" height="24" viewBox="0 0 24 24" fill="none" xmlns="http://www.w3.org/2000/svg">
		<g>
            <rect width="24" height="24" rx="5" fill="#E1E1E1"/>
            <path d="M16.364 7.63672L7.63672 16.364" stroke="#CC4391" stroke-width="2" stroke-linecap="round" stroke-linejoin="round"/>
            <path d="M7.63672 7.63672L16.364 16.364" stroke="#CC4391" stroke-width="2" stroke-linecap="round" stroke-linejoin="round"/>
        </g>
	</symbol>
    <symbol id="close" width="22" height="22" viewBox="0 0 22 22" fill="none" xmlns="http://www.w3.org/2000/svg">
		<g>
            <rect width="22" height="22" rx="5" fill="#E1E1E1"/>
            <path d="M15 7L7 15" stroke="white" stroke-width="2" stroke-linecap="round" stroke-linejoin="round"/>
            <path d="M7 7L15 15" stroke="white" stroke-width="2" stroke-linecap="round" stroke-linejoin="round"/>
        </g>
	</symbol>
    <symbol id="collapse-tab" width="24" height="24" viewBox="0 0 24 24" fill="none" xmlns="http://www.w3.org/2000/svg">
		<g>
            <path id="Vector 2 (Stroke)" fill-rule="evenodd" clip-rule="evenodd" d="M12 9.72847L17.1549 15L18 14.1358L12 8L6 14.1358L6.84511 15L12 9.72847Z" fill="#CC4391"/>
        </g>
	</symbol>
    <symbol id="left" width="48" height="48" viewBox="0 0 48 48" fill="none" xmlns="http://www.w3.org/2000/svg">
		<g>
            <circle cx="24" cy="24" r="24" transform="rotate(-180 24 24)" fill="white"/>
            <path d="M26 18L20 24L26 30" stroke="#CC4391" stroke-width="2" stroke-linecap="round" stroke-linejoin="round"/>
        </g>
	</symbol>
    <symbol id="logo-black" width="128" height="26" viewBox="0 0 197 40" fill="none" xmlns="http://www.w3.org/2000/svg">
		<g clip-path="url(#clip0_80_133)">
            <path d="M20.3596 39.9982C31.604 39.9982 40.7193 31.0443 40.7193 19.9991C40.7193 8.95391 31.604 0 20.3596 0C9.11532 0 0 8.95391 0 19.9991C0 31.0443 9.11532 39.9982 20.3596 39.9982Z" fill="#C94C9C"/>
            <path d="M24.6807 37.2174C33.1532 37.2174 40.0215 30.4707 40.0215 22.1483C40.0215 13.8258 33.1532 7.0791 24.6807 7.0791C16.2082 7.0791 9.33984 13.8258 9.33984 22.1483C9.33984 30.4707 16.2082 37.2174 24.6807 37.2174Z" fill="#CE3E96"/>
            <path d="M40.0214 22.148C40.0231 24.1279 39.6369 26.0897 38.884 27.9264C37.6221 31.023 35.377 33.6372 32.4821 35.3806C29.5873 37.124 26.1971 37.9036 22.8152 37.6037C19.4333 37.3037 16.2402 35.9401 13.71 33.7155C11.1799 31.4909 9.44785 28.524 8.77109 25.2554C8.5617 24.2323 8.45456 23.1915 8.45119 22.148C8.44673 19.5623 9.10127 17.0167 10.3551 14.7433C11.609 12.4698 13.4223 10.5408 15.6296 9.13222C17.837 7.72361 20.3682 6.88019 22.9925 6.67887C25.6167 6.47754 28.2506 6.92471 30.6538 7.97961C32.5155 8.7955 34.1978 9.95942 35.6069 11.4065C37.0085 12.8407 38.1184 14.5246 38.8769 16.3679C39.6324 18.2046 40.021 20.167 40.0214 22.148ZM40.0214 22.148C40.0172 21.1607 39.9154 20.1761 39.7175 19.2082C39.1147 16.2969 37.6231 13.6352 35.4416 11.5776C34.0147 10.2293 32.3275 9.17536 30.4793 8.47796C28.6311 7.78056 26.6594 7.45381 24.6806 7.51699C21.8781 7.59581 19.155 8.44909 16.8237 9.97892C14.4924 11.5088 12.6473 13.6532 11.5002 16.1661C10.3531 18.6791 9.95045 21.4588 10.3384 24.1863C10.7263 26.9138 11.8892 29.4787 13.6935 31.5866C15.4978 33.6945 17.8705 35.2601 20.5394 36.1037C23.2083 36.9473 26.0652 37.0348 28.7824 36.3561C31.4996 35.6774 33.967 34.2601 35.9015 32.2667C37.8359 30.2733 39.1592 27.7845 39.7193 25.0861C39.9158 24.1185 40.0169 23.1346 40.0214 22.148Z" fill="white"/>
            <path d="M28.4739 35.2013C34.7871 35.2013 39.9049 30.1741 39.9049 23.9727C39.9049 17.7713 34.7871 12.7441 28.4739 12.7441C22.1608 12.7441 17.043 17.7713 17.043 23.9727C17.043 30.1741 22.1608 35.2013 28.4739 35.2013Z" fill="#D1519D"/>
            <path d="M39.9041 23.9724C39.9054 26.2413 39.2278 28.4606 37.9556 30.3543C36.6833 32.248 34.8725 33.7327 32.7482 34.6236C30.624 35.5146 28.28 35.7727 26.0076 35.3657C23.7353 34.9587 21.6348 33.9046 19.9674 32.3345C18.2362 30.7082 17.0519 28.6015 16.5729 26.296C16.4168 25.5309 16.3364 24.7528 16.333 23.9724C16.3352 21.2836 17.29 18.6793 19.0335 16.6065C20.777 14.5336 23.2005 13.1213 25.8882 12.612C28.576 12.1027 31.3604 12.528 33.7638 13.8151C36.1671 15.1021 38.0396 17.1706 39.0599 19.6657C39.6194 21.035 39.906 22.497 39.9041 23.9724ZM39.9041 23.9724C39.9014 21.4455 39.0035 18.9982 37.3645 17.0506C35.7254 15.1029 33.4473 13.7764 30.9212 13.2986C28.395 12.8208 25.7784 13.2216 23.5203 14.4321C21.2621 15.6427 19.5033 17.5875 18.5456 19.9328C17.5977 22.2422 17.485 24.8011 18.2262 27.1823C18.9674 29.5635 20.5178 31.6229 22.6184 33.0166C24.719 34.4103 27.2428 35.0541 29.7683 34.8403C32.2939 34.6266 34.6684 33.5683 36.4954 31.8422C37.5768 30.8254 38.4373 29.6037 39.0247 28.2511C39.612 26.8985 39.9142 25.443 39.913 23.9724H39.9041Z" fill="white"/>
            <path d="M21.2695 27.5947H26.3292C26.3292 27.6244 26.5389 30.2133 29.9832 30.2133C31.8386 30.2133 33.5162 29.1258 33.5162 27.9439C33.5162 25.4999 28.995 25.3253 27.7066 25.0617C25.4317 24.62 21.5699 23.6215 21.5699 19.9991C21.5699 16.6158 25.2522 13.8506 29.745 13.8506C35.2241 13.8506 37.9201 16.5861 37.9201 19.1454H33.0968C33.0968 18.674 32.2882 17.6755 29.7432 17.6755C28.0371 17.6755 26.6296 18.7037 26.6296 19.9991C26.6296 21.5563 29.6508 21.5563 30.7314 21.7343C33.4558 22.2336 38.5759 22.8813 38.5759 27.9387C38.5759 31.2329 34.6234 33.9981 29.9832 33.9981C24.0242 34.0068 21.2695 30.1837 21.2695 27.5947Z" fill="black"/>
            <path d="M54.349 31.4054H44.9174L43.6005 34.024H38.3311L48.0008 14.9082H51.5339L60.8429 34.0222H55.6659L54.349 31.4054ZM52.522 27.673L49.6181 21.5263L46.8634 27.673H52.522Z" fill="black"/>
            <path d="M79.5277 29.4347V34.0225H62.6709V14.9067H67.3414V29.4347H79.5277Z" fill="black"/>
            <path d="M87.3424 19.0232V22.4361H95.2172V26.5229H87.3424V29.9427H97.3125V34.0295H82.6719V14.9067H97.3125V19.0232H87.3424Z" fill="black"/>
            <path d="M125.787 14.9067V34.0225H121.115V24.2586L116.535 34.0225H114.498L110.007 24.3564V34.0313H105.307V14.9067H110.007V14.994L115.517 25.7303L121.115 14.9067H125.787Z" fill="black"/>
            <path d="M133.54 19.0232V22.4361H141.413V26.5229H133.54V29.9427H143.51V34.0295H128.868V14.9067H143.51V19.0232H133.54Z" fill="black"/>
            <path d="M165.276 24.4349C165.28 25.6924 165.031 26.9382 164.543 28.1009C164.056 29.2636 163.339 30.3205 162.436 31.211C161.532 32.1016 160.458 32.8083 159.276 33.2907C158.094 33.7732 156.826 34.0218 155.546 34.0225H146.326V14.9067H155.548C161.505 14.9067 165.276 19.1716 165.276 24.4349ZM160.606 24.4349C160.606 21.5824 158.45 19.4945 155.996 19.4945H150.995V29.4347H155.996C158.42 29.3474 160.606 27.2875 160.606 24.4349Z" fill="black"/>
            <path d="M171.804 14.9067V34.0225H167.134V14.9067H171.804Z" fill="black"/>
            <path d="M190.427 31.4054H180.995L179.678 34.024H174.405L184.077 14.9082H187.61L196.922 34.024H191.742L190.427 31.4054ZM188.6 27.673L185.696 21.5263L182.936 27.673H188.6Z" fill="black"/>
        </g>
        <defs>
        <clipPath id="clip0_80_133">
        <rect width="196.923" height="40" fill="black"/>
        </clipPath>
        </defs>
	</symbol>
    <symbol id="logo" viewBox="0 0 197 40" fill="none" xmlns="http://www.w3.org/2000/svg">
		<g clip-path="url(#clip0_80_133)">
            <path d="M20.3596 39.9982C31.604 39.9982 40.7193 31.0443 40.7193 19.9991C40.7193 8.95391 31.604 0 20.3596 0C9.11532 0 0 8.95391 0 19.9991C0 31.0443 9.11532 39.9982 20.3596 39.9982Z" fill="#C94C9C"/>
            <path d="M24.6807 37.2174C33.1532 37.2174 40.0215 30.4707 40.0215 22.1483C40.0215 13.8258 33.1532 7.0791 24.6807 7.0791C16.2082 7.0791 9.33984 13.8258 9.33984 22.1483C9.33984 30.4707 16.2082 37.2174 24.6807 37.2174Z" fill="#CE3E96"/>
            <path d="M40.0214 22.148C40.0231 24.1279 39.6369 26.0897 38.884 27.9264C37.6221 31.023 35.377 33.6372 32.4821 35.3806C29.5873 37.124 26.1971 37.9036 22.8152 37.6037C19.4333 37.3037 16.2402 35.9401 13.71 33.7155C11.1799 31.4909 9.44785 28.524 8.77109 25.2554C8.5617 24.2323 8.45456 23.1915 8.45119 22.148C8.44673 19.5623 9.10127 17.0167 10.3551 14.7433C11.609 12.4698 13.4223 10.5408 15.6296 9.13222C17.837 7.72361 20.3682 6.88019 22.9925 6.67887C25.6167 6.47754 28.2506 6.92471 30.6538 7.97961C32.5155 8.7955 34.1978 9.95942 35.6069 11.4065C37.0085 12.8407 38.1184 14.5246 38.8769 16.3679C39.6324 18.2046 40.021 20.167 40.0214 22.148ZM40.0214 22.148C40.0172 21.1607 39.9154 20.1761 39.7175 19.2082C39.1147 16.2969 37.6231 13.6352 35.4416 11.5776C34.0147 10.2293 32.3275 9.17536 30.4793 8.47796C28.6311 7.78056 26.6594 7.45381 24.6806 7.51699C21.8781 7.59581 19.155 8.44909 16.8237 9.97892C14.4924 11.5088 12.6473 13.6532 11.5002 16.1661C10.3531 18.6791 9.95045 21.4588 10.3384 24.1863C10.7263 26.9138 11.8892 29.4787 13.6935 31.5866C15.4978 33.6945 17.8705 35.2601 20.5394 36.1037C23.2083 36.9473 26.0652 37.0348 28.7824 36.3561C31.4996 35.6774 33.967 34.2601 35.9015 32.2667C37.8359 30.2733 39.1592 27.7845 39.7193 25.0861C39.9158 24.1185 40.0169 23.1346 40.0214 22.148Z" fill="white"/>
            <path d="M28.4739 35.2013C34.7871 35.2013 39.9049 30.1741 39.9049 23.9727C39.9049 17.7713 34.7871 12.7441 28.4739 12.7441C22.1608 12.7441 17.043 17.7713 17.043 23.9727C17.043 30.1741 22.1608 35.2013 28.4739 35.2013Z" fill="#D1519D"/>
            <path d="M39.9041 23.9724C39.9054 26.2413 39.2278 28.4606 37.9556 30.3543C36.6833 32.248 34.8725 33.7327 32.7482 34.6236C30.624 35.5146 28.28 35.7727 26.0076 35.3657C23.7353 34.9587 21.6348 33.9046 19.9674 32.3345C18.2362 30.7082 17.0519 28.6015 16.5729 26.296C16.4168 25.5309 16.3364 24.7528 16.333 23.9724C16.3352 21.2836 17.29 18.6793 19.0335 16.6065C20.777 14.5336 23.2005 13.1213 25.8882 12.612C28.576 12.1027 31.3604 12.528 33.7638 13.8151C36.1671 15.1021 38.0396 17.1706 39.0599 19.6657C39.6194 21.035 39.906 22.497 39.9041 23.9724ZM39.9041 23.9724C39.9014 21.4455 39.0035 18.9982 37.3645 17.0506C35.7254 15.1029 33.4473 13.7764 30.9212 13.2986C28.395 12.8208 25.7784 13.2216 23.5203 14.4321C21.2621 15.6427 19.5033 17.5875 18.5456 19.9328C17.5977 22.2422 17.485 24.8011 18.2262 27.1823C18.9674 29.5635 20.5178 31.6229 22.6184 33.0166C24.719 34.4103 27.2428 35.0541 29.7683 34.8403C32.2939 34.6266 34.6684 33.5683 36.4954 31.8422C37.5768 30.8254 38.4373 29.6037 39.0247 28.2511C39.612 26.8985 39.9142 25.443 39.913 23.9724H39.9041Z" fill="white"/>
            <path d="M21.2695 27.5947H26.3292C26.3292 27.6244 26.5389 30.2133 29.9832 30.2133C31.8386 30.2133 33.5162 29.1258 33.5162 27.9439C33.5162 25.4999 28.995 25.3253 27.7066 25.0617C25.4317 24.62 21.5699 23.6215 21.5699 19.9991C21.5699 16.6158 25.2522 13.8506 29.745 13.8506C35.2241 13.8506 37.9201 16.5861 37.9201 19.1454H33.0968C33.0968 18.674 32.2882 17.6755 29.7432 17.6755C28.0371 17.6755 26.6296 18.7037 26.6296 19.9991C26.6296 21.5563 29.6508 21.5563 30.7314 21.7343C33.4558 22.2336 38.5759 22.8813 38.5759 27.9387C38.5759 31.2329 34.6234 33.9981 29.9832 33.9981C24.0242 34.0068 21.2695 30.1837 21.2695 27.5947Z" fill="white"/>
            <path d="M54.349 31.4054H44.9174L43.6005 34.024H38.3311L48.0008 14.9082H51.5339L60.8429 34.0222H55.6659L54.349 31.4054ZM52.522 27.673L49.6181 21.5263L46.8634 27.673H52.522Z" fill="white"/>
            <path d="M79.5277 29.4347V34.0225H62.6709V14.9067H67.3414V29.4347H79.5277Z" fill="white"/>
            <path d="M87.3424 19.0232V22.4361H95.2172V26.5229H87.3424V29.9427H97.3125V34.0295H82.6719V14.9067H97.3125V19.0232H87.3424Z" fill="white"/>
            <path d="M125.787 14.9067V34.0225H121.115V24.2586L116.535 34.0225H114.498L110.007 24.3564V34.0313H105.307V14.9067H110.007V14.994L115.517 25.7303L121.115 14.9067H125.787Z" fill="white"/>
            <path d="M133.54 19.0232V22.4361H141.413V26.5229H133.54V29.9427H143.51V34.0295H128.868V14.9067H143.51V19.0232H133.54Z" fill="white"/>
            <path d="M165.276 24.4349C165.28 25.6924 165.031 26.9382 164.543 28.1009C164.056 29.2636 163.339 30.3205 162.436 31.211C161.532 32.1016 160.458 32.8083 159.276 33.2907C158.094 33.7732 156.826 34.0218 155.546 34.0225H146.326V14.9067H155.548C161.505 14.9067 165.276 19.1716 165.276 24.4349ZM160.606 24.4349C160.606 21.5824 158.45 19.4945 155.996 19.4945H150.995V29.4347H155.996C158.42 29.3474 160.606 27.2875 160.606 24.4349Z" fill="white"/>
            <path d="M171.804 14.9067V34.0225H167.134V14.9067H171.804Z" fill="white"/>
            <path d="M190.427 31.4054H180.995L179.678 34.024H174.405L184.077 14.9082H187.61L196.922 34.024H191.742L190.427 31.4054ZM188.6 27.673L185.696 21.5263L182.936 27.673H188.6Z" fill="white"/>
        </g>
        <defs>
        <clipPath id="clip0_80_133">
        <rect width="196.923" height="40" fill="white"/>
        </clipPath>
        </defs>
	</symbol>
        <symbol id="menu-back"  width="24" height="24" viewBox="0 0 24 24" fill="none" xmlns="http://www.w3.org/2000/svg">
		<g>
            <path id="Vector 2 (Stroke)" fill-rule="evenodd" clip-rule="evenodd" d="M9.72847 12L15 17.1549L14.1358 18L8 12L14.1358 6L15 6.84511L9.72847 12Z" fill="white"/>
        </g>
	</symbol>
    <symbol id="menu-burger" width="24" height="24" viewBox="0 0 24 24" fill="none" xmlns="http://www.w3.org/2000/svg">
		<g>
            <path d="M3 12H21" stroke="#CC4391" stroke-width="2" stroke-linecap="round" stroke-linejoin="round"/>
            <path d="M3 6H21" stroke="#CC4391" stroke-width="2" stroke-linecap="round" stroke-linejoin="round"/>
            <path d="M3 18H21" stroke="#CC4391" stroke-width="2" stroke-linecap="round" stroke-linejoin="round"/>
        </g>
	</symbol>
    <symbol id="more-arr" width="6" height="3" viewBox="0 0 6 3" fill="none" xmlns="http://www.w3.org/2000/svg">
		<g>
            <path d="M3 3L0.401924 -4.89399e-07L5.59808 -3.51373e-08L3 3Z" fill="#666666"/>
        </g>
	</symbol>
    <symbol id="open-tab" width="24" height="24" viewBox="0 0 24 24" fill="none" xmlns="http://www.w3.org/2000/svg">
		<g>
            <path id="Vector 2 (Stroke)" fill-rule="evenodd" clip-rule="evenodd" d="M12 14.2715L17.1549 9L18 9.86423L12 16L6 9.86423L6.84511 9L12 14.2715Z" fill="#2C2F31"/>
        </g>
	</symbol>
    <symbol id="phone" width="22" height="22" viewBox="0 0 24 24" fill="none" xmlns="http://www.w3.org/2000/svg">
		<g>
            <path d="M22.0004 16.92V19.92C22.0016 20.1985 21.9445 20.4741 21.8329 20.7293C21.7214 20.9845 21.5577 21.2136 21.3525 21.4018C21.1473 21.5901 20.905 21.7335 20.6412 21.8227C20.3773 21.9119 20.0978 21.945 19.8204 21.92C16.7433 21.5856 13.7874 20.5341 11.1904 18.85C8.77425 17.3146 6.72576 15.2661 5.19042 12.85C3.5004 10.2412 2.44866 7.27097 2.12042 4.17997C2.09543 3.90344 2.1283 3.62474 2.21692 3.3616C2.30555 3.09846 2.44799 2.85666 2.63519 2.6516C2.82238 2.44653 3.05023 2.28268 3.30421 2.1705C3.5582 2.05831 3.83276 2.00024 4.11042 1.99997H7.11042C7.59573 1.9952 8.06621 2.16705 8.43418 2.48351C8.80215 2.79996 9.0425 3.23942 9.11042 3.71997C9.23704 4.68004 9.47187 5.6227 9.81042 6.52997C9.94497 6.8879 9.97408 7.27689 9.89433 7.65086C9.81457 8.02482 9.62928 8.36809 9.36042 8.63998L8.09042 9.90997C9.51398 12.4135 11.5869 14.4864 14.0904 15.91L15.3604 14.64C15.6323 14.3711 15.9756 14.1858 16.3495 14.1061C16.7235 14.0263 17.1125 14.0554 17.4704 14.19C18.3777 14.5285 19.3204 14.7634 20.2804 14.89C20.7662 14.9585 21.2098 15.2032 21.527 15.5775C21.8441 15.9518 22.0126 16.4296 22.0004 16.92Z" stroke="#CC4391" stroke-width="2" stroke-linecap="round" stroke-linejoin="round"/>
        </g>
	</symbol>
    <symbol id="right" width="48" height="48" viewBox="0 0 48 48" fill="none" xmlns="http://www.w3.org/2000/svg">
		<g>
            <circle cx="24" cy="24" r="24" fill="white"/>
            <path d="M22 30L28 24L22 18" stroke="#CC4391" stroke-width="2" stroke-linecap="round" stroke-linejoin="round"/>
        </g>
	</symbol>




    <symbol id="number01" width="16" height="45" viewBox="0 0 16 45" fill="none" xmlns="http://www.w3.org/2000/svg">
        <path d="M15.744 0.199997V45H11.136V4.296H0.576V0.199997H15.744Z" fill="#CC4391"/>
    </symbol>

    <symbol id="number02" width="33" height="46" viewBox="0 0 33 46" fill="none" xmlns="http://www.w3.org/2000/svg">
        <path d="M32.92 41.904V46H1.496V42.736L20.12 24.496C22.4667 22.192 24.0453 20.208 24.856 18.544C25.7093 16.8373 26.136 15.1307 26.136 13.424C26.136 10.7787 25.2187 8.73066 23.384 7.28C21.592 5.78666 19.0107 5.04 15.64 5.04C10.392 5.04 6.31733 6.704 3.416 10.032L0.152 7.216C1.90133 5.168 4.12 3.58933 6.808 2.48C9.53867 1.37067 12.6107 0.815998 16.024 0.815998C20.5893 0.815998 24.1947 1.904 26.84 4.08C29.528 6.21333 30.872 9.15733 30.872 12.912C30.872 15.216 30.36 17.4347 29.336 19.568C28.312 21.7013 26.3707 24.1547 23.512 26.928L8.28 41.904H32.92Z" fill="#CC4391"/>
    </symbol>

    <symbol id="number03" width="33" height="46" viewBox="0 0 33 46" fill="none" xmlns="http://www.w3.org/2000/svg">
        <path d="M18.56 19.4C23.2533 19.656 26.816 20.936 29.248 23.24C31.7227 25.5013 32.96 28.4667 32.96 32.136C32.96 34.696 32.3413 36.9787 31.104 38.984C29.8667 40.9467 28.032 42.504 25.6 43.656C23.168 44.808 20.2027 45.384 16.704 45.384C13.4613 45.384 10.3893 44.872 7.488 43.848C4.62933 42.7813 2.32533 41.3733 0.576 39.624L2.816 35.976C4.30933 37.512 6.29333 38.7707 8.768 39.752C11.2427 40.6907 13.888 41.16 16.704 41.16C20.3733 41.16 23.2107 40.3707 25.216 38.792C27.2213 37.1707 28.224 34.952 28.224 32.136C28.224 29.3627 27.2213 27.1867 25.216 25.608C23.2107 24.0293 20.1813 23.24 16.128 23.24H12.928V19.848L25.344 4.296H2.432V0.199997H31.232V3.464L18.56 19.4Z" fill="#CC4391"/>
    </symbol>

    <symbol id="number04" width="40" height="45" viewBox="0 0 40 45" fill="none" xmlns="http://www.w3.org/2000/svg">
        <path d="M39.408 33.224H30.448V45H25.84V33.224H0.56V29.896L24.304 0.199997H29.424L6.512 29.128H25.968V18.76H30.448V29.128H39.408V33.224Z" fill="#CC4391"/>
    </symbol>

    <symbol id="number05" width="33" height="46" viewBox="0 0 33 46" fill="none" xmlns="http://www.w3.org/2000/svg">
        <path d="M14.104 18.568C20.5893 18.568 25.304 19.7413 28.248 22.088C31.2347 24.392 32.728 27.6347 32.728 31.816C32.728 34.4187 32.1093 36.744 30.872 38.792C29.6773 40.84 27.864 42.4613 25.432 43.656C23 44.808 20.0133 45.384 16.472 45.384C13.272 45.384 10.2213 44.872 7.32 43.848C4.46133 42.7813 2.15733 41.3733 0.408 39.624L2.648 35.976C4.14133 37.512 6.104 38.7707 8.536 39.752C10.968 40.6907 13.592 41.16 16.408 41.16C20.12 41.16 22.9787 40.328 24.984 38.664C27.032 37 28.056 34.7813 28.056 32.008C28.056 28.936 26.904 26.6107 24.6 25.032C22.3387 23.4533 18.4987 22.664 13.08 22.664H3.544L5.848 0.199997H30.36V4.296H9.88L8.344 18.568H14.104Z" fill="#CC4391"/>
    </symbol>

    <symbol id="number06" width="34" height="47" viewBox="0 0 34 47" fill="none" xmlns="http://www.w3.org/2000/svg">
        <path d="M18.888 19.184C21.832 19.184 24.4347 19.7387 26.696 20.848C29 21.9573 30.792 23.536 32.072 25.584C33.352 27.5893 33.992 29.936 33.992 32.624C33.992 35.3547 33.3307 37.7653 32.008 39.856C30.6853 41.9467 28.8507 43.568 26.504 44.72C24.2 45.8293 21.5973 46.384 18.696 46.384C12.7653 46.384 8.22133 44.4427 5.064 40.56C1.90667 36.6347 0.328 31.1093 0.328 23.984C0.328 18.992 1.18133 14.768 2.888 11.312C4.59467 7.856 6.984 5.25333 10.056 3.504C13.128 1.712 16.712 0.815998 20.808 0.815998C25.2453 0.815998 28.7867 1.62666 31.432 3.248L29.576 6.96C27.4427 5.552 24.5413 4.848 20.872 4.848C15.9227 4.848 12.04 6.42667 9.224 9.584C6.408 12.6987 5 17.2427 5 23.216C5 24.2827 5.064 25.4987 5.192 26.864C6.30133 24.432 8.072 22.5547 10.504 21.232C12.936 19.8667 15.7307 19.184 18.888 19.184ZM18.504 42.48C21.7467 42.48 24.3707 41.6053 26.376 39.856C28.424 38.064 29.448 35.696 29.448 32.752C29.448 29.808 28.424 27.4613 26.376 25.712C24.3707 23.9627 21.64 23.088 18.184 23.088C15.9227 23.088 13.9173 23.5147 12.168 24.368C10.4613 25.2213 9.11733 26.3947 8.136 27.888C7.15467 29.3813 6.664 31.0453 6.664 32.88C6.664 34.5867 7.112 36.1653 8.008 37.616C8.94667 39.0667 10.312 40.24 12.104 41.136C13.896 42.032 16.0293 42.48 18.504 42.48Z" fill="#CC4391"/>
    </symbol>
</svg>